<?xml version="1.0" encoding="UTF-8"?>
<svg id="Capa_1" data-name="Capa 1" xmlns="http://www.w3.org/2000/svg" viewBox="0 0 391.55 85.66">
  <defs>
    <style>
      .cls-1 {
        fill: #f0f0f0;
      }
    </style>
  </defs>
  <path class="cls-1" d="m115.61,61.45c0,5.34-4.09,9.22-9.78,9.22h-9.57c-2.11,0-3.66-1.51-3.66-3.62v-23.91c0-2.11,1.51-3.53,3.58-3.53h7.41c5.69,0,9.44,3.23,9.44,8.15,0,.95-.17,1.85-.47,2.76-.56,1.59-1.25,2.24-3.19,3.32,4.04.93,6.24,3.6,6.24,7.61m-16.03-3.66v6.72h5.39c1.9,0,3.49-1.47,3.49-3.28,0-1.94-1.55-3.45-3.45-3.45h-5.43Zm.04-12.03v5.99h3.28c1.81,0,3.28-1.34,3.28-2.97s-1.42-3.02-3.19-3.02h-3.37Z"/>
  <path class="cls-1" d="m123.88,64.81l-1.16,3.92c-.43,1.47-1.72,2.41-3.36,2.41-1.94,0-3.45-1.51-3.45-3.4,0-.56.09-1.16.3-1.72l8.58-22.93c.99-2.63,2.67-3.88,5.09-3.88s4.14,1.38,5.04,3.88l8.45,22.97c.26.69.35,1.38.35,2.07,0,1.59-1.51,2.97-3.45,2.97-1.51,0-2.71-.9-3.19-2.37l-1.25-3.92h-11.95Zm5.99-18.36l-4.01,12.07,7.84.04-3.83-12.11Z"/>
  <path class="cls-1" d="m152.54,58.18v9.44c0,1.9-1.51,3.45-3.45,3.45s-3.58-1.59-3.58-3.58v-24.23c0-2.07,1.55-3.62,3.58-3.62h8.02c6.29,0,10.73,3.96,10.73,9.65,0,2.97-1.25,5.6-3.45,7.11-1.08.73-1.9,1.03-3.96,1.38l6.9,7.54c.56.6.9,1.38.9,2.24,0,1.94-1.59,3.49-3.58,3.49-.95,0-2.03-.56-2.76-1.46l-9.35-11.41Zm.04-12.16v7.02h4.57c2.07,0,3.71-1.55,3.71-3.58,0-1.9-1.68-3.45-3.79-3.45h-4.49Z"/>
  <path class="cls-1" d="m177.49,58.18v9.44c0,1.9-1.51,3.45-3.45,3.45s-3.58-1.59-3.58-3.58v-24.23c0-2.07,1.55-3.62,3.58-3.62h8.02c6.29,0,10.73,3.96,10.73,9.65,0,2.97-1.25,5.6-3.45,7.11-1.08.73-1.9,1.03-3.96,1.38l6.9,7.54c.56.6.9,1.38.9,2.24,0,1.94-1.59,3.49-3.58,3.49-.95,0-2.03-.56-2.76-1.46l-9.35-11.41Zm.04-12.16v7.02h4.57c2.07,0,3.71-1.55,3.71-3.58,0-1.9-1.68-3.45-3.79-3.45h-4.49Z"/>
  <path class="cls-1" d="m201.58,64.81l-1.16,3.92c-.43,1.47-1.72,2.41-3.36,2.41-1.94,0-3.45-1.51-3.45-3.4,0-.56.09-1.16.3-1.72l8.58-22.93c.99-2.63,2.67-3.88,5.09-3.88s4.14,1.38,5.04,3.88l8.45,22.97c.26.69.35,1.38.35,2.07,0,1.59-1.51,2.97-3.45,2.97-1.51,0-2.71-.9-3.19-2.37l-1.25-3.92h-11.95Zm5.99-18.36l-4.01,12.07,7.84.04-3.83-12.11Z"/>
  <path class="cls-1" d="m230.07,51.62l.13,15.99c0,1.9-1.51,3.45-3.45,3.45s-3.53-1.64-3.53-3.62v-24.61c0-2.03,1.55-3.58,3.49-3.58,1.08,0,1.98.56,2.84,1.64l13.92,17.84-.13-15.99c0-1.94,1.59-3.53,3.49-3.53s3.45,1.6,3.45,3.53v24.87c0,1.98-1.47,3.45-3.53,3.45-1.08,0-1.94-.47-2.76-1.51l-13.92-17.93Z"/>
  <path class="cls-1" d="m283.38,67.61c.47.43.78,1.12.78,1.98,0,2.03-1.12,3.15-3.15,3.15-.86,0-1.64-.3-2.15-.73l-3.02-2.72c-3.1,1.6-4.53,1.98-7.63,1.98-8.84,0-15.17-6.77-15.17-16.16s6.21-16.08,15.21-16.08,15.13,6.77,15.13,16.21c0,3.92-.47,5.73-2.89,9.78l2.89,2.59Zm-8.45-7.37c1.03-1.64,1.16-2.11,1.16-5.04,0-5.95-3.15-9.87-7.89-9.87s-7.89,3.92-7.89,9.78,3.32,10.13,8.06,10.13c.86,0,1.34-.17,2.33-.69l-3.49-3.32c-.6-.56-.9-1.51-.9-2.54,0-1.55.9-2.37,2.59-2.37.9,0,1.72.26,2.28.73l3.75,3.19Z"/>
  <path class="cls-1" d="m313.2,58.05c0,7.8-5.47,13.14-13.53,13.14-3.83,0-7.46-1.38-10.04-3.88-2.41-2.28-3.53-5.3-3.53-9.27v-15.16c0-2.03,1.59-3.62,3.49-3.62s3.53,1.6,3.53,3.58v15.04c0,2.28.47,3.66,1.64,4.91,1.16,1.25,3.02,2.03,4.91,2.03,4.05,0,6.51-2.67,6.51-6.94v-15.05c0-1.98,1.6-3.58,3.53-3.58s3.49,1.6,3.49,3.62v15.18Z"/>
  <path class="cls-1" d="m323.71,67.61c0,1.9-1.51,3.45-3.49,3.45s-3.49-1.55-3.49-3.49v-24.74c0-1.98,1.6-3.58,3.53-3.58s3.45,1.6,3.45,3.58v24.78h0Z"/>
  <path class="cls-1" d="m334.31,64.34h7.76c1.81,0,3.23,1.38,3.23,3.15s-1.42,3.19-3.19,3.19h-11.29c-1.9,0-3.53-1.68-3.53-3.66v-24.27c0-1.94,1.59-3.49,3.49-3.49s3.53,1.6,3.53,3.49v21.59Z"/>
  <path class="cls-1" d="m353.45,64.34h7.76c1.81,0,3.23,1.38,3.23,3.15s-1.42,3.19-3.19,3.19h-11.29c-1.9,0-3.53-1.68-3.53-3.66v-24.27c0-1.94,1.6-3.49,3.49-3.49s3.53,1.6,3.53,3.49v21.59Z"/>
  <path class="cls-1" d="m371.72,64.81l-1.16,3.92c-.43,1.47-1.72,2.41-3.36,2.41-1.94,0-3.45-1.51-3.45-3.4,0-.56.09-1.16.3-1.72l8.58-22.93c.99-2.63,2.67-3.88,5.08-3.88s4.14,1.38,5.04,3.88l8.45,22.97c.26.69.35,1.38.35,2.07,0,1.59-1.51,2.97-3.45,2.97-1.51,0-2.71-.9-3.19-2.37l-1.25-3.92h-11.94Zm5.99-18.36l-4.01,12.07,7.84.04-3.83-12.11Z"/>
  <path class="cls-1" d="m96.46,30.95l-1.49,3.92c-.24.59-.64.91-1.2.91-.7,0-1.17-.53-1.17-1.17,0-.26.03-.47.12-.73l6.73-18.15c.44-1.17.91-1.55,1.79-1.55,1.08,0,1.55.35,1.99,1.55l6.7,18.15c.09.26.15.5.15.76,0,.67-.5,1.14-1.17,1.14-.59,0-1-.32-1.23-.91l-1.46-3.92s-9.76,0-9.76,0Zm4.86-13.76l-4.13,11.53h8.28l-4.15-11.53Z"/>
  <path class="cls-1" d="m115.63,33.15h5.5c.73,0,1.35.5,1.35,1.14s-.58,1.2-1.23,1.2h-6.65c-.88,0-1.49-.64-1.49-1.49V15.46c0-.73.56-1.35,1.29-1.35s1.23.61,1.23,1.32v17.72Z"/>
  <path class="cls-1" d="m137.02,31.89c.38-.23.64-.35.88-.35.64,0,1.17.53,1.17,1.23,0,.47-.26.88-.79,1.29-1.43,1.11-3.48,1.73-5.65,1.73-5.62,0-9.49-4.33-9.49-10.71s3.78-11.01,9.31-11.01c1.61,0,3.16.41,4.39,1.11,1.14.67,1.76,1.43,1.76,2.11,0,.62-.53,1.17-1.08,1.17-.32,0-.61-.12-1-.41-.53-.38-.82-.59-.88-.64-.85-.59-2.17-.97-3.28-.97-3.84,0-6.56,3.51-6.56,8.55s2.72,8.43,6.82,8.43c1.32,0,2.63-.38,3.54-.97l.86-.56Z"/>
  <path class="cls-1" d="m144.94,30.95l-1.49,3.92c-.24.59-.64.91-1.2.91-.7,0-1.17-.53-1.17-1.17,0-.26.03-.47.12-.73l6.73-18.15c.44-1.17.91-1.55,1.79-1.55,1.08,0,1.55.35,1.99,1.55l6.7,18.15c.09.26.15.5.15.76,0,.67-.5,1.14-1.17,1.14-.59,0-1-.32-1.23-.91l-1.46-3.92s-9.76,0-9.76,0Zm4.86-13.76l-4.13,11.53h8.28l-4.15-11.53Z"/>
  <path class="cls-1" d="m164.11,33.15h5.5c.73,0,1.35.5,1.35,1.14s-.58,1.2-1.23,1.2h-6.65c-.88,0-1.49-.64-1.49-1.49V15.46c0-.73.56-1.35,1.29-1.35s1.23.61,1.23,1.32v17.72Z"/>
  <path class="cls-1" d="m175.03,35.49c-.85,0-1.38-.47-1.38-1.23l.03-18.65c0-.67.55-1.23,1.26-1.23h5.47c5.36,0,9.07,4.33,9.07,10.51s-3.63,10.6-9.19,10.6h-5.26Zm1.14-18.82v16.54h3.98c4.07,0,6.62-3.22,6.62-8.34s-2.66-8.2-6.53-8.2h-4.07Z"/>
  <path class="cls-1" d="m194.75,12.1c-.12.03-.21.06-.32.06-.67,0-1.32-.47-1.32-1.03s.32-1.05.79-1.23l4.16-1.61c.12-.06.23-.06.35-.06.67,0,1.26.44,1.26.94,0,.61-.29,1.08-.76,1.26l-4.16,1.67Zm1.08,22.39c0,.7-.56,1.29-1.23,1.29-.73,0-1.29-.59-1.29-1.29V15.46c0-.7.56-1.32,1.29-1.32.67,0,1.23.61,1.23,1.32v19.03Z"/>
  <path class="cls-1" d="m202.76,30.95l-1.49,3.92c-.24.59-.64.91-1.2.91-.7,0-1.17-.53-1.17-1.17,0-.26.03-.47.12-.73l6.73-18.15c.44-1.17.91-1.55,1.79-1.55,1.08,0,1.55.35,1.99,1.55l6.7,18.15c.09.26.15.5.15.76,0,.67-.5,1.14-1.17,1.14-.59,0-1-.32-1.23-.91l-1.46-3.92s-9.76,0-9.76,0Zm4.86-13.76l-4.13,11.53h8.28l-4.15-11.53Z"/>
  <path class="cls-1" d="m230.15,35.49c-.85,0-1.38-.47-1.38-1.23l.03-18.65c0-.67.55-1.23,1.26-1.23h5.47c5.36,0,9.07,4.33,9.07,10.51s-3.63,10.6-9.19,10.6h-5.26Zm1.14-18.82v16.54h3.98c4.07,0,6.62-3.22,6.62-8.34s-2.66-8.2-6.53-8.2h-4.07Z"/>
  <path class="cls-1" d="m250.99,33.18h6.44c.62,0,1.17.5,1.17,1.14s-.5,1.17-1.17,1.17h-7.7c-.79,0-1.29-.53-1.29-1.4V15.7c0-.76.56-1.32,1.32-1.32h7.38c.64,0,1.17.53,1.17,1.17s-.53,1.17-1.2,1.17h-6.09v7.06h5.77c.67,0,1.2.53,1.2,1.14,0,.67-.53,1.2-1.17,1.2h-5.83v7.06h0Z"/>
  <path class="cls-1" d="m77.71,61.9c-4.83,9.89-16.1,11.34-19.01,11.81.35-.36.6-.7.78-.99.7-1.12.87-2.4.54-3.5,1.9-.16,4.19-.58,6.92-2.28,8.6-5.38,5.69-11.9,3.33-11.97.33-.11.68-.17,1.01-.1.91.13,1.74.64,2.28,1.36.57.72.8,1.65.81,2.6.05.95-.24,1.9-.49,2.85.23-.43.47-.87.64-1.35.14-.48.3-.97.31-1.49.11-1.01-.13-2.12-.78-2.97-.65-.84-1.65-1.42-2.73-1.46-.52-.04-1.09.1-1.51.42-.21.13-.35.33-.46.54-.56.69-.33,2.68.62,3.86-1.85-.19-2.35-2.05-2.35-2.05v1.42s-.02,1.63-.61,3.21c-.8,2.14-2.17,3.13-4.18,3.02-1.28-.06-3.03-.78-3.01-2.88.2.21.43.39.69.52.65.35,1.41.45,2.11.33,1.4-.23,2.54-1.36,2.79-2.67-.41,1.28-1.61,2.16-2.85,2.22-.62.04-1.22-.12-1.7-.46-.34-.24-.6-.57-.78-.93h0c.62-.17,1.16-.63,1.29-1.53.11-.01.23-.04.34-.06.51-.12,1.01-.37,1.38-.76.39-.37.59-.88.65-1.38.08-.5.02-.98-.06-1.46,0,.48-.01.97-.16,1.41-.13.45-.39.83-.74,1.09-.34.26-.76.4-1.18.42h-.08c-.13-.01-.31-.02-.56-.04-.66-.04-2.44-1.13-1.04-3.66.24.31.59.49,1,.52h.07c.8,0,1.15-.57,1.78-1.61.23-.37.49-.81.83-1.32.24-.36,1-1.45,2.23-2.43l.2-.16c1.13-.86,2.62-1.57,4.39-1.57,1.28,0,2.6.37,3.91,1.13,3.11,1.8,5.57,7.82,3.38,12.35"/>
  <path class="cls-1" d="m37.04,48.8v.48c-1.91.01-3.8.04-5.71.08l.23-.35c1.82-.09,3.65-.16,5.48-.21"/>
  <polygon class="cls-1" points="36 63.18 35.88 63.32 35.74 63.19 35.74 63.13 35.7 63.16 35.55 63.03 35.55 62.99 35.42 62.85 35.42 62.84 35.29 62.71 35.27 62.39 35.97 62.39 36 63.18"/>
  <path class="cls-1" d="m56.89,21.4c0,.11-.04.23-.08.37l-.04.08-.54-.23c.06-.13.08-.24.06-.34,0-.1-.07-.16-.19-.21l-.16-.05-.13.04-.1.08-.06.12-.04.24.16.26.35.37.21.25.1.24v.23l-.07.24c-.13.29-.3.47-.53.53-.23.06-.49.04-.81-.1-.31-.13-.51-.3-.59-.5-.06-.2-.06-.43.05-.69l.06-.11.56.23-.04.08-.06.19v.16s.08.13.08.13l.17.11h.27c.1-.01.16-.09.22-.21l.04-.17-.04-.16-.11-.17-.19-.19-.27-.28-.16-.27-.04-.29c0-.1.04-.21.08-.31.12-.28.29-.46.49-.52.22-.07.45-.06.72.06.12.05.23.11.33.18l.22.25c.05.14.08.25.08.36"/>
  <polygon class="cls-1" points="27.36 44.16 27.36 44.19 27.81 44.23 27.83 44.2 27.36 44.16"/>
  <path class="cls-1" d="m30.36,51.78c-1.06-.07-2.09,1.09-2.27,2.56-.19,1.46.52,2.64,1.56,2.68,1.01.04,2-1.08,2.21-2.49.21-1.43-.45-2.67-1.5-2.75m.21.69c.12.06.23.15.33.27.12.14.2.34.28.54l-.6.45-.16-.19.15-1.07Zm-.32-.06l-.16,1-.29.08-.4-.65c.27-.27.57-.43.85-.43m-1.05.7l.35.59c-.12.14-.21.33-.25.53l-.52-.17c.1-.37.24-.7.42-.95m-.49,1.32v-.05s.55.18.55.18c0,.11,0,.22.04.31l-.51.66c-.1-.32-.13-.7-.08-1.1m.99,1.96h-.04c-.22,0-.41-.11-.58-.3l-.15-.22.52-.69.24.17v1.04h.01Zm.12-1.7v-.02h0l-.05-.27c.02-.21.16-.34.27-.34h0l.1.05.04.05h0v.02s.03.23.03.23c-.02.19-.16.34-.27.34l-.11-.06Zm.19,1.63v-.95l.28-.15.37.59c-.19.25-.42.43-.65.51m.84-.79l-.35-.57.08-.16.53.15c-.06.21-.15.41-.26.58m.38-1.08l-.02.18-.53-.13v-.05c.03-.14.02-.29,0-.41l.57-.42c.03.26.03.54-.02.83"/>
  <path class="cls-1" d="m61.57,23.58c-.08-.15-.22-.28-.41-.4-.2-.12-.37-.18-.53-.19-.16,0-.3.04-.44.12-.13.07-.27.18-.39.35-.12.14-.24.31-.36.52-.12.19-.22.39-.3.54-.1.18-.15.35-.16.51s.02.29.1.43c.08.13.22.25.41.39.19.12.37.18.52.21.16,0,.29-.04.43-.11.15-.08.27-.21.39-.36s.23-.33.36-.52c.12-.19.23-.37.31-.56.08-.17.13-.34.15-.49.01-.16-.02-.3-.08-.44m-.51.39c-.01.1-.06.21-.12.33-.07.12-.16.28-.27.45-.11.18-.2.33-.28.44-.1.12-.17.2-.25.26l-.2.1-.22-.06-.15-.17v-.24c.01-.08.05-.19.12-.31.07-.13.16-.28.27-.46.11-.17.2-.31.29-.42.08-.12.16-.21.24-.27l.2-.1.22.06.14.17v.22h.01Z"/>
  <polygon class="cls-1" points="28.03 23.86 26.46 24.62 25.12 21.9 26.64 21.16 26.87 21.6 25.89 22.09 26.21 22.73 27.12 22.28 27.35 22.73 26.44 23.19 26.8 23.91 27.8 23.41 28.03 23.86"/>
  <polygon class="cls-1" points="54.34 19.95 54.18 20.42 53.55 20.22 52.75 22.62 52.17 22.42 52.97 20.02 52.33 19.82 52.49 19.35 54.34 19.95"/>
  <path class="cls-1" d="m54.56,54.34c-.18-1.47-1.21-2.63-2.27-2.56-1.04.07-1.7,1.32-1.5,2.75.2,1.41,1.19,2.52,2.22,2.49,1.05-.03,1.75-1.22,1.55-2.68m-.68-.27l-.51.17c-.06-.21-.15-.39-.27-.53l.35-.59c.18.24.34.57.43.95m-.63-1.22l-.39.65-.3-.08-.16-1c.28-.01.58.15.85.43m-1.49-.11c.11-.12.22-.21.33-.27l.17,1.06-.17.19-.59-.45c.06-.2.14-.39.26-.53m-.33,1.71c-.05-.29-.05-.57,0-.83l.56.42c-.02.12-.04.27,0,.41v.05s-.51.13-.51.13l-.04-.18Zm.1.5l.54-.15.07.16-.35.57c-.1-.17-.18-.37-.26-.58m1.11,1.37c-.23-.08-.45-.26-.65-.51l.37-.59.28.15s0,.95,0,.95Zm.21-1.65v.02s-.12.06-.12.06c-.11,0-.24-.14-.27-.34l.02-.23v-.03s.03-.05.03-.05l.1-.05h0c.11,0,.24.13.27.34l-.04.28Zm.72,1.42c-.17.19-.36.3-.58.3h-.04v-1.04l.24-.17.52.69-.14.22Zm.29-.55l-.51-.66c.02-.1.05-.21.05-.31l.53-.18v.05c.07.39.04.77-.07,1.1"/>
  <polygon class="cls-1" points="28.28 44.23 28.26 44.27 28.43 44.29 28.46 44.25 28.28 44.23"/>
  <polygon class="cls-1" points="29.86 44.36 29.83 44.41 30.67 44.48 30.7 44.43 29.86 44.36"/>
  <path class="cls-1" d="m37.49,69.24h-.91c0-.27.19-.47.42-.47h.05c.25,0,.44.2.44.47"/>
  <polygon class="cls-1" points="29.19 20.76 29.18 20.76 29.59 23.21 29.14 23.39 27.74 21.34 27.73 21.35 28.63 23.58 28.11 23.8 26.98 20.99 27.83 20.65 29.02 22.47 29.03 22.47 28.63 20.32 29.47 19.99 30.61 22.79 30.09 23 29.19 20.76"/>
  <polygon class="cls-1" points="27.86 44.2 27.84 44.23 28.22 44.27 28.25 44.23 27.86 44.2"/>
  <polygon class="cls-1" points="55.1 20.24 54.02 23.08 53.47 22.87 54.53 20.03 55.1 20.24"/>
  <polygon class="cls-1" points="35.07 44.38 32.92 44.2 32.92 44.17 35.06 44.33 35.07 44.38"/>
  <path class="cls-1" d="m28.92,49.16l-.22.29c-3.17.1-6.36.23-9.55.41v-.11c3.27-.18,6.53-.39,9.77-.59"/>
  <path class="cls-1" d="m54.32,56.72l-.7.22c.76-.34,1.23-1.39,1.08-2.6-.22-1.76-1.36-2.52-2.09-2.61h.06c1.07-.08,2.16,1.13,2.35,2.61.14,1.04-.13,1.93-.7,2.38"/>
  <polygon class="cls-1" points="35.12 44.78 35.12 44.81 35 44.81 32.81 44.62 32.81 44.56 35.12 44.78"/>
  <path class="cls-1" d="m40.67,48.74v.53h-2.63v-.49c.88-.03,1.75-.04,2.63-.04"/>
  <path class="cls-1" d="m37.91,50.77l-.04.17h-.65l-.04-.17c0-.19.12-.34.29-.37-.02-.1-.11-.47-.11-1.03,0-.98-.04-1.16.18-1.16s.18.16.18,1.16c0,.55-.08.93-.11,1.03.17.03.3.18.3.37"/>
  <polygon class="cls-1" points="35.06 44.32 32.94 44.15 32.94 44.12 35.04 44.27 35.06 44.32"/>
  <polygon class="cls-1" points="35.04 44.26 32.97 44.1 32.97 44.07 34.88 44.2 32.99 44.02 32.99 43.96 33.82 44.03 34.98 44.12 35.04 44.26"/>
  <polygon class="cls-1" points="34.97 44.07 33.02 43.92 33.02 43.9 34.95 44.02 34.97 44.07"/>
  <path class="cls-1" d="m24.75,59.32l-.19.66-.23-.04c-.16-.05-.31-.1-.47-.16l-.28-.1c-.07-.07.12-.53.19-.68l.98.32Z"/>
  <path class="cls-1" d="m38.45,53.67c.12-.14.18-.28.18-.28,0,0,.39-2.08.44-2.39h-1.23c.2.1.35.3.35.55,0,.33-.25.59-.56.59h-.17c-.3,0-.56-.27-.56-.59,0-.25.14-.46.35-.55h-1.23c.05.31.44,2.39.44,2.39,0,0,.06.13.18.28l.02.36c0,.4.08.76.2,1.04l-.25-.1.11.99.75.22h.14l.75-.22.11-.99-.25.1c.12-.28.21-.64.21-1.04l.02-.36Zm-.18.35c0,.47-.11.88-.29,1.15l-.22.08-.22.6-.22-.6-.22-.08c-.18-.26-.29-.68-.29-1.15v-.19c.16.14.4.28.73.28s.57-.13.74-.28v.19Z"/>
  <polygon class="cls-1" points="59.9 22.47 58.5 25.18 58 24.91 59.12 22.76 59.1 22.76 57.52 24.67 57.1 24.44 57.73 22.05 56.6 24.19 56.11 23.93 57.51 21.24 58.31 21.66 57.71 23.76 57.73 23.76 59.09 22.06 59.9 22.47"/>
  <polygon class="cls-1" points="32.68 44.59 32.67 44.66 30.7 44.48 30.73 44.43 32.68 44.59"/>
  <path class="cls-1" d="m27.99,56.79s-2.08,2.21-2.21,2.35c-.29.33-.64.83-1.13.84l.2-.69,2.45-2.72h0c-.27-.46-.4-.79-.47-1.04l.12-.08.02-.18v-.18s.16-.23.16-.23h.12c-.04,1.25.74,1.93.74,1.93"/>
  <path class="cls-1" d="m29.04,56.94l-.7-.22c-.57-.45-.85-1.34-.71-2.38.19-1.47,1.28-2.69,2.35-2.61h.06c-.71.08-1.87.85-2.09,2.61-.15,1.21.32,2.26,1.09,2.6"/>
  <path class="cls-1" d="m37.86,51.55c0,.18-.14.33-.31.33s-.31-.14-.31-.33c0-.18.15-.33.31-.33.16.01.31.15.31.33"/>
  <polygon class="cls-1" points="28.49 44.25 28.46 44.29 28.96 44.33 28.99 44.29 28.49 44.25"/>
  <rect class="cls-1" x="36.54" y="69.28" width=".98" height=".12"/>
  <path class="cls-1" d="m38.51,69.24h-.9c0-.27.19-.47.43-.47h.04c.24,0,.43.2.43.47"/>
  <rect class="cls-1" x="37.57" y="69.28" width=".98" height=".12"/>
  <path class="cls-1" d="m56.47,56.31l-.99.23c.25-.41.37-.75.43-.99l.11-.04h.04s.21-.07.21-.07l.19-.1v.97Z"/>
  <path class="cls-1" d="m58.83,58.93l-.97.29-2.32-2.58.94-.22c.07.18.22.36.34.51.63.78,1.32,1.3,2.01,2"/>
  <path class="cls-1" d="m57.56,54.1l-.06.12-.04.02-.17.25-.17.2c-.07.12-.05.21.06.24.1.02.12.12.07.24l-.27.2c-.12.05-.21,0-.21-.11,0-.12-.08-.16-.23-.11l-.3.12-.21.07-.05.02-.13.04-.04-.1v-.05s.06-.16.06-.16c-.11-.13-.21-.27-.31-.41l-.18.02.02-.14c-.11-.02-.11-.04-.06-.16v-.04l-.08-.13-.07-.1c-.21-1.15-.95-2.15-1.81-2.49v-.03s-.24-.29-.24-.29h-.05s-.14,0-.14,0l.02-.13-.02-.16c-.07-.08-1.17-1.61-1.62-2.22l-.06-.03-.07-.05h-.11s0-.13,0-.13v-.11s-.02-.05-.02-.05l-.05-.06.02-.14c.02-.16.28-.4.51-.53.33-.19.45-.07.52-.12l.05.05.07.04.07.05h.11l-.04.13.04.1v.02c.18.22.36.42.52.63.41.51.82,1.01,1.22,1.52h0c.11-.04.15-.03.13.07.15-.04.18.03.08.16v.05l.24.3h.04s.1.08.1.08c.14-.02.18.02.1.16v.02c.13.19.27.36.4.54l.22.24.02.04c.41.49.81,1,1.21,1.5l.13.05.08.11.14.02-.07.16c.11.15.21.28.31.42h.17s.04-.01.04-.01l.09.06Z"/>
  <polygon class="cls-1" points="39.81 62.39 39.8 62.71 39.67 62.84 39.67 62.85 39.53 62.99 39.53 63.03 39.4 63.15 39.34 63.13 39.34 63.19 39.21 63.32 39.09 63.18 39.11 62.39 39.81 62.39"/>
  <path class="cls-1" d="m56.74,56.01h-.02v-.6s.05,0,.05,0l.25.1c.2-.04.3-.23.35-.33.06-.11.04-.25-.06-.29l.02-.08.04-.1.13-.17.07-.08.13-.21.04-.02.06-.12-.08-.06h-.05l-.04-.04c0-.16,0-.31,0-.48v-.05s-.41.13-.41.13l.06-.13-.16-.02-.05-.11.48-.17c-.08-.35-.23-.66-.4-.9l-.34.55c.11.14.2.31.24.52h0l-.13-.05c-.21-.24-.4-.49-.59-.74l.25.07.37-.62c-.25-.27-.54-.42-.81-.42l.15.93c-.12-.16-.25-.31-.37-.47l-.06-.4-.17.11h0l-.2-.24-.17-.22c.22-.18.47-.29.75-.31,1.01-.06,1.99,1.04,2.17,2.45.18,1.4-.49,2.53-1.48,2.57"/>
  <path class="cls-1" d="m57.98,55.72l-.66.21c.74-.33,1.18-1.33,1.03-2.49-.2-1.69-1.3-2.41-1.99-2.49h.06c1.01-.08,2.06,1.08,2.24,2.49.13.99-.14,1.84-.68,2.28"/>
  <path class="cls-1" d="m63.99,49.85v.13c-3.34-.21-6.69-.36-10.03-.48l-.21-.31c3.42.2,6.83.44,10.24.66"/>
  <path class="cls-1" d="m42.18,49.48l4.97,8.38h0s-.09.13-.09.13h-.14l-4.82-8.12.11,17.57c0,.11-.37.2-.54.2-.16,0-.54-.1-.54-.2l.12-17.63-1.76,2.97.16-.77,1.5-2.52-.08-.11.15-.12h.05l.19-20.37c0-.11.07-.19.23-.19.17,0,.23.08.23.19v.25l.12,11.88.07,7.73c2.99.02,5.99.13,8.98.29l.3.39c-3.05-.08-6.11-.13-9.16-.14l.05.1-.1.09Z"/>
  <path class="cls-1" d="m55.29,12.91c-.25.31-.72.51-1.05.47-1.21-.17-1.33-1.5-.72-2.04-.18.54.14.87.41.82.48-.1.45-1.39-1.01-1.88.04-.06.33-.43.1-1.42,3.25,1.73,2.73,3.46,2.27,4.05"/>
  <path class="cls-1" d="m60.64,31.68l-.24,1.41h-.35l.23-1.42c-.21-.23-.37-.48-.58-.71-.76-.78-1.97-1.16-3.05-1.11l-1.4.19c0-.08.54-3.03-3.27-3.47-2.41-.28-3.52,1.28-4.01,2.45l-.26-.02c.34-1.12,1.48-3.08,3.85-3.02,3.4.1,4.04,2.41,4.04,3.36l.72-.11c1.13-.08,2.22.16,3.1.91.4.35.75.77,1.06,1.22.05.08.17.22.16.32"/>
  <path class="cls-1" d="m59.08,59.69l-.27.1c-.16.06-.33.11-.48.16l-.23.04-.18-.67.97-.3c.07.14.26.6.19.67"/>
  <path class="cls-1" d="m58,59.99c-.48-.01-.85-.52-1.13-.85-.13-.15-2.21-2.35-2.21-2.35,0,0,.79-.69.74-1.91h.12s.17.22.17.22v.18s.01.18.01.18l.12.08c-.06.24-.2.58-.47,1.03h0s2.45,2.73,2.45,2.73l.19.69Z"/>
  <path class="cls-1" d="m50.04,7.61l-.05.04c-.51.33-.88.83-1.11,1.44-2.39-.49-5.17-.77-7.47-.77s-5.02.28-7.39.74c-.23-.59-.6-1.09-1.1-1.41l-.1-.06c2.6-.98,5.24-1.76,5.51-1.92.24-.14,2.79-1.83,3.08-1.83s2.84,1.69,3.08,1.83c.22.14,2.93.94,5.55,1.94"/>
  <path class="cls-1" d="m38.42,55.95v.06s.01-.04.03-.05h-.03Zm1.07,5.9l.54-.63c0-1.01,0-2.39,0-2.79,0-.64-.19-1.7-.19-1.7,0,0-.11-.33-.46-.44l-.22-.07c-.24.42-.8,1.31-1.33,1.93-.71.83-1.96,1.83-1.96,1.83v-.89s.62-.47,1.32-1.22c.52-.56,1.01-1.46,1.22-1.87l-.74.22-.13.04-.13-.04-.74-.22v-.06c-.24.08-.71.26-.96.35l-.12.05-.14-5.29h.02s.17-.26.08-.73c-.08-.45-.23-.59-.24-.76,0,.17-.12.33-.17.78-.05.47.14.71.14.71v.35l-3.1.07c.3.04.89.4,1.01.47.64-.08,2.09-.08,2.09-.08v.06c-.22-.02-1.65.04-2.09.05-.36.05-1.09.35-1.09.35.3.02,1,.3,1.09.35.51-.1,2.09-.13,2.09-.13v.05c-.29.01-1.75.06-2.09.08-.11.04-.99.3-.99.31l3.13-.03.1,3.49c-.13.13-.18.28-.18.28,0,0-.18,1.06-.19,1.7,0,.4,0,1.77,0,2.79l.54.63.36-.63.14.11-.47.82-.58-.65v.83h.97l.49,6.34,1-.03v-4.8h.05v4.8h1l.49-6.31h.97v-.83l-.57.65-.48-.82.14-.11.38.64Zm-.44-.98s-.95.18-1.62.18-1.62-.12-1.62-.12v-.4s1.07.21,1.86.13c.77-.06,1.38-.23,1.38-.23,0,0,0,.44,0,.44Z"/>
  <path class="cls-1" d="m17.76,49.97s-1.18-1.29-3.07-1.77c5.69-10.78.48-16.78.47-16.79,3.6,1.14,3.67,6.68,3.67,6.68.25-3.1-1.38-8.17-4.77-7.09-1.04.33-.97,1.68-.1,1.56-3.03.99-3.08-2.85-.63-3.83,1.62-.63,2.98-.24,3.66.07-1.34-.89-3.39-.72-4.65.17-1.21.86-2.78,3.78,2.12,5.78-2.76,1.46-6.98-1.38-5.61-6.53.36-1.38,1.52-2.85,2.74-3.25,2.9-.95,6.37.8,8.23,4.39,4.15,7.96-2.06,20.61-2.06,20.61"/>
  <path class="cls-1" d="m68.46,34.75c4.9-2,3.33-4.93,2.14-5.78-1.27-.89-3.32-1.06-4.65-.18.68-.3,2.04-.69,3.65-.06,2.46.98,2.4,4.82-.63,3.83.87.12.94-1.23-.1-1.56-3.39-1.09-5.02,3.98-4.77,7.09,0,0,.07-5.54,3.67-6.68-.01,0-5.22,6.01.47,16.79-1.88.48-3.07,1.77-3.07,1.77,0,0-6.21-12.65-2.07-20.6,1.86-3.6,5.34-5.35,8.23-4.39,1.22.4,2.38,1.87,2.74,3.25,1.37,5.14-2.85,7.98-5.61,6.52"/>
  <path class="cls-1" d="m27.11,56.64l-2.32,2.58-.97-.29c.69-.7,1.38-1.22,2-2,.13-.14.27-.33.34-.51l.95.22Z"/>
  <path class="cls-1" d="m27.35,51.3l-.17.22-.21.24-.18-.11-.06.4c-.12.16-.25.31-.37.47l.14-.93c-.27,0-.56.16-.81.42l.37.62.27-.07c-.2.24-.4.49-.59.74l-.13.05h-.02c.05-.21.13-.37.24-.52l-.34-.56c-.17.24-.31.56-.4.9l.48.17-.05.11-.16.03.06.13-.4-.13v.05c-.02.17-.02.33-.02.48l-.04.04h-.04l-.1.06.07.12.02.02.13.21.07.08.13.17.04.1.02.08c-.1.04-.12.18-.06.29.05.1.15.29.35.33l.25-.1h.01s.05,0,.05,0h.01v.6h-.02c-1-.04-1.68-1.17-1.5-2.57.18-1.41,1.16-2.51,2.17-2.45.34.02.59.13.79.31"/>
  <path class="cls-1" d="m31.57,48.5v.11s.01.12.01.12h-.12s-.06.06-.06.06l-.07.02c-.45.62-1.55,2.14-1.62,2.22v.16s0,.13,0,.13h-.14s-.06,0-.06,0l-.23.31h0c-.87.36-1.62,1.36-1.82,2.51l-.07.1-.08.13v.04c.06.12.05.13-.06.16l.02.14-.18-.02c-.11.14-.21.28-.31.41l.06.16v.05l-.04.1-.13-.04-.04-.02-.22-.07-.3-.12c-.14-.05-.22-.01-.22.11-.01.1-.1.16-.23.13l-.27-.21c-.05-.12-.02-.22.08-.24.1-.04.12-.12.05-.24l-.17-.21-.17-.25-.04-.03-.06-.12.08-.06h.04s.17.01.17.01c.11-.14.2-.28.31-.42l-.07-.16.16-.02.08-.11.13-.05c.4-.49.81-1,1.21-1.5l.04-.04.2-.24c.13-.18.27-.35.4-.53v-.04c-.08-.13-.04-.18.1-.16l.1-.07h.04s.24-.31.24-.31v-.05c-.1-.13-.06-.19.08-.16l.13-.06h0c.41-.52.81-1.02,1.22-1.53l.51-.62v-.02s.05-.11.05-.11l-.04-.13h.11l.07-.05.08-.04.04-.05c.07.05.19-.07.52.12.23.13.48.37.51.53l.02.14-.05.06v.07Z"/>
  <path class="cls-1" d="m25.35,55.92l-.68-.2c-.54-.43-.8-1.29-.68-2.28.18-1.41,1.23-2.57,2.25-2.5h.06c-.68.08-1.78.81-1.99,2.5-.15,1.16.3,2.16,1.04,2.48"/>
  <path class="cls-1" d="m34.45,46.89s-.24.15-.64.12c-.39-.02-.65-.18-1-.11,0,0,.19-.1.63,0,.43.1.75.08,1.01-.01"/>
  <path class="cls-1" d="m32.9,46.97c-.11.04-.39.12-.8.1-.53-.04-.89-.21-1.34-.15,0,0,.24-.08.82.03.56.1.97.09,1.32.02"/>
  <path class="cls-1" d="m33.05,46.79s-.39.17-1.04.13c-.66-.04-1.1-.25-1.67-.17,0,0,.31-.12,1.03.02.73.14,1.25.12,1.68.02"/>
  <path class="cls-1" d="m27.17,56.54l-.98-.23v-.97l.05.02.16.07.19.06h.04s.11.05.11.05c.06.25.19.59.43,1"/>
  <path class="cls-1" d="m38.3,45.34l.4-.08.08-.11-2.56-.19-.57-.04-.31-.02.53-.49v.52s.28.03.28.03h.07s.11-.58.11-.58l.52-.33.21-.74,2.91-2.7-.02-.04-3.57,3.32h-.17s-.14-.11-.14-.11c-.11.02-.12.1-.12.1l-.2.21s.02.05.2.04l.02.06-.36.22-.21.4-.11.1h-.25s-2.24-.2-2.24-.2v.17s-.05,0-.05,0v.05s.07,0,.07,0l-.05.13h-.07v.05h.07s2.17.09,2.17.09l-.05.04-2.12-.08-2.38-.23.02-.02,2.23.22v-.09s-2.17-.21-2.17-.21v-.04s2.26.23,2.26.23v-.07s-2.08-.19-2.08-.19l1.99.17v-.05h.02v-.06s-2.08-.17-2.08-.17l.02-.04,1.9.17.22.03v-.08h-.06v-.04s-1.99-.16-1.99-.16v-.04s-.03,0-.03,0v.04s-.12,0-.12,0l-.74-.07.02-.02h-.04.01s-.78-.08-.78-.08h0s-.04,0-.04,0h0s-.49-.04-.49-.04h0s-.04,0-.04,0h0s-.17,0-.17,0h0s-.04-.02-.04-.02h0s-.37-.03-.37-.03h-.04s0,0,0,0l-.44-.05h-.02v.06h.02v.02l.39.04-.41-.02v.02l.39.04-.02.05-.34-.02v.04l.31.02v.02s-.41-.04-.41-.04h0s-.02,0-.02,0v.04l.39.04v.04s-.38-.04-.38-.04v.08l.31.04v.03s-.61-.07-.61-.07l-.07-.08v-.02s.07.07.07.07l.25.02v-.2s.01,0,.01,0h0s.11,0,.11,0v-.02h-.02v-.13s0,0,0,0h0s-.16,0-.16,0l-.11.04,1.06-1.63h.02s.02-.05.02-.05v-.04s.17-.24.17-.24l.07.29h-.02l-.05.44h0v.17s0,.07,0,.07h0s-.25,0-.25,0v.04h.27v.04h-.31s0,.03,0,.03h.31s-.44,0-.44,0v.04s.41,0,.41,0h0s-.51,0-.51,0v.07h.47s0,.02,0,.02h-.46s0,.03,0,.03h-.21s.01.02.01.02l.6.04h0s-.47-.01-.47-.01v.02h-.18s0,.03,0,.03l.62.04h0s-.65-.03-.65-.03v.02s.63.05.63.05v.02s-.61-.04-.61-.04v.04h-.05v.02l.6.05-.02.05-.57-.04v.02l.54.05-.02.04-.56-.05v.06s.52.05.52.05l-.02.04-.52-.04v.04l.49.04h0s-.51-.03-.51-.03v.04l.49.04h0s-.51-.03-.51-.03v.04l.48.04v.02s.03,0,.03,0v-.02s.4.04.4.04h0s.04.02.04.02v-.02s.18,0,.18,0v.03s.03,0,.03,0h0s.49.03.49.03h0s.04.02.04.02v-.02s.82.07.82.07h0s.04,0,.04,0h0s.83.06.83.06h0s.04,0,.04,0h0s1.92.15,1.92.15v-.05h.02v-.05s.11,0,.11,0v.04s2.32.23,2.32.23v-.1l-2.28-.17v-.11h-.11s0-.05,0-.05l-1.07-.07-.78-.07h0s1.86.12,1.86.12v-.06s-1.82-.13-1.82-.13l.02-.02,1.8.12v-.06s-1.79-.13-1.79-.13v-.02s1.79.13,1.79.13v-.06s-1.74-.12-1.74-.12h0s1.87.11,1.87.11v-.07s-.09,0-.09,0l-1.71-.12.02-.04,1.73.11v-.07s-1.69-.08-1.69-.08h0s1.69.09,1.69.09h.03v-.06s-.5-.04-.5-.04l.62.02h0s1.91.16,1.91.16l-.08-.15-1.73-.12h0s1.71.1,1.71.1l-.04-.05-.94-.05.93.04-.04-.06-1.19-.06-.41-.02v.02l.65.05-.51-.02v.02h-.17v-.03l-1.03-.04,1.01.02v-.05s.12,0,.12,0v-.07s-.42,0-.42,0h.46v-.05s.11,0,.11,0v-.07s-.38,0-.38,0h0s.52,0,.52,0v-.07s-.52-.01-.52-.01v-.04h.95v-.07h-.33s-.08-.01-.08-.01l-.07-.33v-.04l-.07-.18.05-.02-.33-.46h0v-.02s-.11-.45-.11-.45l.28-.44.02-.48.02-.04v-.02s1.03-1.51,1.03-1.51l-.04-.02-1.04,1.52v.02s-.44.64-.44.64h-.06s-.13-.01-.13-.01l-.06.1-.1.21s.02.04.16-.02l-.37.54-.04-.28.3-.41.06-.48.02-.04h0s1.13-1.45,1.13-1.45l-.03-.03-1.15,1.44-.02.02-.53.66h-.05s-.07-.02-.07-.02l-.05.06-.08.13h.12l-.47.59h0s-.02.03-.02.03l-.14.18-.1-.16h0s0-.01,0-.01l-.06-.45.29-.39.06-.45,1.05-1.39h-.02s-1.01,1.32-1.01,1.32v-.03s-.05.05-.05.05v.02s0,0,0,0v.02l-.37.5-.15.04-.1-.05.11-.14.06-.46.02-.04v-.02s1-1.35,1-1.35h-.02s-1,1.33-1,1.33h0l-.02.04h0s-.41.55-.41.55l-.11.04-.12-.04-.06.08-.04.03h0s.02-.06.02-.06l.04-.3.87-1.3-.02-.02-.83,1.27v-.08s.02-.04.02-.04l-.02-.04-.02.04v.04l-.06.22-.15.22h-.02s-.02.06-.02.06l-.04.04s-.02-.06-.22,0l-.06-.05.03-.04.05-.34.98-1.58h-.02s-.95,1.51-.95,1.51v-.04s-.03,0-.03,0l-.05.14-.23.37s-.02-.07-.22,0l-.11-.02-.06.08-.11.17s.02.04.17,0l.07.05h0s0,0,0,0l-.08.16-.02-.04h-.17l-.04-.16h-.02s.05-.08.05-.08l.1-.4v-.04s-.01-.04-.01-.04h0l.92-1.38-.02-.02-1.24,1.89h-.16s-.11-.03-.11-.03l-.06.07-.11.16s.02.04.16,0h0s.04.08.04.08l-.17.17-.05.21-.02.05h-.05s0,.07,0,.07h0l-1.09,1.63-.23.07.11.12v.02s-.07-.07-.07-.07l-.07-.04.1.16-1.67,2.54h.02s1.65-2.5,1.65-2.5l.11.18s.22.07.47.14l-1.54,2.47h.02s1.54-2.48,1.54-2.48c.11.04.23.06.33.08l-1.1,1.68-.53.72h.02s.23-.3.23-.3l-.45.69h.02s.71-1.08.71-1.08l1.26-1.68h.02c.06,0,.22.02.45.06l-1.82,2.4.02.03,1.83-2.43c.21.02.46.06.75.1l-.93,1.16c-.16-.04-.28-.05-.35-.02.12,0,.22.04.33.06l-.81,1.01h.02s.82-1,.82-1l.27.06c.23.02.4-.05.47-.07-.19.05-.42.06-.71-.02l.93-1.17c.28.04.59.06.92.1l-.88,1.27c-.24-.02-.36.02-.36.02.12-.01.23-.01.35.01l-.64.92.02.02.64-.93c.19.04.37.11.62.13.3.03.52-.05.6-.08-.27.07-.57.07-.98-.04l-.22-.05.88-1.28c1.17.12,2.61.25,3.81.27.21,0,.41,0,.6,0l-.58.53.04.02.6-.56c2.03.04,3.39.07,3.39.07l.57-.17.18-.24h-.03l-.07.08-.4.1-3.34-.14.04-.04,3.3.2Zm-1.8-1.35s.02-.06-.08-.1l.62-.57-.29.64-.43.21-.04-.07.22-.11Zm-.83.47l.12-.05-.29.28.17-.23Zm-7.29-1.02h.37v.02h-.37v-.02Zm1.65.65l-.82-.05.04-.05.81.06-.03.04Zm.83.11v.02s-.82-.08-.82-.08l.82.06Zm-2.48-.12l.02-.02h.18s0,.03,0,.03h-.19Zm.17.05h0s-.19,0-.19,0h0s.19,0,.19,0Zm.31-.37l.02-.02.51.02-.02.02-.51-.02Zm.41.16l-.04.04-.49-.04.03-.04.5.04Zm-.36-.22h0s.51,0,.51,0v.02s-.52-.02-.52-.02Zm.01-.08h-.23s0-.02,0-.02h.23v.02Zm-.07.11h-.02s-.22,0-.22,0v-.02s.24.02.24.02Zm-.05.05h0s-.23,0-.23,0h0s.22,0,.22,0Zm-.07.1l-.02.05-.21-.02.02-.04h.21Zm-.06.08l-.04.04h-.19s.04-.06.04-.06l.19.02Zm-.1.17l.51.04v.02s-.5-.04-.5-.04v-.02h0Zm.04-.04h0s.48.04.48.04l-.49-.04Zm.06-.08l.04-.05.51.04-.04.04-.51-.03Zm.6-.05l.04-.04.81.06-.02.02-.83-.04Zm.14-.17l.02-.04.83.06-.02.02-.83-.04Zm.04-.07v-.02s.24,0,.24,0l.62.04v.02s-.86-.05-.86-.05Zm.02-.07l-.51-.02v-.02s.53.02.53.02l-.02.02Zm-.74-.09h0s.17,0,.17,0h.06s-.23,0-.23,0Zm.05-.05h-.02s.02,0,.02,0h0Zm-.4-.02h.35s0,.02,0,.02h-.34v-.02Zm0,.05h.31s-.31,0-.31,0h0Zm-.02.04h.31s0,.03,0,.03l-.33-.02h.03Zm-.05-.09h0s-.02,0-.02,0h.01Zm-.04.04h0,0s0,0,0,0Zm-.09.15l.41.02v.02s-.42-.02-.42-.02v-.02Zm-.03.05l.4.04h0s-.41-.01-.41-.01v-.03Zm-.06.1l.4.04-.02.04-.41-.02.03-.06Zm-.05.08l.4.02-.04.05h-.14s-.25-.03-.25-.03l.03-.04Zm-.07.1l.4.04-.02.04-.4-.02.02-.06Zm.31.17l-.4-.02v-.02s.41.04.41.04h0Zm-.36-.09h0s.39.03.39.03h0s-.39-.03-.39-.03Zm.58.1h-.18v-.02h.18v.02Zm.53.05l-.49-.04h0s.49.03.49.03h0Zm.04,0h0s.81.06.81.06l-.81-.06Zm.84.01l-.81-.06h0s.81.05.81.05h0Zm.87.06l-.83-.06h0s.83.05.83.05h0Zm.36,0l.81.08-1.13-.08v-.03s.32.03.32.03Zm-.25-.17l-.82-.05.04-.04.81.06-.03.03Zm.06-.08l-.81-.05.02-.04.8.06v.03Zm.05-.07l-.77-.06.78.05h0Zm.07-.1l-.8-.06.02-.02.8.05-.02.03Zm.06-.1l-.8-.04v-.02s.79.05.79.05h0s.01.01.01.01Zm1.44-.29h-.48s.48,0,.48,0h0Zm-.16-.07h-.33s.33,0,.33,0Zm-.32-.12v-.04h.43v.04s-.43,0-.43,0Zm.76.07h-.22s.23,0,.23,0h0Zm-.23-.07v-.04h.28v.04s-.28,0-.28,0Zm.38-.87l.22.26h.04s.1.18.1.18l.1.31h0s-.49,0-.49,0v-.23s0-.21,0-.21h0l.02-.32Zm-.14-.92l.12-.13s.02-.08-.12-.05l.39-.57h0l-.11.45-.29.41v-.07s0-.04,0-.04Zm-.21.13l.05.06-.2.16.15-.22Zm-.38.59l.27-.33.12-.08.16.42h0v.53h.03v.19s.02.04.02.04l.04.21h-.29l-.02-.11.06-.02-.11-.21v-.07s-.03,0-.03,0l-.21-.41h0v-.02s-.02-.07-.02-.07v-.06Zm.19.94l.04-.02v.07s-.39,0-.39,0l.06-.58.29.53Zm.07-2.17h0l-.13.43-.31.37v.02s0-.08,0-.08l-.02-.05.07-.05-.08-.04.47-.6Zm.58,2.74l1.55.11-1.61-.08v.04s-.01,0-.01,0v-.04s0,0,0,0l-1.82-.06.02-.02,1.86.06Zm-1.74-.35v.02h-.24l-.05-.02h.29Zm-.39-.08v-.04s.36,0,.36,0v.04s-.36,0-.36,0Zm1.01-.04v.03h-.49l.02-.02h.47Zm-.44-.05l.42-.6-.04.6h-.38Zm.45.19h0s-.56,0-.56,0h0s.56,0,.56,0Zm-.54-.11h-.02v-.02h.05l-.03.02Zm.47.28h0s-.59-.01-.59-.01h.6Zm-.05-1.76l.05.07-.22.13.17-.2Zm-.51.62h.06s.02-.06.02-.06l.28-.3.13-.07.13.42h-.02v.12l-.46.66h-.1v-.07s0-.04,0-.04l-.05-.18h.05s-.18-.3-.18-.3l.15-.18Zm-.16.54h.04s.07.18.07.18v.06s-.35,0-.35,0l-.02-.1.02-.11h0v-.08l.11-.13.12.17Zm-.14-.2l-.08.1v-.1s.02-.08.02-.08l.06.08Zm-.14-.93v-.05s.14-.12.14-.12l-.05-.05.31-.41-.1.31-.31.37v-.05h0Zm.29,1.81l-.02.02h-.45s-.34-.02-.34-.02v-.02s.31,0,.31,0l.02.02.1-.02h.38Zm-.4-.65h0s0,.07,0,.07l-.11.15h-.25l.08-.22.06-.31.12.17h.04s.05.12.05.12v.03h0Zm.01.22h-.08l.07-.1v.1Zm-.12.05h.12v.04s-.15,0-.15,0l.03-.04Zm.13.09v.04h-.23s.02-.05.02-.05h.21Zm0-.87v.13l-.19-.31h0s0-.01,0-.01v-.13s.03-.05.03-.05l.07-.04.12.41s-.02,0-.02,0Zm-.07-.56l-.08.11-.07.05-.02-.17.14-.04v.02s.03.03.03.03Zm-.32-.2v-.05s.14-.12.14-.12l-.07-.05.36-.48-.12.39-.31.37v-.06Zm0,1.54h.23l-.02.04h-.21v-.04Zm0,.08h.16l-.02.04h-.13v-.04h0Zm-.06.17h.07s-.08,0-.08,0h.01Zm-.12-.33v.02s0,0,0,0v-.02Zm.02.08v.04-.04s0,0,0,0Zm.1.36l-.02.02-.63-.02h-.22v-.04s.87.04.87.04Zm-.82-.08h0s0,0,0,0h0Zm-.06-.74l-.24.33v-.07l.02-.19h0l.04-.23v-.06s.17.22.17.22Zm-.09-.64l.05-.05.12-.07.02.08-.13.22-.02-.03h0l-.03-.15Zm.13.65h0l.07.17.06.24h-.42v-.04l.28-.37Zm.11-.14l.02-.04v.06l-.02-.02Zm.03.59h0s-.43,0-.43,0h0s.42,0,.42,0Zm0,.08v.02h-.41v-.02s.41,0,.41,0Zm-.07.15h.04s-.04,0-.04,0h0Zm.62-.11h-.44v-.02h.12s.31,0,.31,0v.03h0Zm-.13-1.96l-.02.08-.02.02h0l.05-.1Zm-.08.79l.1.11.04.28v.1s-.18-.31-.18-.31h0v-.08s-.01-.03-.01-.03v-.04s.02,0,.02,0l.04-.02Zm.17,1h-.37s.25-.33.25-.33h0l.07.18.04.15Zm-.19-1.4l-.07.12-.02.05v-.05l.09-.12Zm-.21-.04l.12-.12-.12.21v-.05s0-.04,0-.04Zm0,1.37l.04-.19h0l.02-.24v-.07s.18.25.18.25l-.25.32v-.07Zm0,.12h.42v.04s-.4-.02-.4-.02h-.02v-.02Zm-.06.19h-.07s.07,0,.07,0h0Zm0-1.01h0l-.02.14-.04.05-.16-.27.13-.21.1.29Zm-.06-.51l-.24.16-.02-.17.04-.04s.05,0,.16-.02h.02s.04.07.04.07Zm-.04-.56l-.05.13-.18.23.23-.36Zm-.34.43v-.04s.12-.1.12-.1l-.15.22.03-.08Zm-.02,1.63h.36v.02h-.37s0-.02,0-.02Zm-.06-.34v.13s-.05,0-.05,0l.05-.13Zm.02.25h0s0,.02,0,.02h-.06v-.02s.07,0,.07,0Zm-.09-.05h.02s-.02,0-.02,0h0Zm.45.2h0s-.52-.02-.52-.02l.52.02Zm-.03.05h0s-.52-.01-.52-.01h.52Zm-.68-.11h0s.14,0,.14,0h-.13Zm.12-.06h-.13v-.02h.13v.02Zm-.11-.07h0s.1,0,.1,0h0s-.11,0-.11,0Zm.11-.08h-.06l.04-.05.02.05Zm-.12-.65l.03.17.02.28.04.13-.06.07h-.05s0-.11,0-.11l-.02-.16h.04s-.1-.2-.1-.2l.1-.18Zm-.26-.46l.13-.16v.06l.04.07-.06.1-.05.24v.13l-.02-.05h0s0-.01,0-.01l-.03-.38Zm.03.82l.04.06h.02s.06.16.06.16v.08s-.3,0-.3,0l.18-.3Zm.22-.42v.02l-.12.17v-.05l-.02-.06.02-.12.05-.05.07.09Zm-.35-.52l.05-.06.08-.07v-.04s.3-.47.3-.47v.02l-.13.36-.3.31s0-.05,0-.05Zm-.1,1.21l.05-.18.06-.28.11.17-.21.33h0s0-.04,0-.04Zm.01.08h.37v.02h-.37v-.02Zm.37.06v.02h-.39s0-.02,0-.02c0,0,.38,0,.38,0Zm1.67,1.43l-.87-.08.02-.02.86.08v.02Zm-2.33-.32v-.02s.17,0,.17,0l-.02.03-.15-.02Zm.11.07l-.02.02h-.15s.02-.05.02-.05l.15.03Zm.04,0l.48.05-.02.04-.48-.05.02-.04Zm.04-.06l.02-.03.48.05h0s-.49-.02-.49-.02Zm.48.11l.78.08-.02.02-.78-.07.02-.03Zm.05-.06v-.02s.81.07.81.07h0s-.8-.05-.8-.05Zm.83.06h0s.86.07.86.07l-.87-.07Zm.07-.08l.86.07-.02.02-.86-.06.02-.03Zm-.83-.09l.8.07-.04.04-.78-.06.02-.05Zm-.04,0l-.02.05-.5-.05.04-.04.48.04Zm-.52-.04l-.04.05h-.16s.02-.06.02-.06h.18Zm-.55-.09l.39.04-.39-.03h0Zm-.02.04l.39.04-.04.05-.37-.04.02-.05Zm-.05.08l.37.04v.02s-.4-.04-.4-.04l.03-.02Zm-.05.07l.37.04-.02.04-.37-.04.02-.04Zm-.73,1.77l.84-1.28h.1s-.94,1.28-.94,1.28Zm1.01-1.59l-.36-.04v-.03s.38.04.38.04l-.02.03Zm.16.03h-.13s0-.05,0-.05h.14s-.02.05-.02.05Zm.52.05l-.28-.02-.21-.02.02-.02.48.05h-.01Zm.81.08l-.77-.07.02-.04.77.07-.02.04Zm.92.09l-.88-.08.02-.02.88.08-.02.02Z"/>
  <path class="cls-1" d="m52.07,19.61c-.04-.14-.11-.28-.22-.39s-.28-.19-.51-.25c-.22-.06-.4-.07-.56-.04-.15.05-.28.12-.39.24-.1.11-.18.27-.27.45-.06.18-.12.39-.18.6-.07.23-.11.43-.13.63-.04.19-.02.37,0,.52.04.14.11.28.23.39.11.11.28.19.49.25.23.05.41.06.55.02.16-.04.28-.11.39-.23.11-.11.19-.25.27-.43.07-.19.13-.4.19-.61.06-.23.11-.44.13-.63.04-.19.04-.36.01-.52m-.6.48c-.02.14-.07.31-.12.51-.05.19-.1.37-.14.51-.05.12-.1.23-.15.31l-.18.16h-.22s-.2-.11-.2-.11l-.06-.22c0-.11,0-.22.02-.35.02-.14.06-.31.12-.52.05-.19.1-.36.14-.49s.08-.24.14-.33l.17-.15h.23s.19.1.19.1l.07.23c.03.1.02.22,0,.35"/>
  <path class="cls-1" d="m35.78,46.71c-.07.02-.24.08-.47.06-.27-.04-.45-.13-.66-.13.07-.01.21-.01.37.04.31.08.56.08.76.03"/>
  <polygon class="cls-1" points="29.02 44.29 28.99 44.33 29.79 44.4 29.82 44.36 29.02 44.29"/>
  <path class="cls-1" d="m48.82,18.65c-.12-.15-.3-.25-.56-.29l-1.12-.19-.49,3.01.59.1.23-1.27.31.06c.13,0,.22.06.25.14.04.07.05.17.04.29l-.07.58v.16s.03.16.03.16l.64.12v-.02s-.07-.19-.07-.19c0-.08.02-.2.04-.37l.02-.22.02-.18c0-.17,0-.3-.06-.4-.06-.08-.16-.14-.31-.19h0c.17-.02.31-.08.42-.19.1-.11.17-.27.21-.47.04-.28,0-.49-.12-.64m-.68.93c-.1.05-.22.07-.36.05l-.25-.05.14-.86.29.05c.28.05.4.21.35.48-.04.17-.08.27-.17.33"/>
  <polygon class="cls-1" points="50.03 18.71 49.39 21.68 48.79 21.54 49.42 18.57 50.03 18.71"/>
  <polygon class="cls-1" points="46.92 18.14 46.86 18.63 46.21 18.57 45.93 21.08 45.33 21.01 45.61 18.5 44.94 18.43 45 17.92 46.92 18.14"/>
  <path class="cls-1" d="m42.96,18.39l-.13-.28-.25-.21c-.11-.06-.24-.1-.4-.1h-1.06s-.04,3.03-.04,3.03h.62v-1.21s.34,0,.34,0c.15,0,.28-.02.4-.06.12-.04.22-.1.3-.17.08-.06.15-.16.19-.27.05-.12.07-.27.07-.42,0-.09,0-.2-.04-.32m-.68.69c-.07.07-.17.11-.3.11h-.27v-.93h.26c.16,0,.27.05.33.13.06.07.1.19.1.34,0,.17-.05.28-.12.35"/>
  <path class="cls-1" d="m47.51,27.7s-.2.66-.22,1.28c-.12,0-.25-.02-.37-.04-.06-.54.07-1.01.07-1.01,0,0-.71-1-2-.93-.63.04-1.19.34-1.62.65.08-.21.13-.43.16-.65.64-.35,1.24-.54,1.82-.49,1.52.13,2.16,1.19,2.16,1.19"/>
  <path class="cls-1" d="m44.44,17.91l-.76-.06-.98,2.98.64.05.17-.64.82.05.1.65.64.04-.63-3.07Zm-.79,1.85l.36-1.36h0l.22,1.39-.59-.03Z"/>
  <path class="cls-1" d="m47.06,10.91c-3.68-.31-5.66,2.61-5.66,2.61,0,0-1.97-2.92-5.66-2.61.33-.25.71-.41,1.09-.56.62-.23,1.26-.37,1.91-.46.88-.12,1.79-.18,2.67-.17,1.27-.03,2.62.07,3.85.4.47.12.94.29,1.38.52.12.06.23.12.33.19l.09.08Z"/>
  <path class="cls-1" d="m60.46,33.99c-3.15-2.21-6.34-2.34-9.42-2.49-3.14-.13-6.11-.27-9.14-2.37,0,0-.02,0-.04-.02l-.35-.25.16,11.92.1.07c.08.06.17.12.25.17,3.05,2.04,6,2.1,9.01,2.23,3.15.14,6.12.27,9.16,2.4l.36.24v-11.84l-.09-.06Zm-.35,11.06c-3.04-1.98-6.1-2.11-9.07-2.25-3.12-.13-5.9-.19-8.92-2.26l-.16-10.82c3.04,1.98,6.1,2.11,9.05,2.25,3.13.13,6.07.27,9.09,2.33v10.75h0Z"/>
  <path class="cls-1" d="m56.52,35.94c-1.84-.9-3.69-.98-5.48-1.05-1.82-.06-3.55-.13-5.3-.99l-.33-.16.16,5.08.12.06c1.85.91,3.54.91,5.34.97,1.82.07,3.55.15,5.3,1l.33.16v-5.01l-.14-.06Zm-.31,4.36c-1.74-.76-3.48-.82-5.17-.89-1.79-.06-3.31-.06-5.02-.86l-.16-4.09c1.74.76,3.48.82,5.17.88,1.77.07,3.46.13,5.18.94,0,0,0,4.02,0,4.02Z"/>
  <path class="cls-1" d="m50.49,37.61c-.1.19-.19.37-.29.53.2,0,.4-.09.61-.2.07.2.15.41.22.61.07-.22.15-.44.22-.65.2.08.4.19.6.38-.1-.24-.19-.47-.29-.68.21-.05.42-.04.63.09-.21-.28-.42-.44-.63-.54.1-.19.19-.37.29-.52-.2,0-.4.09-.6.2-.07-.2-.15-.41-.22-.61-.08.22-.15.44-.22.65-.2-.08-.4-.19-.61-.37.1.24.19.47.29.68-.21.05-.42.04-.63-.09.21.26.42.42.63.52"/>
  <path class="cls-1" d="m58.51,34.93c-2.51-1.54-5.03-1.64-7.47-1.74-2.5-.08-4.85-.18-7.25-1.67l-.34-.22.16,8.52.11.06c2.5,1.56,4.87,1.58,7.32,1.67,2.49.1,4.84.19,7.24,1.68l.35.21v-8.44l-.12-.07Zm-.34,7.71c-2.4-1.35-4.8-1.45-7.13-1.53-2.46-.1-4.62-.11-6.99-1.53l-.16-7.47c2.39,1.36,4.8,1.45,7.13,1.55,2.45.08,4.77.18,7.15,1.61v7.37Z"/>
  <polygon class="cls-1" points="42.15 26.95 41.82 28.48 41.74 28.48 41.77 27.78 41.67 25.37 41.59 27.78 41.61 28.48 41.54 28.48 41.19 26.95 41.67 24.75 42.15 26.95"/>
  <path class="cls-1" d="m52.52,46.62c-.06.01-.12.01-.21,0-.22-.05-.34-.16-.54-.16,0,0,.11-.04.34.06.16.06.29.1.41.1"/>
  <path class="cls-1" d="m51.68,46.63s-.18.1-.48.05c-.29-.05-.47-.19-.72-.16,0,0,.15-.06.46.05.3.11.53.11.74.06"/>
  <polygon class="cls-1" points="52.74 45.24 52.74 45.3 51.45 45.17 51.45 45.14 51.47 45.14 51.47 45.13 51.46 45.13 51.45 45.1 51.46 45.1 52.74 45.24"/>
  <polygon class="cls-1" points="52.33 44.6 51.88 44.58 51.88 44.56 52.26 44.56 52.33 44.6"/>
  <polygon class="cls-1" points="52.38 44.64 51.86 44.62 51.85 44.6 52.34 44.61 52.38 44.64"/>
  <polygon class="cls-1" points="52.43 44.68 51.79 44.65 51.79 44.64 51.81 44.64 51.81 44.63 51.86 44.63 52.4 44.65 52.43 44.68"/>
  <polygon class="cls-1" points="52.5 44.75 51.73 44.7 51.73 44.68 52.48 44.72 52.5 44.75"/>
  <polygon class="cls-1" points="52.48 44.71 51.73 44.67 51.72 44.66 52.43 44.68 52.45 44.68 52.48 44.71"/>
  <polygon class="cls-1" points="52.75 45.32 52.75 45.35 51.47 45.22 51.47 45.19 52.75 45.32"/>
  <path class="cls-1" d="m50.63,43.95l-.04.04v.02s0,0,0,0h.04v-.04s.05-.04.05-.04h-.04Zm4.22,1.82l-.24.05-1.96-.12.02-.02,1.93.12.24-.05.05-.06-1.5-.14.07-.35.3-.18.13-.42.45-.4h-.02l-.83.72h-.1s-.08-.07-.08-.07l-.07.06-.12.12h.11s.02.06.02.06l-.22.12-.13.23-.06.06h-.14s-1.32-.16-1.32-.16v.1h-.04v.02s.05,0,.05,0l-.04.1h-.04s0,.03,0,.03h.04s1.28.08,1.28.08l-.02.02-1.26-.07-1.39-.17h0s1.3.15,1.3.15v-.06l-1.27-.16h0s1.32.15,1.32.15v-.04h-.05v-.05h0v-.04s-1.22-.12-1.22-.12v-.03s1.12.12,1.12.12l.11.02h.02v-.05h-.04v-.03s-1.17-.12-1.17-.12h0s1.16.11,1.16.11v-.04s-1.12-.12-1.12-.12l1.12.11v-.02h0v-.04s.06,0,.06,0v.03s1.36.16,1.36.16v-.05l-1.34-.13v-.04h-.06v-.02l-.63-.06-.45-.06,1.09.1v-.04s-1.06-.1-1.06-.1v-.02s1.07.11,1.07.11v-.04s-1.04-.1-1.04-.1h0s1.04.09,1.04.09v-.04s-1.02-.1-1.02-.1l1.1.08v-.04h-.05s-1.01-.09-1.01-.09l.02-.02,1.01.08v-.04h.03v-.05h.07s1.11.12,1.11.12l-.05-.08-1.01-.1h0s1,.07,1,.07l-.02-.02-.56-.04.54.03-.02-.03-.93-.07h0s.07.02.07.02v.02h-.1s0-.03,0-.03h0v-.02h.07v-.04h-.25v-.02h.28s0-.01,0-.01h.06v-.04s-.22,0-.22,0h0s.3,0,.3,0v-.04s-.32,0-.32,0h0s.4,0,.4,0h.17s0-.04,0-.04h-.24s-.04-.2-.04-.2v-.02l-.04-.11h.02l-.11-.16h-.25s0,.23,0,.23h0v.14s.02.12.02.12h-.17v-.07s.03,0,.03,0l-.06-.12v-.04s-.02,0-.02,0l-.11-.25h0s-.18-.02-.18-.02l.02.06h0v.07s-.29.39-.29.39h-.05v-.05s0-.02,0-.02l-.02-.11h.02l-.1-.17.08-.11-.1.08-.05-.1h0s0-.07,0-.07h-.18s.02.11.02.11v.08s-.11-.18-.11-.18h0v-.04c-.11,0-.23,0-.34-.02l.02.05.02.17v.06l-.11-.19h0s0-.03,0-.03h0s0-.03,0-.03h0s-.2-.03-.2-.03l.04.14v.08s-.03.02-.03.02l-.08-.16.07-.1h0l-.07.08h0s0-.09,0-.09c-.13,0-.27-.04-.4-.05l-.02.05-.04.13v.08-.04s0,0,0,0v-.22s0,0,0,0l-.16-.02h0s-.1.12-.1.12l-.02.12-.02.02h-.02s0,.04,0,.04h0s-.65.95-.65.95l-.15.04.07.07h0s0,0,0,0l-.04-.04-.04-.03.05.1-.45.63c-.08,0-.18-.04-.3-.07-.07-.02-.13-.05-.18-.05.12.04.23.1.39.13h.08s-.31.47-.31.47h0l.33-.46c.16,0,.27-.03.27-.03h-.25s.44-.62.44-.62l.06.11s.12.05.27.1l-.36.55c-.18-.04-.27,0-.27,0l.24.02-.25.4h0l.27-.39.17.06-.22.31h.02l.23-.3.24.07-.19.25h0l.21-.24c.28.05.47-.02.47-.02-.13.02-.28.02-.45,0l.47-.59c.12,0,.27.04.45.06l-.52.62h-.1.1s-.22.25-.22.25h.02l.28-.21c.19,0,.37.06.56.12l-.04.05c-.24-.04-.35-.01-.35-.01.12,0,.23.01.34.04l-.06.08h0s.06-.07.06-.07c.19.05.39.12.64.17.39.06.63-.02.63-.02-.27.04-.58.01-1-.11l-.24-.06.04-.06c.16.05.33.1.52.13.48.08.79-.01.79-.01-.33.04-.71.01-1.23-.15h-.05s.46-.65.46-.65c.69.08,1.53.18,2.25.21.12,0,.23,0,.35,0l-.34.3v.02s.37-.33.37-.33c1.19.05,1.99.08,1.99.08l.34-.08.11-.15h0l-.06.05Zm-1.28-.78l-.05-.06.37-.33-.18.37-.27.11v-.05s.13-.04.13-.04Zm-.49.25l.07-.02-.18.17.11-.15Zm.12-.02v.3l.16.03-.29-.03-.18-.02.31-.28Zm-3.2.16l-.51-.06h0s.51.05.51.05h0Zm-1.4-.16h0l-.22-.02v-.02s.23.04.23.04h0s.1,0,.1,0h-.02s-.09,0-.09,0Zm.05.06v.02s-.08,0-.08,0v-.03s.08.02.08.02Zm-.1-.02v.03s-.23-.04-.23-.04h0s.22.01.22.01Zm.48-.73h0s-.23,0-.23,0h.22Zm-.21-.03v-.02s.22,0,.22,0h0s-.22,0-.22.01Zm.47.41l.02-.02.48.05-.02.02-.48-.05Zm.96.13h0s-.47-.05-.47-.05l.48.05Zm-1.38,0h0s.28.03.28.03l-.29-.03Zm.26.04h0s-.28-.03-.28-.03l.28.03Zm-.24-.08l.29.02h0s-.29-.02-.29-.02Zm.02-.03h0s.29.03.29.03l-.29-.03Zm.04-.03l.28.02h0s-.28-.02-.28-.02Zm.03-.05l.02-.02.29.02v.02s-.31-.02-.31-.02Zm.03-.05l.02-.02.29.04h0s-.3-.02-.3-.02Zm.09-.09h0s.29.01.29.01h0s-.29-.01-.29-.01Zm.02-.04h.31s0,.02,0,.02l-.3-.02Zm.01-.04h-.14s0-.02,0-.02h.13v.02Zm-.02.03h0s-.13,0-.13,0h.14Zm-.03.03h0s-.13,0-.13,0h0s.13,0,.13,0Zm-.07.09v.02s-.13,0-.13,0v-.02s.13,0,.13,0Zm-.03.05l-.02.02h-.11s0-.03,0-.03h.12Zm-.05.06h0s-.11,0-.11,0v-.02s.12.01.12.01Zm-.03.03h0s-.11,0-.11,0h0s.11,0,.11,0Zm-.05.06h0s-.1,0-.1,0h0s.11,0,.11,0Zm-.02.03h0s-.08,0-.08,0h.09Zm-.05.07l-.02.02h-.1s.02-.03.02-.03h.1Zm-.03.05h0s0,0,0,0l.29.04h0s-.29-.03-.29-.03h-.11s0-.02,0-.02h.1Zm.03-.03v-.02s.3.04.3.04v.02s-.3-.04-.3-.04Zm.33.02l.46.05v.02s-.48-.05-.48-.05l.02-.02Zm.05-.06l.47.05h0s-.46-.05-.46-.05Zm.02-.03h0s.47.04.47.04h0s-.47-.04-.47-.04Zm.02-.03v-.02l.47.06-.47-.04Zm.03-.03h0s.47.04.47.04l-.47-.04Zm.09-.13l.02-.02.48.05h-.02s-.48-.03-.48-.03Zm.09-.11h0s.49.03.49.03l-.02.03-.48-.06Zm.04-.04h0s.13,0,.13,0l.36.02h0s-.48-.02-.48-.02Zm0-.03l-.3-.02h0s.3,0,.3,0v.02Zm-.44-.08h.15s-.15,0-.15,0Zm.02-.06h0s-.2,0-.2,0h0s.21,0,.21,0Zm-.05.09h0s-.19,0-.19,0h0s.18,0,.18,0Zm-.05.07h0s-.24-.01-.24-.01h0s.24.01.24.01Zm-.03.03h0s-.23-.01-.23-.01h.23Zm-.03.06v.02s-.25-.02-.25-.02l.02-.02.23.02Zm-.03.04l-.02.02h-.08s-.15-.02-.15-.02v-.02s.25.02.25.02Zm-.05.06h0s-.23,0-.23,0v-.02s.24.02.24.02Zm-.02.04h0s-.24-.01-.24-.01h0s.23.01.23.01Zm-.04.06h0s-.23-.01-.23-.01h0s.23.01.23.01Zm-.02.03h0s-.23-.01-.23-.01h0s.23.01.23.01Zm-.05.07v.02s-.24-.02-.24-.02l.02-.03.22.03Zm-.04.05h0s-.23-.01-.23-.01h0s.22.01.22.01Zm.1.06l.29.04h0s.02,0,.02,0l.45.06h0s-.46-.05-.46-.05h0l-.29-.02v-.03Zm.34,0h0s.46.04.46.04h0s-.47-.04-.47-.04Zm.48.04h0s.51.05.51.05l-.52-.05Zm.55.02l-.51-.05v-.02s.52.06.52.06h0Zm.04-.06h-.07s-.42-.06-.42-.06h0s.49.04.49.04v.02Zm.03-.05l-.48-.05h0s.49.04.49.04h-.01Zm-.44-.11h0s.47.04.47.04l-.48-.04Zm.7.05l.47.06-.66-.06h0s.18,0,.18,0Zm-.14-.1l-.48-.05v-.02s.49.05.49.05v.02Zm.03-.05l-.48-.05h.02s.47.04.47.04h-.01Zm.08-.09l-.47-.05h0s.47.03.47.03v.02Zm-.44-.1h0s.46.04.46.04l-.47-.04Zm.23-.05h0s-.19,0-.19,0h0s.17,0,.17,0Zm-.13-.06h0s.21,0,.21,0h0s-.22,0-.22,0Zm1.39-.07h-.13s.14,0,.14,0h0Zm.08-.35v-.21s.14.16.14.16h0l.06.11.05.19h-.28v-.13s.02-.12.02-.12Zm-.06.29h0s-.17,0-.17,0v-.02s.16.01.16.01Zm-.41-.39l.16.31h.02s0,.04,0,.04h-.24s.05-.35.05-.35Zm-.06.38h.25v.02h-.25v-.02Zm0,.18l.57.04-.58-.02v-.02Zm.56.11h.04l.91.08-.94-.07v.02s0,0,0,0v-.03l-1.06-.05v-.02s1.05.07,1.05.07Zm-.61-.21h-.33v-.02l.33.02Zm0-.47l-.02.35h-.23l.25-.35Zm0,.39h0s-.29,0-.29,0h0s.28,0,.28,0Zm-.33-.02h.04l-.02.02h0v-.02h-.01Zm.28.2h-.35v-.02l.35.02Zm-.31-.11h-.15l-.02-.02h.17s0,.02,0,.02Zm0-.06h-.22v-.02s.22,0,.22,0v.02Zm-.2-.32v-.05l.04.05-.05.06v-.06Zm-.03.15h0v-.05l.07-.07.06.1.03-.02.04.11v.05s-.21,0-.21,0v-.06s0-.06,0-.06Zm-.02.3h.21s0,.02,0,.02h-.19v-.02h-.01Zm.16.07h0s-.25,0-.25,0h.05s.21,0,.21,0Zm-.2-.15h-.15v-.02s.13,0,.13,0h.02Zm-.02-.08v.02h-.08v-.02h.08Zm-.04-.02l.05-.06v.06h-.05Zm-.12-.15l.04-.17.07.1h.02s.02.07.02.07h0s0,0,0,0v.05l-.07.07h-.14l.05-.13Zm-.06.17h.13,0s-.12,0-.12,0c0,0,0,0,0,0Zm0,.05h.1l-.02.02h-.07v-.02h0Zm.01.1h0s-.05,0-.05,0h.05Zm-.12-.23v.04s0,0,0,0h0v-.05Zm-.06-.04v.08s-.21,0-.21,0l.16-.19.05.11Zm-.22.04v-.12h.02l.02-.18.1.16-.16.19.02-.05Zm0,.07h.25v.02h-.24s0,0,0,0h0Zm0,.05h.27v.02h-.26v-.02h-.01Zm0,.08l.27.02h-.28s0-.02,0-.02Zm.35.09h0s-.37,0-.37,0h-.13s0-.02,0-.02l.5.02Zm-.48-.06h0s0,0,0,0Zm.07-.53v.04h0s0-.04,0-.04Zm-.24.24v-.11h.02v-.13s.02-.02.02-.02l.1.12-.14.19s0-.05,0-.05Zm0,.08l.17-.22.04.1.04.14h-.24v-.02h0Zm0,.04h.24v.02h-.24v-.02Zm-.02.05h.25s-.02.02-.02.02h-.23v-.02Zm-.04-.15v.08s-.03,0-.03,0l.03-.08Zm0,.15h.02s-.04,0-.04,0h.02Zm-.09.08h-.04s.04,0,.04,0h0Zm0-.07h-.08s.08,0,.08,0h0Zm-.04-.08v-.02s.02.02.02.02h-.02Zm-.01-.13l.02.07-.04.05h-.02v-.03s0-.02,0-.02l-.02-.1h.02l-.05-.12.06-.1v.1s.03.15.03.15Zm-.11-.25v-.06s.04-.04.04-.04l.05.06-.07.12v-.02s0,0,0,0l-.02-.05Zm-.05.21l.02.03h.02s.02.1.02.1v.04s-.18,0-.18,0l.12-.17Zm-.11.04l.04-.17.06.11-.12.18h0v-.02s.03-.1.03-.1Zm-.9.87l-.04-.05.04.02.16.02v-.11h0s.06,0,.06,0h0s0,0,0,0v-.08h-.1l-.06.02.64-.94.02-.02v-.02s.11-.15.11-.15l.04.17-.05.26h0s0,.11,0,.11v.05h-.16s0,0,0,0h.16v.03h-.18s.18,0,.18,0h0s-.18,0-.18,0h-.05,0s-.02,0-.02,0h0s.23.02.23.02h0s-.3,0-.3,0h0s.29.03.29.03h-.29s0,0,0,0l.27.02h-.27s0,0,0,0h-.12s.36.05.36.05h-.28s0,0,0,0h-.11s0,0,0,0l.36.04h0s-.37-.03-.37-.03h0s.36.05.36.05h0s-.36-.01-.36-.01v.02h-.02s.35.05.35.05v.02s-.35-.02-.35-.02h0s.33.05.33.05l-.02.02-.31-.04v.04l.3.04-.02.02-.3-.04v.02l.29.02h0s-.29-.03-.29-.03h0v.02l.29.02h0s-.29-.01-.29-.01h0s.28.05.28.05h0s-.28-.03-.28-.03v.02l.27.02h0s-.25-.03-.25-.03h0v.04h0s0,0,0,0v.02l.23.02-.02.03h-.19s0,0,0,0l.18.02h0s-.24-.01-.24-.01h0s0,0,0,0v.02l.23.02v.02s-.23-.02-.23-.02v.05l.18.02h0s-.41.04-.41.04Zm-.01,1.01l.1-.16h0s-.11.16-.11.16Zm.09-.2l-.17-.05.37-.57.19.05-.39.57Zm.03.01l.39-.57h.06s-.44.57-.44.57h0Zm.28.09l-.25-.07.45-.57h0s.12.02.27.05l-.48.59Zm.44-.8h-.12s0-.03,0-.03l.29.04-.02.02-.16-.03Zm.18.03h0s.46.04.46.04v.03s-.47-.07-.47-.07Zm.4.94c-.28-.07-.47-.08-.59-.08l.51-.62c.17.02.35.05.53.07l-.45.63Zm.59-.82l-.52-.06.02-.03.51.06v.03Z"/>
  <polygon class="cls-1" points="52.52 44.77 51.73 44.72 51.73 44.71 52.5 44.75 52.52 44.77"/>
  <polygon class="cls-1" points="52.72 45.13 52.72 45.16 51.49 45.04 51.49 45.01 51.5 45.01 52.72 45.13"/>
  <polygon class="cls-1" points="52.75 45.43 52.75 45.46 52.68 45.45 51.4 45.3 51.4 45.28 52.75 45.43"/>
  <polygon class="cls-1" points="52.73 45.18 51.46 45.06 51.46 45.05 52.72 45.17 52.73 45.18"/>
  <polygon class="cls-1" points="52.67 45.01 51.53 44.9 51.53 44.88 52.66 44.99 52.67 45.01"/>
  <polygon class="cls-1" points="52.74 45.23 51.46 45.1 51.46 45.07 52.73 45.2 52.74 45.23"/>
  <polygon class="cls-1" points="52.71 45.12 51.5 45.01 51.5 44.99 52.62 45.08 51.51 44.95 51.51 44.91 51.99 44.97 52.68 45.03 52.71 45.12"/>
  <polygon class="cls-1" points="26.78 38.89 26.78 38.9 26 38.83 26 38.82 26.78 38.89"/>
  <polygon class="cls-1" points="35.08 44.39 35.08 44.44 32.92 44.25 32.92 44.21 35.08 44.39"/>
  <polygon class="cls-1" points="26.01 38.81 26.72 38.87 26.03 38.78 26.03 38.76 26.33 38.79 26.75 38.83 26.77 38.89 26.01 38.81"/>
  <polygon class="cls-1" points="26.57 38.58 26.23 38.58 26.23 38.56 26.55 38.56 26.57 38.58"/>
  <polygon class="cls-1" points="26.75 39.08 25.95 39 25.95 38.97 26.75 39.08"/>
  <polygon class="cls-1" points="26.8 39.08 26.8 39.1 26.75 39.08 26.8 39.08"/>
  <polygon class="cls-1" points="26.79 38.93 25.99 38.84 25.99 38.83 26 38.83 26.77 38.91 26.79 38.93"/>
  <polygon class="cls-1" points="26.53 38.56 26.26 38.54 26.26 38.53 26.35 38.54 26.48 38.54 26.53 38.56"/>
  <polygon class="cls-1" points="25.99 38.9 26.36 38.94 25.99 38.89 25.99 38.87 26.79 38.96 26.8 39 25.99 38.9"/>
  <polygon class="cls-1" points="26.8 39.01 26.8 39.04 26 38.94 26 38.93 26.8 39.01"/>
  <polygon class="cls-1" points="26.79 38.94 26.79 38.95 25.99 38.87 25.99 38.85 26.79 38.94"/>
  <polygon class="cls-1" points="26.75 38.81 26.04 38.75 26.04 38.73 26.74 38.79 26.75 38.81"/>
  <polygon class="cls-1" points="34.38 43.39 33.61 43.37 33.61 43.33 33.86 43.34 33.86 43.33 34.25 43.33 34.38 43.39"/>
  <polygon class="cls-1" points="35.1 44.56 32.9 44.37 32.9 44.33 32.93 44.33 32.92 44.32 32.91 44.31 32.9 44.25 32.92 44.25 35.09 44.47 35.1 44.56"/>
  <polygon class="cls-1" points="35.12 44.65 32.93 44.47 32.93 44.43 35.1 44.61 35.12 44.65"/>
  <polygon class="cls-1" points="34.45 43.44 33.56 43.44 33.56 43.41 34.4 43.41 34.45 43.44"/>
  <polygon class="cls-1" points="34.62 43.57 33.34 43.54 33.34 43.5 34.57 43.54 34.62 43.57"/>
  <polygon class="cls-1" points="34.56 43.53 33.45 43.49 33.45 43.45 33.49 43.45 34.49 43.47 34.56 43.53"/>
  <polygon class="cls-1" points="34.67 43.62 33.34 43.57 33.34 43.54 34.63 43.59 34.67 43.62"/>
  <polygon class="cls-1" points="38.42 21.01 36.71 21.24 36.31 18.24 37.98 18.02 38.05 18.51 36.98 18.66 37.07 19.36 38.09 19.23 38.15 19.72 37.13 19.85 37.24 20.66 38.35 20.52 38.42 21.01"/>
  <polygon class="cls-1" points="29.72 41.09 29.7 41.12 29.66 41.09 29.7 41.05 29.72 41.09"/>
  <polygon class="cls-1" points="34.72 43.67 33.55 43.63 33.34 43.62 33.34 43.59 34.68 43.63 34.72 43.67"/>
  <path class="cls-1" d="m26.18,24.55c-.05-.07-.12-.18-.21-.31l-.12-.18-.1-.16c-.1-.14-.2-.23-.3-.26-.1-.03-.22,0-.36.04.13-.13.19-.25.21-.41.01-.15-.04-.31-.14-.49-.12-.23-.28-.36-.47-.4-.19-.05-.39,0-.62.12l-.99.57,1.51,2.63.53-.3-.63-1.11.28-.19.29-.05.22.19.3.51.1.13.12.11.58-.33v-.02l-.2-.09Zm-1.43-1.04c-.04.1-.12.18-.25.25l-.22.13-.43-.76.25-.15c.25-.13.43-.08.58.16.08.15.1.27.07.37"/>
  <polygon class="cls-1" points="31.45 22.52 30.85 22.73 29.88 19.85 30.47 19.66 31.45 22.52"/>
  <path class="cls-1" d="m23.35,24.98l.16-.3c.04-.11.04-.23.01-.35-.04-.12-.08-.24-.17-.37l-.23-.25-.27-.17c-.11-.04-.22-.05-.33-.02-.12,0-.25.06-.37.14l-.89.59,1.67,2.54.52-.34-.68-1.02.28-.18c.1-.08.21-.17.3-.27m-.61-.08l-.22.16-.52-.77.22-.14c.13-.08.24-.11.34-.07.1.02.18.11.28.23.08.13.11.25.1.35-.03.09-.09.18-.2.24"/>
  <path class="cls-1" d="m24.89,37.26l-.34.51.35-.49v-.02Zm.3-.1l-.35.55.36-.55h-.01Zm.47,0l-.37.48.39-.47h-.02Zm.19.06l-.37.48.39-.48h-.02Zm2.11,2.09l.14-.02.04-.04-.94-.1.05-.22.19-.11.08-.27,1.09-.98h0s-1.34,1.18-1.34,1.18h-.06s-.05-.05-.05-.05l-.05.04-.07.07h.07s.01.03.01.03l-.13.08-.08.15-.04.04h-.1s-.82-.11-.82-.11v.07h-.03s.04,0,.04,0l-.02.06h-.02v.02h.02l.8.05h-.01s-.79-.04-.79-.04l-.87-.1h-.01l-.33-.04h.01s.33.03.33.03h0s.01,0,.01,0l.82.1v-.04l-.8-.1h0s.8.1.8.1h.02v-.02s-.76-.1-.76-.1l.74.08v-.02h.01v-.02h.02v-.02h-.02s-.74-.07-.74-.07h-.05l-.27-.04.31.02h0s.01,0,.01,0l.71.08v-.02s0,0,0,0v-.02s.02,0,.02,0h.04s.85.12.85.12v-.04l-.83-.08v-.02h-.05s.01-.02.01-.02l-.4-.02-.29-.04h-.01l-.29-.04.3.02h0s.01,0,.01,0l.68.07v-.02s-.64-.06-.64-.06h.01s.66.05.66.05v-.02l-.65-.06h0s.65.06.65.06v-.03l-.64-.06.69.05v-.02h-.04l-.63-.06h-.01l-.29-.02h-.01l-.3-.04.31.02h0s.01,0,.01,0l.29.03h0s.01,0,.01,0l.64.05v-.02h.01v-.02h.05v-.03s.01.03.01.03h-.01s.7.07.7.07l-.04-.05h-.06l-.57-.06h0s.06,0,.06,0h-.06v-.02h.06v.02l.57.06v-.02h-.02v-.02s-.36-.03-.36-.03h-.16s-.05-.02-.05-.02v-.02h.01v-.02h.05v-.02h-.15s.15,0,.15,0h.05v-.02h-.19s.35,0,.35,0v-.02h-.16s-.02-.13-.02-.13h0s-.01-.07-.01-.07h.01s-.12-.18-.12-.18h0s-.04-.18-.04-.18l.11-.16v-.17s.01-.02.01-.02l.39-.54-.4.54-.17.23v-.04s-.06,0-.06,0l-.02.04h-.01s-.02.07-.02.07h.06s-.15.2-.15.2v-.11s.11-.15.11-.15l.02-.18h.01s-.01-.02-.01-.02l.44-.51h-.01s-.43.51-.43.51v.03l-.05.16-.12.14v-.04h-.01s.02-.02.02-.02h-.02s.18-.24.18-.24l-.21.23-.02-.02-.04.04-.04.05h.05s-.18.21-.18.21h-.01s-.05.08-.05.08l-.04-.06h-.01s-.01-.17-.01-.17l.11-.14.02-.16v-.02s0,0,0,0h-.01v.05s-.05.12-.05.12l-.12.13v-.02l.06-.06h-.02s.12-.17.12-.17l-.13.16h-.09s.04-.06.04-.06l.04-.17v-.04h-.02v.04l-.05.14-.11.13v-.04l.05-.04-.02-.02.13-.18-.15.18h-.05s-.04,0-.04,0l-.02.02h-.01s-.01,0-.01,0h.01s.02-.12.02-.12l.33-.47h-.01s-.3.42-.3.42v-.04l-.02.02h.01s-.04.08-.04.08v.04s-.01.04-.01.04h-.01s-.01,0-.01,0l.02-.05-.04.05h-.01v.04h-.01s-.06.06-.06.06v-.02s.05-.04.05-.04h-.07s-.02-.02-.02-.02h.01s.01-.13.01-.13v-.02s.01-.02.01-.02h-.01s-.02.06-.02.06l-.08.13h-.12s-.02.01-.02.01l-.04.07h.06s.02.01.02.01l-.02.06h-.01s-.06,0-.06,0v-.06s-.02,0-.02,0l.02-.02.04-.14v-.02h-.01l-.13.18h-.1s-.02.01-.02.01l-.04.06h.06v.02s-.05.07-.05.07l-.02.07h-.01s-.01,0-.01,0v.02l-.41.59-.09.02v.02s-.01,0-.01,0l.02.05-.48.7h.01l.48-.69.04.07.17.05-.4.62h.01l.4-.6.12.02-.31.47.33-.46h.04l-.36.46-.06.1.43-.54h.01l.16.02-.44.54h.02l.42-.54.28.04-.46.54h.02l.45-.54c.11,0,.22.04.34.05l-.37.52.39-.52c.42.05.95.11,1.4.12h.22s-.22.2-.22.2h.01s.23-.19.23-.19c.75.04,1.24.06,1.24.06l.21-.06.05-.06-.16.04-1.22-.08h.01s1.16.04,1.16.04Zm-.65-.51l-.02-.04.23-.21-.11.24-.16.07-.02-.04.08-.02Zm-.26.16l-.12.1.07-.08.05-.02h.02s0,.18,0,.18h-.19s.17-.18.17-.18Zm-1.07-.4h-.08s.08,0,.08,0h0Zm.01-.03h-.1s.1,0,.1,0h0Zm.12-.22h.02l.02.07.04.12h-.17v-.08s0-.09,0-.09v-.12s.08.1.08.1Zm-.12-.44l.05-.05h-.05s.16-.22.16-.22l-.05.16-.11.16v-.05Zm-.07.05l.03.02-.08.05.05-.07Zm-.15.22l.1-.12.05-.04.06.16h0v.19h.01v.16s-.1,0-.1,0v-.05h.02s-.04-.08-.04-.08v-.02h-.02l-.07-.15v-.05Zm-.03.14l.1.19h.01s.01.03.01.03h-.16s.04-.22.04-.22Zm-.04.23h.16s-.16,0-.16,0h0Zm0,.05h.11s-.11,0-.11,0h0Zm-.07.07h-.22v-.02h.23s-.01.02-.01.02Zm-.2-.08h0s-.08,0-.08,0h-.02s.1,0,.1,0Zm-.14-.04h0s.13,0,.13,0h0s-.13,0-.13,0Zm.17.05h0s.2,0,.2,0h-.2Zm0-.05h.01s-.01,0-.01,0h0Zm.2.02h-.18.01s.17,0,.17,0h0Zm-.02-.04h-.13l.16-.22-.03.22Zm0-.52v.02l-.07.06.07-.08Zm-.19.24h.01s.01-.02.01-.02l.11-.11.05-.04.05.17h-.01v.04l-.17.24h-.04v-.02s-.01-.03-.01-.03v-.06s0,0,0,0l-.06-.11.06-.06Zm-.15.11v-.02l.03.03-.04.02v-.03Zm-.02.13v-.04s.01-.04.01-.04l.05-.04.04.06h.01l.02.07v.02s-.14,0-.14,0v-.03h0Zm.12.16h0s-.12,0-.12,0h.12Zm-.32.45l-.33-.04h-.01l-.29-.04h-.01l-.17-.02h0s.18.02.18.02h0s.01,0,.01,0l.29.04h0s.02,0,.02,0l.31.04h0Zm-.78-.26h0s.01,0,.01,0h.06s-.08,0-.08,0l-.13-.02h.14Zm-.13-.02h0s.13.02.13.02l-.13-.02Zm.43.02l-.18-.02h.18v.02Zm.29.04h0s-.29-.03-.29-.03l.29.03Zm-.52,0h0s.18.01.18.01h-.18Zm.47.06h-.01s-.28-.03-.28-.03l.29.03Zm-.46-.08h.18v.02l-.18-.02Zm.02-.02h0s.18.01.18.01h-.18Zm-.05-.06v-.02s.08,0,.08,0h-.01s-.07,0-.07.01Zm.06.04h-.07s.07,0,.07,0h0Zm-.03,0h0s-.06,0-.06,0h.06Zm-.02.04h0s-.06,0-.06,0h.06Zm-.08,0h-.13v-.02l.13.02Zm0,0h0s.01,0,.01,0h.05s-.07,0-.07,0l-.13-.02h.14Zm-.04.05h0s.01,0,.01,0h.06v.02s-.07,0-.07,0h-.14s.01-.03.01-.03l.13.02Zm.06.03h.18v.02h-.18v-.02Zm.19.03l.29.03h0s-.29-.03-.29-.03Zm.3.03h0s.31.03.31.03l-.31-.03Zm.35,0l.7.07-.7-.06h0Zm-.01,0h0s-.33-.03-.33-.03h-.01l-.29-.04h-.19s.01-.03.01-.03l.18.02h0s.01,0,.01,0l.29.04h0s.01,0,.01,0l.32.04Zm-.56-.12h0s.29.03.29.03l-.29-.03Zm.61.06l-.3-.04.3.02v.02Zm.65.06l-.64-.06h0s.64.06.64.06Zm-.62-.1l-.3-.02h0s.3.02.3.02Zm.04-.05l-.3-.04h-.01l-.3-.03h-.2s.02-.04.02-.04l.18.03h0s.01,0,.01,0l.3.02h0s.01,0,.01,0l.29.04s0,.02,0,.02Zm-.27-.07h0s.01,0,.01,0l.29.02h0s-.3-.02-.3-.02h-.01l-.3-.02v-.02s.31.04.31.04Zm-.56-.11h.08s.01,0,.01,0h.18v.02h-.19s-.01,0-.01,0h-.07Zm.06.02h-.07s.07,0,.07,0Zm.06-.07h0s-.01,0-.01,0h-.07s.08,0,.08,0Zm-.02-.1h.04s-.04,0-.04,0h0Zm-.05.06h.01s-.01,0-.01,0h0Zm-.13-.03h0s.15,0,.15,0h-.15Zm.13.02h-.13s.13,0,.13,0Zm-.04.05h-.12.01s.11,0,.11,0Zm.3.05h.08l.22.02-.3-.02Zm.51-.1h-.08.01s.07,0,.07,0h0Zm-.08-.54h.05s.01,0,.01,0v.02l-.04.02h-.02s0-.04,0-.04Zm.02.07h.02s.04.15.04.15v.05l-.07-.12v-.05s0-.03,0-.03Zm-.05.32l.02-.11.04.06h.01l.02.04h0s.01.02.01.02v.02s-.01.04-.01.04h.01s-.14,0-.14,0l.04-.08Zm-.03.1h.08s.01,0,.01,0h.05s-.14,0-.14,0h0Zm0,.04h.05s-.05,0-.05,0h0Zm-.08-.09v.02s.01,0,.01,0h-.01v-.03Zm.02.05h0s-.01,0-.01,0h.01Zm-.03.04h0s-.12,0-.12,0h0s.12,0,.12,0Zm-.15-.04h.15s-.15,0-.15,0Zm.14,0h-.15l.1-.13h.01l.02.07.02.06Zm-.08-.35h.01s.01-.02.01-.02l.04.04v.11s.01.04.01.04l-.06-.12h-.01s0-.05,0-.05Zm-.08.31v-.07h.02v-.11s.07.08.07.08l-.1.12v-.02h.01Zm0,.11h.2s-.2,0-.2,0h0Zm-.02-.36v.07s0,0,0,0h-.01s0,0,0,0h-.01l-.05-.11.05-.07-.06.06v-.06s0,0,0,0l.05-.02v.02s.01,0,.01,0l.02.11Zm-.03-.4v.05s-.08.08-.08.08l.08-.13Zm-.07.18h.07v.02s-.07.06-.07.06v-.06s0-.02,0-.02Zm-.06.44l.02-.15v-.02h.01l.07.08-.1.11v-.02Zm0,.05l.11-.14.02.06v.08s-.14,0-.14,0h0s0,0,0,0Zm0,.02h.16s-.16,0-.16,0h0Zm0,.04h.14s-.14,0-.14,0h0Zm-.03-.1v.05s-.01,0-.01,0v-.05Zm-.02.1h.02s-.02,0-.02,0h0Zm.14.08h0s.01,0,.01,0l.31.02h0s.01,0,.01,0h.11s-.13,0-.13,0h-.23s-.08-.02-.08-.02h-.19s.19,0,.19-.01Zm-.23-.39v.18s.02.05.02.05h0s.01.02.01.02h-.05v-.1s0,0,0,0l-.04-.07h0s-.01-.02-.01-.02h.01s-.01-.03-.01-.03v-.05s.02,0,.02,0l.05.03Zm-.04-.16l-.02.04-.02.1v.02h-.01v-.15l.05-.06v.05Zm-.05.31v.03h.01l.02.06v.02h-.11l.08-.11Zm-.05-.35l.02-.02.02-.02h0s.12-.17.12-.17l-.06.13-.11.11v-.03h0Zm-.02.38l.02-.11.04.06-.07.11v-.06Zm-.01.09h.13v.02h-.15s.02-.02.02-.02Zm-.33.48l-.23-.03h0s-.02-.03-.02-.03h.01v.02s.11,0,.11,0v-.07h.05s-.01,0-.01,0v-.05h-.1s.41-.58.41-.58h.01s.01-.02.01-.02l.06-.08v.1s-.01.17-.01.17v.08h-.1s.1,0,.1,0h0s-.12,0-.12,0h0s.12,0,.12,0h0s-.12,0-.12,0h-.02s.13.02.13.02h-.19.01v.03h-.08s.23.02.23.02h-.24s.23.02.23.02h0s.01,0,.01,0h.15v.02h-.16s-.01,0-.01,0l-.22-.02h-.01s.22.03.22.03h-.22s0,0,0,0h-.01s.22.04.22.04h0s.01,0,.01,0h.14v.02h.01s.07,0,.07,0h0s.01,0,.01,0h.19s-.01.02-.01.02h-.19s-.01,0-.01,0h-.07s-.01,0-.01,0h-.15s-.01,0-.01,0h-.2s0,0,0,0h.19v.02h.01s.14,0,.14,0v.02s-.06,0-.06,0h-.1s-.01,0-.01,0l-.18-.03h-.01v.03l.18.02h0s.01,0,.01,0l.15.02h-.01s-.14-.01-.14-.01h-.19s0,0,0,0h.18v.02l-.18-.02h-.01s.18.04.18.04h-.19s0,0,0,0h.18v.02l-.18-.02v.06h.14s-.01.03-.01.03h-.12s0,0,0,0h.11v.02h.01s.15,0,.15,0h.06s-.07,0-.07,0h-.14s-.01,0-.01,0l-.14-.02v.02h.14v.02h.01s.13,0,.13,0h-.01s-.13,0-.13,0h-.14s0,.01,0,.01h.11v.07h-.04Zm.24-.02h0s-.06,0-.06,0h.01s.05,0,.05,0Zm.16.08h-.11s-.07-.02-.07-.02h-.06s-.01,0-.01,0l-.13-.02h.14s.06.02.06.02h0s.01,0,.01,0l.17.02h0Zm.01,0h0s.29.02.29.02h-.01s-.28-.02-.28-.02Z"/>
  <path class="cls-1" d="m33.32,21.05c-.04-.19-.08-.4-.15-.63-.06-.22-.14-.41-.22-.59-.07-.18-.16-.34-.27-.45-.12-.12-.24-.18-.4-.22-.16-.05-.34-.02-.56.04s-.39.16-.5.27-.18.24-.2.4c-.04.16-.04.33,0,.52s.08.4.15.61c.07.23.14.42.22.6.07.18.17.33.27.45.11.11.24.18.39.21.16.04.34.02.57-.04.22-.06.37-.16.49-.27.11-.11.18-.24.21-.39.03-.15.02-.33,0-.51m-.64.63l-.19.12h-.22l-.18-.15c-.05-.08-.11-.19-.16-.33-.05-.13-.1-.3-.16-.5-.05-.19-.1-.36-.13-.51-.02-.13-.04-.25-.04-.34l.06-.23.2-.13h.22l.18.16c.06.08.11.18.16.31.05.14.1.3.16.51.06.19.1.36.13.51.04.13.04.24.04.35l-.07.23Z"/>
  <path class="cls-1" d="m36.22,19.73c-.04-.22-.08-.41-.16-.58-.05-.18-.13-.33-.23-.43-.08-.11-.22-.18-.36-.23-.13-.05-.31-.05-.52,0l-.99.19.59,2.97.94-.18c.21-.04.36-.1.48-.19.12-.08.21-.19.25-.34.05-.14.08-.31.07-.52.01-.19-.03-.42-.07-.69m-.54,1l-.11.21c-.06.05-.13.08-.24.1l-.27.06-.42-2.09.26-.06c.11,0,.21,0,.28,0l.19.16c.06.08.1.19.13.31.04.12.07.27.11.45.04.19.06.36.07.51.03.14.03.25,0,.34"/>
  <polygon class="cls-1" points="40.21 20.88 38.52 21.01 38.28 17.98 38.9 17.95 39.09 20.47 40.17 20.38 40.21 20.88"/>
  <path class="cls-1" d="m40.49,26.6c-.06.15-.11.3-.13.46-.7-.16-1.49-.18-2.17-.06-1.23.23-2.06,1.09-2.06,1.09,0,0,.95.3,1.42,1.15.46.86.46,1.96.46,1.96,0,0-1.41-1.22-2.62-1.79-1.46-.69-3.04-1.01-4.85-.95-1.82.06-2.84.69-3.97,1.67-1.12.97-1.91,2.63-1.91,2.63,0,0-.3-.89-.24-1.78.05-.89.57-1.41.57-1.41-1.36-.06-2.12.44-2.49.8l-.13-.51c.14-.12.35-.24.62-.36,1.86-.82,2.86-.11,2.86-.11,0,0-1.1,1-.95,2.22,0,0,.94-3.3,5.03-3.65,4.07-.35,6.83,1.52,7.55,2.22-.04-.15-.47-1.32-2.22-1.97,0,0,1.2-1.86,3.77-1.86.51,0,1,.11,1.46.25"/>
  <polygon class="cls-1" points="24.94 40.15 24.8 40.16 24.58 40.1 24.71 40.12 24.94 40.15"/>
  <polygon class="cls-1" points="24.84 37.68 24.84 37.7 24.82 37.68 24.83 37.66 24.84 37.68"/>
  <path class="cls-1" d="m23.38,39.95s-.07.04-.19,0c-.05,0-.07-.03-.12-.05h.02c.12.06.21.07.29.04"/>
  <polygon class="cls-1" points="26.61 38.61 26.2 38.59 26.2 38.58 26.23 38.58 26.58 38.59 26.61 38.61"/>
  <polygon class="cls-1" points="26.64 38.65 26.16 38.61 26.16 38.6 26.63 38.64 26.64 38.65"/>
  <polygon class="cls-1" points="26.62 38.62 26.16 38.6 26.15 38.59 26.2 38.59 26.61 38.61 26.62 38.62"/>
  <polygon class="cls-1" points="26.65 38.66 26.32 38.65 26.16 38.64 26.16 38.62 26.64 38.65 26.65 38.66"/>
  <path class="cls-1" d="m24.54,40.16s-.08.04-.19.02c-.06,0-.1-.02-.15-.05h.04c.12.05.22.05.3.03"/>
  <polygon class="cls-1" points="22.96 39.83 22.82 39.84 22.59 39.78 22.73 39.81 22.96 39.83"/>
  <path class="cls-1" d="m24.13,40.09s-.12.04-.31,0c-.14-.02-.25-.07-.36-.1.05,0,.11,0,.18.02.2.08.36.09.49.07"/>
  <path class="cls-1" d="m24.09,40.13s-.1.02-.25,0c-.07,0-.13-.02-.19-.05.01,0,.03,0,.04,0,.16.05.3.07.4.05"/>
  <path class="cls-1" d="m29.38,11.34c.6.54.48,1.87-.72,2.04-.33.04-.8-.16-1.05-.47-.46-.59-.98-2.32,2.28-4.06-.23.99.06,1.36.1,1.42-1.46.5-1.5,1.79-1.01,1.88.26.06.58-.26.4-.81"/>
  <path class="cls-1" d="m71.22,24.36c-.95-.42-2.69-.3-4.71.52-.97-1.43-2.17-2.38-4.19-3.36-2.58-1.27-10.44-4.88-12.83-8.63-.25-.36-.46-.78-.59-1.3v-.05c-.03-.11-.05-.22-.07-.34-.22-1.39.25-2.75,1.24-3.42.46-.31,1.19-.34,1.68-.12,1.79.82,1.34,2.92.16,3.48.31-.46.3-1.04.17-1.39-.04-.22-.12-.42-.28-.6-.23-.28-.6-.44-.98-.44s-.75.16-.99.44-.35.65-.29.99c.12-.66.68-1.15,1.28-1.12.2-.01.4.06.58.16-.65,0-1.32,1.12-.49,2.29,2.25,3.57,16.21,6.6,20.31,12.89"/>
  <path class="cls-1" d="m40.77,34.39v2.25h-18.6v-1.23c.36-.28.82-.34,1.17-.27.29.07.62.04.86-.14,1.2-.83,2.85-.92,3.86-.83.58.05,1.16-.04,1.67-.29,2.14-1.01,4.18-.68,5.31-.33.58.18,1.2.21,1.8.08,2.08-.39,3.93.76,3.93.76"/>
  <path class="cls-1" d="m34.07,11.2c0,.12-.02.23-.06.34v.05c-.13.52-.34.94-.6,1.3-2.38,3.75-10.24,7.36-12.83,8.63-2.02.98-3.21,1.93-4.18,3.36-2.03-.82-3.76-.94-4.71-.52,4.1-6.29,18.06-9.32,20.31-12.89.82-1.17.17-2.29-.5-2.29.18-.1.39-.17.59-.16.6-.03,1.16.46,1.28,1.12.06-.34-.05-.71-.29-.99s-.62-.44-.99-.44-.75.16-.99.44c-.16.18-.23.39-.27.6-.13.35-.16.93.17,1.39-1.2-.56-1.63-2.66.16-3.48.48-.22,1.21-.19,1.67.12,1,.67,1.45,2.03,1.24,3.42"/>
  <path class="cls-1" d="m71.11,44.64c-.89-1.4-1.35-2.78-1.58-3.8-.12-.53-.18-.98-.21-1.28,0-.02-.01-.05-.01-.07,1.9-.25,3.96-1.26,5.61-2.8,1.79-1.68,3.1-4.02,3.1-6.77,0-2.58-1.15-5.47-4-8.46-2.81-2.96-7.28-6.02-13.99-9.05.01-.1.01-.18.01-.28,0-2.05-.75-3.65-1.94-4.84-1.81-1.79-4.58-2.76-7.5-3.68-2.92-.93-6.02-1.8-8.5-3.23h0l-.5-.27-.2-.11-.7.36h0s0,.01,0,.01c-3.31,1.92-7.71,2.81-11.34,4.2-1.82.7-3.45,1.52-4.66,2.72-1.21,1.19-1.94,2.79-1.94,4.84,0,.1,0,.18.01.28-6.71,3.03-11.18,6.1-13.99,9.05-2.85,2.99-4,5.88-4,8.46,0,2.75,1.32,5.1,3.1,6.77,1.65,1.55,3.72,2.55,5.6,2.8-.07.86-.41,2.97-1.8,5.15C4.66,46.12,0,52.74,0,58.8c0,.41.03.83.07,1.24.42,3.87,2.28,7.01,4.78,9.53,3.77,3.74,8.98,6.11,13.27,7.57,2.15.74,4.07,1.26,5.44,1.59.69.17,1.24.3,1.63.4.16.02.28.06.36.1.79,2.39,1.96,4.01,3.37,5.01,1.45,1.04,3.1,1.42,4.7,1.42s3.27-.41,4.64-.92c1.01-.4,2.09-.59,3.15-.59s2.14.19,3.15.59c1.36.51,2.97.92,4.62.92s3.26-.39,4.71-1.42c1.41-1.01,2.58-2.62,3.37-5.02.07-.01.16-.04.25-.06,1.7-.43,7.59-1.67,13.26-4.55,2.84-1.44,5.63-3.29,7.81-5.69,2.19-2.39,3.77-5.32,4.16-8.87.05-.41.06-.83.06-1.24,0-6.07-4.66-12.7-11.69-14.17m10.72,15.29c-.4,3.65-2.12,6.59-4.53,8.98-3.59,3.6-8.69,5.93-12.92,7.36-2.11.72-4,1.23-5.36,1.57-.69.17-1.24.3-1.63.4-.19.05-.35.09-.47.12l-.17.06-.1.05s-.12.06-.2.26c-.74,2.37-1.84,3.85-3.1,4.76-1.27.9-2.7,1.26-4.18,1.26s-3.02-.37-4.3-.87c-1.12-.42-2.31-.64-3.48-.64s-2.35.22-3.48.64c-1.28.49-2.8.87-4.31.87s-2.9-.35-4.16-1.26c-1.27-.91-2.37-2.39-3.11-4.76-.04-.14-.11-.19-.15-.23l-.14-.08c-.15-.06-.29-.1-.53-.16-1.73-.43-7.52-1.65-13.06-4.48-2.78-1.4-5.47-3.21-7.56-5.49-2.08-2.28-3.56-5.02-3.92-8.37-.05-.37-.07-.75-.07-1.13-.01-5.67,4.5-12.05,11.15-13.33l.18-.04.11-.16c2.06-3.12,2.08-6.13,2.08-6.18v-.42l-.42-.04c-1.75-.13-3.86-1.07-5.5-2.62-1.64-1.54-2.81-3.64-2.81-6.11,0-2.31,1.01-4.96,3.74-7.83,2.74-2.87,7.18-5.94,13.99-8.98l.28-.13v-.31c-.02-.18-.03-.35-.03-.53.01-1.85.63-3.14,1.68-4.2,1.58-1.58,4.23-2.55,7.12-3.46,2.91-.92,6.05-1.79,8.68-3.29h0s.25-.14.25-.14l.25.13s0,0,0,.01c3.5,2,7.93,2.9,11.46,4.25,1.76.68,3.28,1.46,4.35,2.51,1.05,1.06,1.67,2.35,1.68,4.2,0,.17,0,.35-.02.53v.31s.27.13.27.13c6.81,3.04,11.25,6.11,13.99,8.98,2.73,2.87,3.74,5.53,3.74,7.83,0,2.46-1.17,4.56-2.81,6.11s-3.75,2.49-5.51,2.62l-.42.04v.42s.01,3.07,2.08,6.18l.1.16.19.04c6.65,1.28,11.15,7.65,11.14,13.33-.02.38-.03.76-.08,1.13"/>
  <path class="cls-1" d="m24.13,73.71c-2.91-.47-14.17-1.92-19-11.81-2.21-4.53.27-10.55,3.36-12.33,1.32-.76,2.63-1.13,3.91-1.13,1.79,0,3.27.71,4.39,1.57l.22.16c1.22.98,1.99,2.06,2.22,2.43.35.51.6.94.83,1.32.64,1.04.99,1.61,1.79,1.61h.07c.41-.03.76-.21,1-.52,1.39,2.52-.37,3.62-1.04,3.66-.24.01-.42.02-.56.04-.02.01-.06,0-.08,0-.42-.03-.85-.16-1.2-.42-.35-.25-.6-.64-.72-1.09-.16-.45-.17-.93-.17-1.41-.07.48-.14.97-.06,1.46.06.49.28,1,.65,1.38.37.39.87.64,1.39.76.11.02.22.05.33.06.14.91.69,1.36,1.3,1.52h0c-.18.37-.45.7-.8.94-.47.34-1.09.49-1.7.46-1.23-.06-2.44-.94-2.85-2.22.25,1.3,1.4,2.44,2.8,2.67.69.12,1.45.02,2.1-.33.25-.13.48-.3.69-.51.01,2.09-1.73,2.81-2.99,2.87-2,.11-3.38-.88-4.19-3.02-.59-1.58-.6-3.19-.6-3.21v-1.42s-.51,1.86-2.35,2.05c.93-1.18,1.16-3.17.6-3.86-.11-.22-.24-.41-.46-.54-.42-.33-.98-.46-1.51-.42-1.06.04-2.06.62-2.72,1.46-.65.85-.89,1.96-.8,2.97.02.52.18,1,.31,1.48.17.48.42.92.64,1.35-.24-.95-.53-1.89-.48-2.85.01-.94.24-1.87.81-2.6.54-.72,1.38-1.23,2.27-1.36.35-.07.69-.01,1.01.1-2.35.07-5.26,6.59,3.34,11.98,2.72,1.7,5.01,2.12,6.91,2.28-.31,1.1-.15,2.38.54,3.5.2.27.45.6.8.97"/>
  <path class="cls-1" d="m58.96,72.66c-.64,1.04-2.44,3.03-6.97,3.5.88,1.01,1.28,2.33.97,3.45-.17.63-.45,1.15-.85,1.53-1.18,1.18-2.98.88-3.33.82-.27-.06-.47-.11-.66-.16-.51-.12-.78-.19-1.05.08-.12.12-.17.29-.14.46-.25-.07-.47-.24-.58-.36-.31-.39-.23-.82-.18-.99.11-.12.23-.22.36-.29.29-.19.65-.25.99-.17.35.08.65.31.92.58-.2-.31-.47-.62-.86-.76-.39-.13-.82-.06-1.17.13-.08.06-.17.12-.24.18h0c-.4-.37-.77-.34-1.05-.15-.07.02-.45-.3-.56-.62-.13-.37-.16-.97.27-1.44.58-.64,1.3-.76,2.2-.35.66.3,1.16.78,1.16.78l.43.45-.06-.62c-.04-.33.05-.56.16-.72.06.6.48,1.05.66,1.23t.02.02s.02.04.05.04c.04.04.07.08.12.1.24.21.59.24.88.17.36-.11.68-.33.88-.65.19-.3.23-.72.05-1.04.17.7-.39,1.32-.99,1.45-.19.06-.4.05-.58-.02.1-.06.16-.12.23-.19.19-.19.3-.42.33-.68v-.24c-.06-1.16-2.36-2.15-4.92-1.61-1.65.35-2.69,1.24-3.28,1.84-.34.35-.58.66-.75.89-.18-.23-.41-.54-.76-.89-.59-.59-1.62-1.49-3.28-1.84-2.56-.54-4.87.45-4.91,1.61v.24c.01.25.12.48.32.68.07.07.16.13.24.19-.18.07-.4.08-.59.02-.59-.13-1.16-.75-.99-1.45-.18.31-.14.74.06,1.04.19.33.52.54.88.65.36.08.8,0,1.05-.3t0-.02h0c.19-.19.59-.64.65-1.23.11.17.19.4.16.72l-.06.62.45-.45s.49-.48,1.15-.78c.89-.41,1.62-.29,2.2.35.42.47.4,1.06.27,1.44-.11.31-.48.64-.56.62-.28-.18-.65-.22-1.05.14h0c-.07-.05-.16-.11-.24-.17-.34-.19-.78-.27-1.17-.13-.37.15-.65.45-.86.76.28-.26.58-.49.92-.58.34-.08.7-.02.99.17.13.07.25.17.36.29.05.17.13.6-.18.99-.11.12-.33.29-.58.36.02-.17-.02-.34-.14-.46-.27-.28-.54-.21-1.05-.08-.18.05-.4.1-.65.16-.35.06-2.16.36-3.34-.82-.4-.39-.68-.91-.85-1.53-.3-1.12.1-2.44.97-3.45-4.53-.47-6.33-2.46-6.97-3.5-1.05-1.7-.87-3.77.43-4.91.54-.48,1.16-.82,1.8-.98,1.96-.48,3.72.68,4.04.92.25.18.45.34.62.46.47.37.74.57,1.13.47h.04c.2-.07.35-.19.42-.36.24.19.37.46.41.62.08.41-.11.71-.27.88-.14.08-.33.15-.52.15-.43.02-.9-.16-1.16-.58.16.47.62.81,1.13.88.08.01.17.03.27.03,0,.26.11.6.89.6,0,.15-.06.3-.13.44-.18.29-.47.51-.81.62-.35.11-.72.08-1.09-.04s-.69-.35-1-.59c.52.57,1.28,1.06,2.15.92.42-.07.83-.29,1.11-.65.02-.02.05-.06.07-.1,0,.53-.25,1.21-1.07,1.42-.77.19-1.8.02-2.55-.77-.87-.94-.99-1.91-.99-1.91,0,0-.04.82-.88,1.17.16-.23.12-.81-.14-1.18-.04-.05-.06-.1-.1-.13-.18-.25-.45-.46-.75-.56-.47-.17-1.01-.11-1.46.13-.44.27-.74.78-.7,1.29.02.51.28.94.54,1.33-.18-.45-.33-.88-.31-1.33.02-.44.25-.83.63-1.03.45-.29,1.05-.3,1.54-.07-.14-.01-.33.02-.52.11-1.73.74.64,4.36,3.92,4.36,2.68,0,3.96-.89,6.92.48-.78-1.12-.78-2.09-.7-2.6.17-1,.89-1.83,1.74-1.98.36-.06.69-.04.97.07.88.34,1.13,1.32,1.18,1.51.04.15.05.27.07.36.06.29.08.45.27.51.11.04.2.03.28-.02.04.15,0,.3-.05.37-.14.31-.62.41-.62.41-.1.28,0,.46.16.56-.04.14-.07.33-.18.42-.16.16-.45.3-.78.19-.46-.14-.68-.48-.68-1.03,0-.4.13-.77.13-.77l.12-.31-.3.17c-.16.1-.29.11-.4.08.33-.19.58-.85.28-.97-.13-.05-.34-.01-.48.06-.24.12-.37.43-.42.69-.16.75.18,1.63.65,2.2.34.4.68.69.99.89.25.17,1.34.84,1.51.97l.22.14.21-.14c.17-.12,1.26-.8,1.51-.97.31-.21.66-.5.99-.89.47-.57.81-1.45.65-2.2-.05-.25-.18-.57-.42-.69-.13-.07-.34-.11-.48-.06-.3.12-.04.77.28.97-.11.02-.24.01-.4-.08l-.29-.17.12.31s.13.37.13.77c0,.54-.23.88-.69,1.03-.33.11-.63-.04-.78-.19-.11-.1-.14-.28-.18-.42.16-.1.27-.28.16-.56,0,0-.46-.1-.62-.41-.04-.07-.07-.23-.05-.37.07.05.17.06.28.02.18-.06.22-.22.27-.51.02-.1.05-.22.07-.36.05-.19.31-1.17,1.18-1.51.29-.11.62-.13.97-.07.85.15,1.58.98,1.74,1.98.08.51.08,1.47-.7,2.6,2.96-1.38,4.24-.48,6.92-.48,3.28,0,5.66-3.62,3.94-4.36-.19-.08-.36-.12-.51-.11.48-.23,1.07-.21,1.52.07.37.19.62.59.63,1.03.02.45-.13.88-.31,1.33.28-.39.52-.82.54-1.33.04-.51-.25-1.03-.7-1.29-.45-.24-.99-.3-1.46-.13-.31.1-.58.3-.75.57-.04.04-.06.08-.08.12-.28.37-.31.95-.16,1.18-.85-.35-.88-1.17-.88-1.17,0,0-.11.97-.99,1.91-.74.8-1.77.97-2.55.77-.83-.22-1.1-.91-1.08-1.44l.07.11c.28.36.69.58,1.11.65.87.15,1.63-.35,2.15-.92-.31.24-.63.47-.99.59-.36.12-.75.15-1.1.04-.34-.11-.63-.33-.81-.62-.07-.13-.12-.29-.13-.44.78,0,.91-.34.89-.6.1,0,.18-.01.27-.03.52-.07.99-.41,1.13-.88-.25.42-.72.6-1.15.58-.19,0-.39-.06-.53-.15-.16-.17-.35-.47-.27-.88.04-.16.18-.42.41-.62.07.17.22.29.42.35h.04c.4.11.66-.09,1.13-.46.17-.12.36-.28.62-.46.33-.24,2.09-1.4,4.04-.92.65.16,1.26.5,1.8.98,1.27,1.14,1.45,3.2.4,4.91"/>
</svg>