<?xml version="1.0" encoding="UTF-8"?>
<svg id="Capa_1" data-name="Capa 1" xmlns="http://www.w3.org/2000/svg" viewBox="0 0 633.16 605.18">
  <defs>
    <style>
      .cls-1 {
        fill: #f0f0f0;
      }

      .cls-2 {
        fill: none;
      }
    </style>
  </defs>
  <path class="cls-1" d="m316.49.6c6.02-.65,12.19-1.31,16.34,1.16,6.17,3.68,13.15,6.28,18.4,11.54,51.43,51.48,102.84,102.98,154.39,154.34,9.36,9.32,16.26,20.83,16.71,33.17.45,12.32-2.53,25.52-12.41,35.39-53.73,53.68-106.89,107.95-161.34,160.89-18.78,18.26-44.23,19.14-64.77-.94-52.99-51.82-105.04-104.61-157.41-157.08-8.8-8.81-13.91-19.62-15.2-31.99-.59-5.61,1.83-10.85,3-16.25,3.61-16.65,17.16-25.09,27.72-35.77,46.23-46.78,92.61-93.42,139.63-139.39,9.29-9.09,20.49-17.82,34.93-15.06Zm194.56,202.32c-1.46-11.12-5.19-22.34-14.39-31.51-48.83-48.65-97.68-97.28-146.1-146.34-9.41-9.53-20.66-13.51-32.92-14.22-12.11-.7-23.13,3.83-31.95,12.86-10.52,10.77-21.26,21.33-31.91,31.98-39.14,39.14-78.23,78.34-117.47,117.39-9.28,9.23-13.54,20.66-13.45,33.1.09,13.09,7.26,23.8,16.3,32.86,48.51,48.67,97.17,97.2,145.71,145.85,6.11,6.13,13.95,9.91,21.68,11.81,4.75,1.16,11.08.9,16.83.4,9.09-.78,16.47-4.04,22.16-9.66,48.43-47.84,96.53-96.03,144.53-144.31,5.78-5.81,12.37-10.68,15.41-19.54,2.2-6.41,5-12.45,5.58-20.67Z"/>
  <path class="cls-1" d="m161.65,579.83c-1.82-6.69.34-11.53.75-16.27.37-4.35.79-8.73.88-13.12.15-7.22-3.84-9.53-10.61-6.83-4.59,1.83-6.37,5.59-7.03,9.63-1.3,8.01-2.32,16.13-2.51,24.23-.17,7.44-5.3,3.95-8.52,4.67-4.54,1.02-4.85-1.9-4.39-5.15,1.18-8.46,2.74-16.87,2.63-25.47-.05-3.65.52-7.77-4.16-8.64-4.81-.9-8.73.57-11.43,5.5-3.21,5.85-2.24,12.23-3.34,18.3-.76,4.21-2.11,8.47-1.64,13.02.43,4.07-3.24,2.32-5.1,2.39-7.83.29-7.45.23-6.39-7.41,1.63-11.75,2.62-23.59,4.01-35.38.22-1.84-1.54-4.58,1.47-5.37,2.7-.71,5.79-.22,7.23,2.31,1.96,3.44,3.17,2.53,5.64.49,7.43-6.16,16.85-6.07,23.93.7,3.58,3.42,5.33-.32,6.8-1.31,6.74-4.5,13.19-4.95,20.46-1.34,2.06,1.02,2.61,3.06,5.08,4.46.66-5.85,1.49-11.27,1.84-16.73.49-7.63,3.85-11.42,10.26-11.68,3.75-.15,4.63,1.49,3.56,4.48-1.86,5.2-.93,10.71-2.15,16.01-.79,3.44-1.22,7.05,4.99,3.43,9.5-5.54,24.03-1.78,27.04,8.92,4.49,15.97-4.29,40.9-25.31,38.94-6.52-.61-13.14-.16-19.71-.15-2.76,0-4.1.08-2.8-3.82,2.06-6.16,4.74-11.9,8.1-17.37.6-.98,1.39-2.49,2.9-1.82,1.42.63,1.01,2.32.73,3.36-.54,2-.89,4.02-1.3,6.03-.99,4.86.77,6.14,5.37,5.74,18.16-1.59,21.49-8.42,20.06-25.23-.53-6.22-9.36-9.13-16.27-5.43-8.51,4.55-14.33,12.19-20.54,19.28-3.95,4.52-6.83,9.81-10.51,16.63Z"/>
  <path class="cls-1" d="m484.63,576.86c-2.74,6.24-2.13,12.35-2.97,18.17-.87,6-4.19,9.64-9.63,10.11-4.53.39-5.03-1.83-4.47-5.18,1.22-7.31,2.58-14.6,4-22.59-5.81,1.89-9.76,6.58-16.07,6.24-10.18-.55-15.55-4.03-18.35-13.59-3.48-11.89,2.39-27.03,12.92-33.52,3.64-2.24,7.69-3.26,11.82-3.38,8.02-.24,16.05-.07,24.4-.07-1.56,7.82-4.95,14.33-8.51,20.79-.71,1.29-1.04,3.19-2.88,2.64-1.88-.57-1.39-2.94-.81-3.76,2.18-3.05.19-6.61,1.92-9.99-4.52,0-8.76-.17-12.97.04-6.62.34-12.54,6.86-13.22,14.92-.26,3.04-1.03,6.34.67,9.29,4.37,7.58,8.22,10.06,17.1,4.04,10.87-7.38,19.4-17.15,25.75-28.76.59-1.08.27-3.16,3.01-3.27,1.53,6.99-.7,13.76-1.68,20.53-.65,4.53,1.27,12.28,4.2,13.55,4.49,1.94,10.62-.96,13.35-6.58,1.33-2.74,2.32-5.59,2.55-8.8.52-7.26,1.6-14.48,2.41-21.72.4-3.64,3.18-2.02,4.9-2.08,7.71-.29,7.49-.23,6.64,7.03-1.46,12.42-2.61,24.87-3.91,37.3-.17,1.66.93,3.78-2.33,4.12-2.16.23-4.31.73-5.25-1.42-2.66-6.06-4.97-4.42-9.08-.9-5.73,4.9-16.71,6.2-23.5-3.13Z"/>
  <path class="cls-1" d="m48.51,573.69c-2.66,2.96,1.41,8.2-4.12,9.86-7.44,2.24-15.08,4.13-22.56,1.48-20.89-7.41-25.38-23.82-19.4-45.24,4.21-15.08,13.83-25.13,29.64-28.15,7.67-1.47,15.43-1.5,23.04.66,2.88.82,4.07,2.33,2.82,5.7-1.1,2.98-1.14,6.34-5.65,5.58-.8-.14-1.59-.41-2.36-.7-17.75-6.71-30.27,5.93-34.33,21.74-1.83,7.13-1.28,13.99,1.7,20.52,3.92,8.59,14.47,12.02,26.23,8.7,1.51-.43,2.79-.52,4.97-.14Z"/>
  <path class="cls-1" d="m360.57,533.79c5.58.35,12.11-1.36,17.6,2.97,2.73,2.16,4.05,4.73,4.25,8.57.64,12.04-2.77,23.68-2.88,35.64-.04,4.39-4.55,2.99-5.98,1.75-4.55-3.93-7.26-3.61-12.68-.02-8.94,5.91-21.74,1.27-25.11-7.08-3.69-9.15,2.5-21.18,12.78-25.25,5.96-2.36,12.43-.52,18.38-2.58,1.35-.47,3.82,1.12,3.79-1.8-.02-2.74-1.94-3.35-4.37-3.31-5.72.08-11.45-.21-17.15.11-3.77.21-3.96-1.62-3.96-4.54,0-2.9.15-4.88,3.95-4.54,3.57.33,7.19.07,11.39.07Zm1.25,22.95c-2.68,0-4.83-.25-6.9.05-5.44.78-7.6,5.07-8.1,9.61-.33,2.99,1.83,6.27,5.34,6.74,5.06.67,9.85.16,13.66-4.3,2.81-3.29,4.25-7.28,3.28-10.78-.88-3.18-5.19-.48-7.28-1.31Z"/>
  <path class="cls-1" d="m247.81,533.79c2.96,0,5.92-.05,8.89,0,10.58.21,16.16,6.61,14.75,16.98-1.2,8.81-2.46,17.62-3.81,26.41-.25,1.66,1.35,4.28-1.38,4.8-2.32.44-5.2,1.18-7.06-1.26-2.3-3.02-3.75-2.84-7.2-.59-7.81,5.09-17.03,6.95-23.38.62-8.34-8.31-6.55-21.96,3.8-27.95,4.21-2.44,8.55-4.09,13.53-3.76,2.74.18,5.5,0,8.25.04,2.26.04,4.55-.16,4.59-3,.05-3.16-2.37-3.41-4.88-3.38-5.08.07-10.16-.11-15.23.06-3.58.12-5.36-.81-5.52-4.9-.16-4.34,2.23-4.15,5.12-4.08,3.17.08,6.35.02,9.52.02Zm1.87,22.92c-1.54,0-2.62.15-3.65-.03-5.14-.91-8.09,2.51-9.81,6.15-1.16,2.47-1.72,6.35,1.22,8.78,3.45,2.86,7.48,2.07,11.22.81,6.01-2.03,9.82-7.79,8.75-13.21-1.11-5.59-5.71-.88-7.74-2.51Z"/>
  <path class="cls-1" d="m610.63,533.77c2.96,0,5.93-.03,8.89,0,8.9.11,13.08,4.68,13.57,13.38.63,11.41-3.1,22.37-2.77,33.74.13,4.52-3.15,2.45-5.27,1.59-7.49-3.01-7.25-2.25-14.86-.13-6.24,1.74-13.31,3.6-19.45-1.11-9.76-7.48-4.49-25.24,7.05-30.47,2.73-1.24,5.78-2.16,9.07-1.78,3.74.43,7.49.08,11.11-1.18,1.34-.46,3.81.93,3.46-2.11-.27-2.32-1.86-3.04-4.06-3.01-4.66.07-9.31.09-13.97,0-3.46-.07-7.65,1.61-7.49-4.98.16-6.42,4.46-3.39,7.11-3.83,2.47-.41,5.07-.09,7.61-.09v-.02Zm1.72,22.97c-2.7,0-4.91-.37-6.93.08-4.74,1.06-7.38,4.47-7.99,9.1-.52,3.94,2.13,6.61,5.54,7.19,4.79.81,9.49.31,13.23-3.91,3.02-3.4,4.7-7.56,3.6-11.32-.81-2.76-5.28-.5-7.45-1.12Z"/>
  <path class="cls-1" d="m69.74,583.41c-14.1.03-23.48-12.14-20.1-26.09,4.48-18.46,11.8-24.95,28.7-24.76,17.85.19,23.16,12.33,21.08,26.66-2.06,14.16-14.7,25.71-29.67,24.19Zm2.07-8.86c2.13-.05,3.98-.25,5.95-1.54,7.33-4.79,10.73-14.24,7.99-23.31-2.28-7.53-10.35-10.59-16.67-6.31-4,2.7-8.57,16.14-6.96,20.93,1.63,4.87,2.92,10.21,9.7,10.23Z"/>
  <path class="cls-1" d="m402.09,540.77c6.56-8.99,20.05-10.51,26.18-5.75,5.65,4.39,6.7,10.41,6.06,16.76-.91,9.06-2.23,18.11-3.79,27.08-1.29,7.41-7.12,2.43-10.64,2.99-3.48.56-1.3-2.44-1.03-4.32,1.12-8.03,1.86-16.11,2.84-24.16.69-5.6-1.08-9.57-7.01-10.61-5.43-.95-10.58,3.01-12.08,8.94-2.3,9.08-2.9,18.43-3.64,27.68-.58,7.28-5.39,3.19-8.27,3.97-3.19.87-5.21-.27-4.68-4.19,1.54-11.32,2.82-22.67,4.54-33.95.28-1.87.23-3.76.64-5.57.44-1.97-1.71-5.05,1.78-5.75,3.41-.68,6.8-.34,8.31,3.68.28.74.4,1.54.81,3.2Z"/>
  <path class="cls-1" d="m589.46,510.88c-.84,6.15-1.71,11.44-2.26,16.77-1.4,13.59-2.81,27.17-5.02,40.66-.41,2.48.35,5.18-.23,7.58-.84,3.51.1,8.45-6.68,7.75-5.22-.54-7.54-.31-6.28-7.38,2.77-15.51,3.6-31.36,5.53-47.03.51-4.14,1.16-8.22,1.31-12.43.14-3.73,1.69-6.77,6.58-5.99,2.24.36,4.6.06,7.05.06Z"/>
  <path class="cls-1" d="m549.64,582.17c1.09-9.81,2.05-19.11,3.17-28.4,1.64-13.59,3.39-27.16,5.12-40.74.51-3.99,3.61-1.9,5.48-2.06,4.31-.37,7.92-1.71,6.38,6.37-3.09,16.27-3.77,33-5.62,49.52-.34,3.07-1.41,6.01-1.17,9.24.32,4.24-1.48,6.7-6.27,6.11-2.28-.28-4.61-.05-7.1-.05Z"/>
  <path class="cls-1" d="m281.02,583.18c-6.93,1.32-7.59-.99-6.38-6.75,1.82-8.69,2.44-17.66,3.15-26.54.37-4.57,2.21-8.98,1.37-13.68-.24-1.35.18-2.48,1.98-2.43,2.49.07,5.48-.7,6.86,1.99,2.1,4.09,3.69,2.94,6.15.32,3.08-3.29,7.39-2.52,11.29-2.19,3.11.26,1.57,3.05,1.57,4.58,0,2.32.04,4.94-3.48,5.54-10.41,1.78-13.54,5.56-14.27,15.99-.49,7.03-2.31,13.89-2.6,20.98-.2,4.75-4.36,1.3-5.64,2.17Z"/>
  <path class="cls-1" d="m314.08,582.99c-7.5,2.22-7.67-2-6.88-6.3,2.43-13.28,3.66-26.69,5.03-40.09.12-1.13-.44-2.76,1.53-2.78,2.67-.02,5.96-.91,7.42,2.09,1.9,3.9,3.45,3.02,5.72.47,3.06-3.44,7.27-2.56,11.2-2.6,2.82-.02,2.37,2.23,2.07,3.59-.54,2.5.36,5.97-3.74,6.62-9.63,1.53-13.22,5.85-14.1,15.6-.65,7.22-2.19,14.34-2.6,21.62-.28,4.97-4.78.26-5.65,1.76Z"/>
  <path class="cls-1" d="m538.15,582.17c-7.08.01-8.06-1.52-6.9-8.11,1.51-8.53,2.98-17.13,3.51-25.76.26-4.18,1.85-8.08,1.6-12.34-.22-3.64,3.02-2.05,4.73-2.11,8.79-.31,8.41-.29,6.94,8.32-1.42,8.37-2.29,16.87-2.72,25.35-.22,4.19-1.7,8.1-1.6,12.38.1,4.4-4,1.16-5.56,2.26Z"/>
  <path class="cls-1" d="m392.77,484.98c1-8,1.32-15.87,3.39-23.48.39-1.42.71-3.9,2.13-2.63,3.9,3.5,6.44-.54,9.53-1.05,1.48-.25,3.59-.99,4.18-.1,3.57,5.29,7.61,1.86,11.35.79,6.85-1.96,10.04-.05,9.68,7.07-.32,6.4-1.66,12.75-2.41,19.14-.21,1.75-1.14,1.92-2.53,1.97-1.99.08-2.32-.98-2.55-2.7-.62-4.7.78-9.17,1.85-13.54.85-3.48.97-6.77-2.32-7.68-3.57-.99-6.7,1.39-8.45,4.93-2.18,4.41-.74,9.42-2.41,14.01-.73,2.01-.15,4.29-3.35,3.68-3.3-.64-1.49-2.41-1.11-4.19.8-3.84,1.46-7.76,1.64-11.68.12-2.62,1.52-6.66-3.1-6.89-3.98-.2-7.57,1.66-8.12,6.05-.49,3.9-2.14,7.66-1.42,11.73.85,4.8-1.44,6-5.98,4.56Z"/>
  <path class="cls-1" d="m258.35,457.43c6.53,1.68,3.86-4.24,5.29-6.49.96-1.51-.14-4.27,3.28-3.72,3.59.57,2.11,3.38,1.89,4.97-1.38,10.04-3.81,19.97-3.64,30.18.07,3.97-3.26,3.96-4.32,2.53-2.06-2.77-2.84-1.41-4.75-.19-6.06,3.87-10.7,2.18-13.28-4.49-2.88-7.41,3.21-19.71,10.77-22.25,1.71-.57,3.3-.37,4.76-.55Zm-9.75,16.58c.5,2.59-1.62,6.47,2.59,7.4,3.58.8,6.67-1.19,8.49-4.16,1.38-2.26-.04-5.23,1.26-7.96.86-1.81,1.82-5.63-1.05-6.51-3.56-1.09-7.92-.7-9.78,3.36-1.05,2.29-2.44,4.95-1.51,7.86Z"/>
  <path class="cls-1" d="m311.3,484.95c1.59-11.35,3.34-22.58,4.62-33.85.35-3.05.8-4.72,4.23-4.66,6.96.13,13.92.04,20.96.04,0,4.08-1.73,5.45-5.35,5.13-2.94-.27-5.94-.24-8.88.01-1.9.16-4.88-1.42-5.5,1.36-.73,3.29-1.3,7.23-.11,10.15,1,2.48,5.01.48,7.59,1.09,1.9.45,5.29-1.78,5.46,1.77.18,3.64-3.24,2.86-5.62,2.88-9.99.11-10.42.07-11.18,11.4-.35,5.23-1.98,6.12-6.22,4.68Z"/>
  <path class="cls-1" d="m520.68,457.41c6.94-.06,10.55,3.76,10.45,11.59-.16,12.56-6.86,18.33-13.91,17.82-7.46-.55-11.91-3.7-11.39-10.73.83-11.32,3.87-19.07,14.86-18.68Zm-8.59,16.96c.38,2.49-1.29,6.03,2.32,7.03,2.45.68,5.18.73,7.67-1.38,3.52-2.99,2.66-7.25,3.82-10.87.8-2.5.12-5.56-2.94-6.55-3.44-1.1-7.05-1-8.97,2.74-1.41,2.74-2.52,5.75-1.9,9.03Z"/>
  <path class="cls-1" d="m276.62,475.24c2.39,10.65,9.91,6.29,15.76,6.33-1.99,5.82-12.73,7.38-17.39,2.87-5.79-5.59-3.46-11.99-1.55-18.06,1.85-5.86,6.19-9.04,12.6-8.99,5.08.04,9.21,1.27,9.64,7.32.39,5.57-3.44,10.07-9.06,10.48-3.15.23-6.34.04-9.99.04Zm1.2-5.17c3.48,0,6.61.18,9.71-.05,2.73-.2,2.99-2.28,3.11-4.62.15-2.9-1.49-2.73-3.55-2.96-5.5-.62-7.97,2.22-9.27,7.63Z"/>
  <path class="cls-1" d="m439.46,475.42c.05-12.94,5.88-19.14,17.41-17.9,4.04.43,8.12,1.01,5.95,7.77-1.8,5.62-1.39,11.99-1.61,18.04-.15,4.17-1.74,4.45-4.46,2.07-1.76-1.54-3.06-.98-5.05-.39-9.35,2.78-12.28.35-12.24-9.59Zm5.14-.17c.29,1.96-.59,5.38,3.34,6.24,4.01.88,6.46-1.7,7.94-4.82,1.51-3.19,1.05-6.94,1.7-10.33.69-3.59-.71-3.72-3.3-3.86-6.71-.37-9.62,3.18-9.68,12.77Z"/>
  <path class="cls-1" d="m355.12,486.68c-8.3.04-11.93-3.36-12.36-10.83-.66-11.43,5.37-18.63,15.13-18.51,4.6.06,7.09,2.25,9.2,6.07,2.6,4.71-1.05,18.27-5.17,21.2-2.26,1.61-4.7,2.71-6.8,2.06Zm6.78-17.17c-.91-1.95,1.71-5.43-1.51-6.77-1.94-.81-4.6-1.47-6.95.04-3.7,2.38-4.31,6.5-5.38,10.13-.98,3.32.06,7.25,3.51,8.41,3.63,1.22,7.28.41,9.35-4.06,1.17-2.54.78-4.87.98-7.75Z"/>
  <path class="cls-1" d="m123.47,481.79c-2.04,7.96-8.26,4.84-12.63,4.59-5.66-.33-7.44-5.65-8.5-10.24-1.68-7.31,5.56-17.38,12.86-18.7,5.75-1.04,10.55,1.6,11.21,6.17.87,6.06-3.14,11.11-9.27,11.62-.84.07-1.83-.26-2.52.06-1.93.92-5.93-2.29-5.82,2.11.1,4.24,3.59,6.18,7.52,5.25,2.25-.54,4.33-1.27,7.15-.85Zm-15-11.68c3.48,0,6.54.06,9.6-.02,2.95-.08,3.91-2.7,3.94-4.64.03-1.9-1.81-2.9-4.33-3.08-5.52-.4-7.71,2.5-9.2,7.74Z"/>
  <path class="cls-1" d="m94.69,447.23c.9,0,2.4-.13,3.86.04,1.26.15,3.57-.86,3.39,1.39-.12,1.46-.64,3.91-3.35,3.67-.84-.07-1.69-.02-2.54,0-13.11.2-19.64,10.16-15.66,22.86,1.93,6.16,7.65,7.02,13.2,6.22,1.39-.2,3.11-2.54,3.47.86.22,2.05-.37,3.69-2.64,4.4-11.48,3.56-20.26-2.86-20.27-14.92,0-3.73.12-7.38,1.18-11.11,2.54-8.98,9.51-14.92,19.35-13.41Z"/>
  <path class="cls-1" d="m225.67,469.3c-.02,11.56-5.67,17.91-15.3,17.54-2.57-.1-4.32-1-5.9-2.88-4.65-5.52-3.75-11.64-1.63-17.63,2.03-5.75,6.01-9.16,12.68-8.99,7.95.2,10.18,2.59,10.16,11.96Zm-5.1.04c0-5.3-1.6-8.08-4.67-8.07-5.87.02-9.31,5.16-9.36,13.53-.03,4.27,1.37,6.8,6.04,6.82,5.29.03,7.99-4.04,8-12.29Z"/>
  <path class="cls-1" d="m559.17,469.17c1.11,4.54-1.94,9.26-1.37,14.37.33,2.94-2.88,1.94-4.25,2.55-1.08.49-2.03-1.3-1.37-3.59,1.2-4.13,1.59-8.57,1.79-12.9.12-2.79,1.53-7.48-3.61-6.89-3.97.46-9.2,1.3-8.94,7.36.17,4.04-1.83,7.67-1.55,11.76.11,1.64-1.08,4.14-4.03,3.57-3.64-.69-.77-3.03-.69-4.09.49-6.83,1.63-13.61,2.32-20.42.21-2.08,1.41-2.95,2.74-2.07,3.6,2.39,6.26-.16,9.25-1.18,5.83-2,9.29.3,9.71,6.5.1,1.47.01,2.96.01,5.01Z"/>
  <path class="cls-1" d="m154.39,468.12c.54,4.64-1.79,8.95-1.48,13.65.15,2.26-2.29,4.81-4.23,4.47-3.01-.52-.76-3.2-.84-5.03-.15-3.85,1.33-7.45,1.33-11.19,0-2.79,1.76-7.24-3.24-7.34-4.21-.09-8.26,1.77-9.27,6.56-.81,3.83-1.16,7.81-1.3,11.73-.11,2.89-.32,4.92-4.07,4.49-4.69-.53-.98-2.91-1.03-4.34-.24-6.71,1.82-13.15,2.41-19.76.2-2.25,1.54-3.77,2.89-2.35,2.25,2.38,3.24.94,5.36.06,11.14-4.64,14.87.87,13.46,9.05Z"/>
  <path class="cls-1" d="m173.8,482.46c-2.89,5.06-6.67,5.21-10.92,3.27-4.28-1.95-5.62-5.09-3.89-9.64,1.26-3.3-.26-7.15,1.73-10.4.19-.3.07-.84,0-1.25-.52-2.76,1.02-9.15,2.42-11.75.59-1.1,1.08-1.61,2.24-1.63.98-.01,1.89.44,1.67,1.36-1.64,6.91,3.35,6.49,7.57,6.6.11,2.17-.94,3-2.48,3.49-2.03.65-5.44-1.44-6.03,1.48-1.07,5.25-3.03,10.8-.85,16.07,1.37,3.29,5.53.51,8.55,2.42Z"/>
  <path class="cls-1" d="m479.32,486.7c-8.04-.02-12.86-6.53-10.8-14.57,3.17-12.37,6.37-15.17,16.81-14.72,3.9.17,4.86.64,4.5,2.39-.53,2.59-2.43,2.72-4.73,2.77-9.23.2-11.74,3.02-11.24,12.04.26,4.69,2.08,7.37,7.34,7.1,1.77-.09,5.24-1.9,5.25,2.06.01,3.29-2.94,2.91-5.25,2.92-.63,0-1.27,0-1.9,0Z"/>
  <path class="cls-1" d="m198.63,457.92c-1.2,1.7-.22,4.84-4.28,4.74-6.62-.16-8.89,5.05-9.2,10.37-.22,3.8-1.55,7.36-1.47,11.11.04,1.88-.66,2.61-2.58,2.58-2-.03-2.67-1.01-2.44-2.75.99-7.58,2-15.16,3.12-22.73.13-.88,1.03-1.65,1.58-2.47,5.22,3.6,9.61-3.37,15.26-.85Z"/>
  <path class="cls-1" d="m391.13,459.42c.11,1.38-.67,1.68-1.89,1.85-11.02,1.5-11.4,10.06-12.08,18.38-.1,1.26.07,2.56-.11,3.8-.43,3.01-2.85,1.79-4.52,1.89-1.87.11-1.87-1.34-1.65-2.64,1.2-7.1,2.47-14.19,3.69-21.29.2-1.16.33-3.5,1.59-2.57,4.68,3.46,7.98-1.18,11.94-1.41,1.4-.08,3.17-.43,3.05,1.97Z"/>
  <path class="cls-1" d="m551.53,518.28c0,5.01-3.53,8.04-9.26,7.81-3.19-.13-5.09-2.39-4.66-5.46.64-4.51,2.85-7.57,8.27-7.3,3.74.18,6.33.75,5.65,4.95Z"/>
  <path class="cls-1" d="m500.6,461.59c-1.38,6.62-2.16,13.2-2.67,19.84-.16,2.03-1.21,4.79-4.41,3.92-3.61-.98-.82-3.09-.79-4.84.1-6.71,1.7-13.17,2.71-19.74.34-2.25,1.59-2.03,3.08-2.1,2.34-.1,2.07,1.54,2.09,2.91Z"/>
  <path class="cls-1" d="m532.17,447.32c-3.18,2.51-5.86,4.5-8.4,6.67-1.37,1.17-2.64,1.19-3.91.14-2.02-1.67.14-2.44.93-3.28,2.57-2.74,4.74-6.59,11.38-3.53Z"/>
  <path class="cls-1" d="m499.83,445.96c1.93.09,3.27,1.03,3.29,3.02.02,2.55-2.51,2.97-3.98,3.05-1.91.1-2.32-1.93-2.28-3.77.05-2.09,1.34-2.35,2.98-2.3Z"/>
  <path class="cls-2" d="m511.04,202.92c-.58,8.22-3.38,14.26-5.58,20.67-3.04,8.86-9.63,13.72-15.41,19.54-48,48.28-96.09,96.47-144.53,144.31-5.69,5.62-13.07,8.88-22.16,9.66-5.75.49-12.09.76-16.83-.4-7.72-1.89-15.56-5.68-21.68-11.81-48.54-48.65-97.19-97.18-145.71-145.85-9.03-9.06-16.2-19.77-16.3-32.86-.09-12.43,4.17-23.87,13.45-33.1,39.24-39.05,78.33-78.24,117.47-117.39,10.65-10.65,21.39-21.2,31.91-31.98,8.82-9.03,19.85-13.56,31.95-12.86,12.26.7,23.51,4.69,32.92,14.22,48.42,49.06,97.28,97.68,146.1,146.34,9.2,9.17,12.93,20.39,14.39,31.51ZM316.55,25.96c-11.38-1.38-20.96,3.22-28.96,11.2-44.76,44.63-89.4,89.37-134.1,134.07-2.2,2.2-4.63,4.19-6.72,6.48-13.74,15.06-12.2,41.59,3.74,57.51,45.62,45.57,91.01,91.37,136.89,136.67,18.45,18.22,40.83,17.37,58.53-.03,46.14-45.35,91.61-91.37,137.35-137.12,5.63-5.63,10.17-11.7,12.01-19.82,1.85-8.19,4.33-17.26.57-24.2-3.5-6.48-7.7-13.12-13.54-18.83-43.23-42.25-85.75-85.22-128.5-127.96-1.95-1.95-3.94-3.85-5.99-5.69-8.8-7.89-18.54-13.48-31.28-12.28Z"/>
  <path class="cls-1" d="m316.55,25.96c12.74-1.19,22.48,4.39,31.28,12.28,2.05,1.84,4.04,3.74,5.99,5.69,42.75,42.74,85.27,85.71,128.5,127.96,5.84,5.71,10.04,12.36,13.54,18.83,3.75,6.94,1.28,16.01-.57,24.2-1.84,8.12-6.38,14.19-12.01,19.82-45.74,45.75-91.21,91.78-137.35,137.12-17.7,17.4-40.08,18.25-58.53.03-45.88-45.31-91.27-91.1-136.89-136.67-15.94-15.92-17.47-42.45-3.74-57.51,2.09-2.29,4.52-4.28,6.72-6.48,44.69-44.69,89.34-89.44,134.1-134.07,8-7.98,17.58-12.59,28.96-11.2Zm48.47,135.5c.45.42.89.83,1.34,1.25,6.94,9.33,6.93,14.58-1.43,22.24-9.7,8.9-21.92,12.45-34.69,14.3-.71-5.73-3.84-10.9-3.87-16.78,1.16-.41,2.31-.88,3.49-1.22,7.89-2.27,15.53-5.12,22.26-9.97,4.55-3.28,8.74-7.96,8.47-13.13-.39-7.56-5.26-13.42-12.62-16.55.06-2.81-1.95-2.6-4.15-2.27,1.17,1.01,2.33,2.02,3.5,3.03,6.48,8.16,7.7,14.31,3.14,19.04-7.05,7.32-15.19,13.04-25.48,14.96-2.45-6.65-3.14-13.72-3.67-20.6-1.75-23.03,4.87-43.95,17.51-63.15,1.32-2,3.82-3.71,3.38-8.08-10.43,9.76-18.71,19.87-26.13,30.65-8.39,12.19-14.76,24.93-15.54,40.49-.45,9.04.85,17.69,1.22,26.52-4.74.87-9.47,1.56-14.35,1.62-3.85.05-4.45-1.31-4.56-4.72-.26-8.48,1.13-16.77,2.76-24.97,5.75-29.04,20.35-52.56,44.02-70.63,7.15-5.45,14.92-9.61,22.76-13.91-1.45-.38-2.73-.48-3.94-.23-19.63,4.2-36.7,13.48-51.34,27-12.61,11.64-20.11,26.34-26.07,42.49-4.37,11.85-6.09,23.74-7.04,35.92-.75,9.59-.74,10.21-10.55,8.85-3.69-.51-7.31-2.05-10.99-2.13-5.85-.13-11.26-3.38-17.59-2.75,1.67,2.6,4.04,2.56,5.92,3.06,5.02,1.31,10.16,2.15,15.27,3.09,5.13.94,10.3,1.62,15.4,2.69,7.23,1.52,3.27,8.63,5.95,12.47.12.18-.22.68-.46,1.33-7.98.23-15.61-3.45-23.67-3.13,6.2,3.21,12.81,4.59,19.54,5.81,3.39.61,6.02,1.67,7.82,6.34,7.26,18.8,18.28,35.3,34.58,47.76.5.37.99.75,1.49,1.12.42.53.83,1.07,1.25,1.6.71-1.01.34-1.72-.64-2.25l-1.34-1.2c-.27-.79-.38-1.69-.83-2.35-9.05-13.37-14.92-28.14-19.2-43.6-1.04-3.77-.65-5.25,4.26-4.04,4.48,1.11,9.6,1.67,14.2-.79,2.04,8.61,3.73,17.33,6.2,25.81,5.96,20.43,7.33,41.22,4.04,62.07-2.68,16.95-7.9,33.34-15.94,48.68-.65,1.24-2.82,2.9-1.03,4.3,1.93,1.51,3.33-.6,4.73-1.85,6.12-5.5,11.16-11.97,15.92-18.59,13.99-19.48,22.85-40.91,23.12-65.24.22-19.79-4.45-38.81-9.9-57.66,13.26-1.4,25.78-5.3,37.21-12.07,5.93-3.51,10.66-8.49,9.73-16.39-.82-7.04-5.72-10.74-11.45-13.73-.4-.44-.8-.89-1.2-1.33-.46-.83-1.45-1.34-1.96-.69-.71.9.68,1.03,1.13,1.51Z"/>
  <path class="cls-2" d="m331.55,204.17c5.45,18.85,10.11,37.87,9.9,57.66-.27,24.33-9.12,45.77-23.12,65.24-4.76,6.62-9.79,13.09-15.92,18.59-1.4,1.25-2.8,3.36-4.73,1.85-1.79-1.4.38-3.05,1.03-4.3,8.04-15.35,13.26-31.73,15.94-48.68,3.29-20.84,1.92-41.64-4.04-62.07-2.47-8.49-4.16-17.2-6.2-25.81.03-1.13.06-2.25.09-3.38-.88-5.66-1.77-11.32-2.65-16.98-.03-1.36-.07-2.72-.1-4.09-.37-8.83-1.67-17.49-1.22-26.52.78-15.57,7.15-28.3,15.54-40.49,7.42-10.78,15.7-20.88,26.13-30.65.44,4.37-2.07,6.08-3.38,8.08-12.64,19.2-19.26,40.12-17.51,63.15.52,6.88,1.22,13.96,3.67,20.6-.19,2.19-.37,4.37,1.4,6.1.03,5.88,3.16,11.05,3.87,16.78-.88,1.99,1.79,3.03,1.31,4.92Z"/>
  <path class="cls-2" d="m304.5,203.27c-.03,1.13-.06,2.25-.09,3.38-4.6,2.46-9.72,1.9-14.2.79-4.91-1.22-5.3.27-4.26,4.04,4.29,15.46,10.16,30.23,19.2,43.6.45.67.56,1.56.83,2.35-.26.24-.52.48-.76.74-16.29-12.47-27.31-28.96-34.57-47.77-1.8-4.67-4.43-5.72-7.82-6.34-6.73-1.22-13.34-2.61-19.54-5.81,8.07-.33,15.7,3.36,23.67,3.13.24-.65.58-1.15.46-1.33-2.69-3.84,1.28-10.94-5.95-12.47-5.1-1.07-10.28-1.75-15.4-2.69-5.11-.94-10.26-1.78-15.27-3.09-1.88-.49-4.25-.46-5.92-3.06,6.32-.64,11.73,2.62,17.59,2.75,3.67.08,7.29,1.62,10.99,2.13,9.82,1.35,9.8.74,10.55-8.85.95-12.17,2.67-24.07,7.04-35.92,5.96-16.15,13.45-30.84,26.07-42.49,14.64-13.51,31.71-22.8,51.34-27,1.2-.26,2.49-.15,3.94.23-7.84,4.3-15.61,8.45-22.76,13.91-23.67,18.06-38.27,41.58-44.02,70.63-1.62,8.2-3.02,16.49-2.76,24.97.11,3.41.71,4.77,4.56,4.72,4.88-.06,9.6-.75,14.35-1.63.03,1.36.07,2.72.1,4.09-2.39,1.97-5.24,1.22-7.91,1.23-11.75.02-11.55-.05-9.85,11.25.53,3.54,1.85,4.69,5.21,4.58,5.06-.17,10.14-.06,15.21-.08Z"/>
  <path class="cls-2" d="m331.55,204.17c.48-1.88-2.2-2.92-1.31-4.92,12.77-1.84,24.99-5.39,34.69-14.29,8.36-7.67,8.36-12.92,1.43-22.25.24-.24.47-.49.69-.74,5.72,2.99,10.62,6.7,11.44,13.73.93,7.9-3.81,12.88-9.73,16.39-11.43,6.77-23.96,10.67-37.21,12.07Z"/>
  <path class="cls-2" d="m326.37,182.47c-1.77-1.73-1.6-3.92-1.4-6.1,10.29-1.92,18.43-7.64,25.48-14.96,4.56-4.74,3.34-10.88-3.14-19.04.22-.25.44-.51.66-.76,7.36,3.12,12.23,8.98,12.62,16.55.27,5.16-3.92,9.85-8.47,13.13-6.73,4.85-14.37,7.7-22.26,9.97-1.18.34-2.33.81-3.49,1.22Z"/>
  <path class="cls-2" d="m347.31,142.37c-1.17-1.01-2.33-2.02-3.5-3.03,2.2-.33,4.21-.54,4.15,2.27-.22.25-.44.51-.66.76Z"/>
  <path class="cls-2" d="m307.32,258.63c.98.53,1.35,1.24.64,2.26-.42-.53-.83-1.07-1.24-1.6.2-.22.4-.44.6-.65Z"/>
  <path class="cls-2" d="m365.02,161.48c-.45-.49-1.83-.62-1.12-1.52.51-.65,1.5-.14,1.96.69-.29.26-.57.54-.84.83Z"/>
  <path class="cls-2" d="m305.99,257.43c.45.4.89.8,1.34,1.2-.21.21-.41.43-.6.65-.5-.37-1-.75-1.5-1.12.24-.25.5-.5.76-.73Z"/>
  <path class="cls-2" d="m365.86,160.64c.4.44.8.89,1.2,1.33-.22.25-.45.5-.69.74-.45-.41-.9-.83-1.35-1.24.26-.29.54-.57.83-.83Z"/>
  <path class="cls-1" d="m304.5,203.27c-5.07.01-10.14-.09-15.21.08-3.35.11-4.67-1.03-5.21-4.58-1.69-11.3-1.89-11.23,9.85-11.25,2.67,0,5.52.74,7.91-1.23.88,5.66,1.77,11.32,2.65,16.98Z"/>
</svg>