<?xml version="1.0" encoding="UTF-8"?>
<svg id="Capa_1" data-name="Capa 1" xmlns="http://www.w3.org/2000/svg" viewBox="0 0 555.34 337.69">
  <defs>
    <style>
      .cls-1 {
        fill: #f0f0f0;
      }
    </style>
  </defs>
  <path class="cls-1" d="m155.57,193.67c-5.53-.26-9.66-2.43-12.02-7.81-1.02-2.32-1.25-4.65-1.61-7.03-2.19-14.45-4.37-28.9-6.52-43.35-.75-5.03-1.41-10.07-2.12-15.11-.06-.41-.08-.85-.25-1.22-.42-.91-.55-2.46-1.7-2.3-.9.12-.32,1.55-.44,2.4-.12.82-.25,1.67-.52,2.45-1.46,4.25-2.35,8.68-3.77,12.91-4.28,12.72-6.96,25.88-11.07,38.64-1.41,4.36-2.59,8.83-4.18,13.09-1.86,5-4.85,7.63-12.44,7.38-6.53-.22-11.3-3.77-13.59-9.94-2.77-7.47-4.58-15.21-6.68-22.87-1.33-4.82-2.67-9.64-4.08-14.42-1.3-4.4-2.4-8.87-3.87-13.19-1.45-4.27-2.7-8.58-3.9-12.92-.07-.27-.18-.53-.28-.79-.32-.83-.51-2.02-1.62-1.87-1.15.16-.62,1.36-.72,2.12-.6,4.55-.87,9.14-1.85,13.66-.62,2.85-.49,5.87-1.21,8.68-1.09,4.22-.93,8.58-1.78,12.79-1.65,8.2-2.34,16.53-3.75,24.75-.82,4.81-1.88,9.65-6.85,12.34-4.02,2.18-8.11,2.34-12.02.32-6.94-3.57-8.9-8.17-7.6-16.32,1.97-12.38,3.88-24.77,5.91-37.14.94-5.71,1.97-11.4,3.06-17.07,1.36-7.1,2.26-14.27,3.57-21.37.99-5.35,1.79-10.74,3.03-16.02,1.08-4.61,3.73-8.53,8.25-10.18,3.25-1.19,6.52-2.68,10.08-2.96.99-.08,1.94.03,2.77.72.36.3.86.55,1.32.59,7.69.66,10.86,6.13,12.91,12.46,2.54,7.82,4.75,15.74,7.07,23.63.77,2.61,1.2,5.34,2.2,7.85,1.58,3.99,2.27,8.22,3.58,12.28,1.51,4.72,3.33,9.39,4.35,14.28.24,1.13.38,2.92,1.48,2.96,1.34.05,1.13-1.77,1.45-2.84,1.64-5.4,3.21-10.82,4.91-16.2,4.24-13.46,8.36-26.95,12.3-40.5.35-1.2.8-2.38,1.22-3.56,1.73-4.95,4.98-8.36,10.13-9.73,2.33-.62,4.44-2.52,6.94-1.89,3.5.89,7.23,1.03,10.39,3.23,2.93,2.03,5.26,4.63,6.43,7.82,1.13,3.09,1.51,6.52,1.87,9.84.65,6.04,1.7,12.07,2.94,17.95.95,4.46.56,9.2,2.53,13.45.17.37.22.82.21,1.23-.19,6.1,1.84,11.9,2.7,17.84.71,4.86,1.81,9.79,2.76,14.68,1.4,7.25,2.44,14.58,3.31,21.92.93,7.82-5.92,14.66-13.23,14.34Z"/>
  <path class="cls-1" d="m322.51.02c10.82-.23,21.25,1.13,31.52,3.75.96.24,1.81.57,2.61,1.23,1.15.94,2.48,1.55,4.08,1.14.45-.12,1-.12,1.43.04,10.06,3.73,19.25,8.95,27.62,15.72,8.53,6.89,14.17,15.76,18.14,25.73,1.5,3.77,2.09,7.93,3.08,11.9,1.37,5.48,1.52,10.91,1.32,16.38-.19,5.22-1.48,10.33-2.63,15.42-1.35,6.01-3.59,11.72-6.26,17.26-.51,1.05-.18,1.82.75,2.52,10.6,7.91,15.67,19.05,17.25,31.66,1.13,9.02-.7,17.87-4.94,26.16-4.4,8.6-10.72,15.25-19.05,20.04-2.29,1.32-4.89,1.97-7.3,2.96-3.82,1.57-7.8,1.88-11.74,2.61-2.09.38-4.14.39-6.21-.27-1.18-.37-2.47-.45-3.72-.58-16.07-1.71-27.43-10.4-35.05-24.17-5.62-10.16-6.74-21.23-4.32-32.46,1.78-8.24,5.95-15.43,11.76-21.64,6.97-7.44,15.55-11.98,25.5-13.79,7.52-1.37,15.03-.9,22.38,1.43,3.43,1.09,3.92.76,5.33-2.57,4.2-9.97,6.47-20.3,6.01-31.16-.28-6.73-1.17-13.45-4.29-19.44-5.75-11.03-13.83-19.98-24.86-26.21-10.71-6.05-22.31-9.08-34.33-10.78-3.1-.44-6.28-.39-9.42-.54-1.18-.06-2.38.07-3.44-.67-.25-.18-.72-.29-.98-.18-3.74,1.7-7.74.7-11.6,1.12-11.15,1.2-22.06,3.42-32.72,6.83-4.58,1.46-9.22,2.82-13.59,4.78-5.46,2.44-10.73,5.34-15.96,8.25-12.22,6.81-23.33,15.15-33.29,24.97-3.68,3.63-7.04,7.58-10.38,11.53-.93,1.11-.95,2.08-.48,3.42,1.57,4.48,1.7,8.99-.19,13.47-1.5,3.56-6.77,7.73-12.01,7.25-3.12-.29-6.2-.04-8.98-2.12-5.7-4.25-6.96-8.42-6.03-15.38.7-5.26,5.68-10.27,11.1-10.94,4.08-.5,6.81-2.32,9.21-5.56,7.35-9.9,16.54-17.96,26.43-25.24,3.94-2.9,7.68-6.08,11.99-8.45,9.1-5,18.02-10.38,27.8-13.99,4.5-1.66,9.17-2.9,13.82-4.14,5.35-1.42,10.51-3.48,15.97-4.49,5.97-1.11,11.94-2.15,18.03-2.48,3.63-.2,7.26-.36,10.69-.32Zm53.71,126.44c-11.47-.83-22.14,9.19-22.65,20.29-.51,11.01,8.85,21.24,19.66,21.88,12.08.72,21.4-9.03,22.63-18.87,1.34-10.83-8.92-22.98-19.64-23.3Z"/>
  <path class="cls-1" d="m196.42,323.65c-11.16.45-22.65-3.68-32.64-11.61-8.39-6.67-14.31-15.28-17.42-25.62-5.53-18.37-4.54-36.22,5.47-52.88,5.17-8.6,12.15-15.57,21.6-19.83,3.77-1.69,7.84-1.92,11.59-3.4,7.98-3.15,16.16-2.43,24.38-1.47,1,.12,1.89.4,2.7,1.01.67.5,1.48,1.08,2.3.91,2.7-.54,4.95.85,7.15,1.82,4,1.77,7.45,4.44,9.79,8.27,2.67,4.37,2.23,10.03-1.04,14.33-2.98,3.9-7.72,5.32-12.76,4.1-5.16-1.25-10.05-3.33-15.25-4.47-8.74-1.91-19.43,2.5-24.67,10.34-5.24,7.84-6.71,16.55-5.69,25.82.41,3.72,1.29,7.26,2.9,10.62,2.03,4.23,5.13,7.6,8.69,10.59,2.83,2.38,6.02,3.88,9.74,4.2.61.05,1.21.3,1.8.52,1.87.7,3.64,1.18,5.61,0,.95-.57,2.29-.65,3.46-.7,3.51-.14,6.47-1.72,9.64-3.02,3.1-1.27,6.28-3.25,9.98-2.39,4.8,1.12,8.18,3.93,9.67,8.65,1.53,4.83.53,9.2-2.9,13.02-5.37,5.97-12.54,8.43-20.02,10.18-4.02.94-8.17,1.03-14.08,1.01Z"/>
  <path class="cls-1" d="m427.54,147.26c-.14-10.29-.39-20.98.08-31.66.28-6.31,3.31-10.83,9.27-13.18,3.15-1.25,6.09-.66,8.58,1.59,1.81,1.64,3.52,3.4,5.15,5.22,1.07,1.2,1.95,1.36,3.13.22,12.03-11.62,35.07-10.53,47.07,1.25,4.41,4.33,6.75,9.65,7.79,15.66.64,3.73.83,7.48.81,11.26-.05,12.86,0,25.71-.04,38.57-.01,3.27-.03,6.59-1.29,9.7-2.13,5.23-6.8,9.07-14.82,7.6-4.72-.86-9.52-5.89-9.74-11.2-.6-14.39-.22-28.78-.3-43.17-.04-7.13-3.22-12.08-9.5-15.18-3.26-1.61-6.62-1.54-9.94-.18-7.46,3.05-10.24,8.92-10.19,16.63.08,13.13.02,26.27,0,39.41,0,5.06-1.82,9.1-6.17,12.11-4.77,3.3-13.79,2.19-17.35-3.84-1.38-2.33-2.22-4.8-2.31-7.51-.35-10.96-.56-21.93-.22-33.3Z"/>
  <path class="cls-1" d="m63.7,274.14c0,11.67.01,23.34,0,35.01-.01,7.42-5.57,13.92-12.92,14.21-5.3.21-9.63-2.36-12.67-6.92-2.06-3.1-2.26-6.55-2.27-10.04-.05-20.96-.05-41.93-.07-62.89,0-2.17-.06-4.33-.06-6.5,0-1.24-.52-1.7-1.8-1.66-3.78.09-7.57-.1-11.33.13-7.32.44-14-4.92-13.35-14.34.34-4.96,2.96-8.28,7.53-10.13,1.21-.49,2.32.2,3.5.19,17.75-.07,35.5-.05,53.25-.12,2.92-.01,5.85-.11,8.76-.17,2.99-.07,5.27,2.36,6.77,5,4.36,7.68.7,16.3-7.14,19.1-1.72.61-3.52.85-5.35.85-3.5,0-7,.04-10.5-.01-1.75-.03-2.4.57-2.39,2.45.09,11.95.04,23.9.04,35.85h0Z"/>
  <path class="cls-1" d="m247.55,194.34c-3.85-.7-8.64-.63-13.28-2.39-3.9-1.48-8-2.44-11.6-4.69-2.16-1.35-4.08-2.96-5.7-4.9-5.58-6.68-2.6-15.81,5.84-17.9,1.59-.39,3.16-.24,4.75.24,3.98,1.21,7.53,3.32,11.26,5.06,4.61,2.15,9.37,3.69,14.54,2.15,1.93-.58,3.56-1.61,4.57-3.43,1.08-1.95.8-3.94-.79-5.53-2.25-2.26-4.99-3.73-7.96-4.79-7.3-2.62-14.54-5.34-21.36-9.09-7.38-4.06-10.58-10.53-10.9-18.55-.52-12.83,7.88-23.32,21.12-27.28,11.87-3.56,23.32-2.32,34.37,3.08,3.14,1.53,5.64,3.87,7.61,6.74,2.12,3.07,2.35,6.42.85,9.74-1.75,3.88-4.64,6.27-9.21,5.79-2.58-.27-5.02-.51-7.54-1.84-4.37-2.32-9.19-3.9-14.31-3.96-2.55-.03-4.87.77-6.72,2.47-2.29,2.11-1.91,5.13.83,6.89,3.54,2.27,7.53,3.65,11.29,5.49,6.55,3.22,13.81,5.04,19.67,9.62,7.32,5.72,10.1,13.38,8.68,22.41-1.66,10.57-7.88,17.64-17.81,21.46-5.56,2.14-11.36,3.2-18.22,3.24Z"/>
  <path class="cls-1" d="m321.01,263.83c.1-6.91.34-13.83,2.54-20.46,4.3-12.96,12.7-21.64,26.64-23.45,10.45-1.36,19.18,2.76,26.14,10.52,5.1,5.69,7.61,12.6,8.67,20.05,1.11,7.84,1.08,15.73.45,23.6-.45,5.56-1.88,10.81-4.42,15.94-3.8,7.68-9.54,13.13-17.27,16.26-8.57,3.46-17.02,2.65-25.06-2.21-10.41-6.29-15.28-15.87-16.83-27.52-.56-4.22-.94-8.46-.86-12.73Zm19.17,1.34c-.34,3.22.32,7.02.85,10.82.53,3.81,2.09,7.21,4.37,10.26,4.22,5.65,10.35,5.97,15.23.87,2.79-2.92,3.64-6.67,4.52-10.41,1.7-7.23,1.55-14.55.75-21.85-.59-5.3-1.81-10.45-5.68-14.55-2.1-2.22-4.52-3.52-7.61-3.18-4.77.52-7.25,3.83-9.1,7.75-2.94,6.23-3.39,12.9-3.31,20.28Z"/>
  <path class="cls-1" d="m284.45,307.13c-7.34-.2-14.69.3-22.03-.36-5.36-.48-9.25-4.15-9.06-8.83.08-1.92.97-3.48,2.11-4.92,5.63-7.04,11.69-13.71,17.56-20.55,4.96-5.78,9.86-11.62,14.27-17.84,2.05-2.89,3.4-6.04,3.18-9.74-.34-6.03-7.1-9.29-11.83-6.56-3.66,2.11-5.94,5.2-7.37,9.05-.44,1.18-.78,2.4-1.32,3.52-1.38,2.92-3.47,4.78-6.96,4.8-3.69.02-6.33-1.53-7.9-4.81-2.1-4.38-1.34-8.75.4-12.98,4.38-10.65,12.62-16.63,23.83-18.04,12.46-1.57,22.5,2.76,29.18,13.8.75,1.24,1.03,2.59,1.28,3.96,1.89,10.55-.97,19.86-7.43,28.25-5.42,7.04-10.65,14.21-17.02,20.47-.79.78-2.29,1.71-1.74,2.84.63,1.27,2.27.44,3.47.4,6.43-.2,12.87-.63,19.28.23,3.36.45,7.74,4.88,6.81,9.89-.64,3.45-4.19,6.55-7.93,7.07-4.67.65-9.37.26-14.05.35-2.24.05-4.48,0-6.72,0Z"/>
  <path class="cls-1" d="m494.67,293.78c-7.28,0-14.56.06-21.84-.03-3.21-.04-6.07-1.48-7.38-4.33-1.42-3.1-1.45-6.42,1.1-9.4,9.43-10.97,18.81-21.98,28.1-33.06,2.97-3.54,5.32-7.51,6.76-11.96,1.02-3.16-.23-6.59-3.33-9.01-2.18-1.71-6.87-1.85-9.35-.08-2.79,1.99-4.48,4.74-5.87,7.93-1.55,3.57-2.41,7.93-7.37,9.02-4.48.98-10.16-2.78-10.37-7.37-.46-9.8,3.64-17.43,11.53-23.08,2.35-1.68,4.88-3.01,7.9-3.37,1.37-.16,2.88-.48,4.04-1.58.61-.57,1.52-.68,2.38-.68,2.31,0,4.62-.04,6.93.03,1.25.04,2.45.26,3.46,1.22.53.5,1.36,1.01,2.03.98,5.81-.24,9.2,3.66,12.76,7.26,3.34,3.37,4.8,7.58,5.49,12.18.97,6.54-.94,12.44-3.95,18.05-3.99,7.44-9.57,13.73-14.99,20.13-2.17,2.56-4.35,5.11-6.86,7.36-.71.63-1.52,1.33-.96,2.51.52,1.1,1.47,1.12,2.49,1.12,5.24,0,10.48.07,15.72.03,2.07-.02,4.06.62,6.21.18,1.6-.33,4.71,3.64,4.82,5.76.22,4.26-1.31,7.62-5.15,9.77-.92.52-1.9.42-2.87.42-7.14.02-14.28.01-21.42.01v-.03Z"/>
  <path class="cls-1" d="m424.05,293.78c-7.28,0-14.56.04-21.84-.02-3.36-.03-6.13-1.72-7.4-4.63-1.25-2.87-1.3-5.95,1.14-8.79,9.8-11.39,19.44-22.92,29.15-34.38,2.51-2.96,4.47-6.22,5.66-9.93,1.32-4.11-.09-8.27-3.56-10.43-2.9-1.8-7.67-1.09-10.46,1.61-2.14,2.06-3.63,4.55-4.64,7.35-1.27,3.5-2.57,6.9-6.7,8.18-4.04,1.25-8.86-1.27-9.89-5.35-2.2-8.72,1.3-15.65,7-21.8,3.3-3.55,7.4-5.7,12.19-6.86,3.69-.89,7.16-2.22,11.13-2.08,3.21.11,5.53,2.54,8.43,2.59,4.25.06,7.11,2.49,9.76,5.06,7.01,6.8,9.3,16.08,6.24,25.53-2.83,8.75-8.84,15.41-14.25,22.47-3.11,4.06-6.64,7.74-10.16,11.44-.73.77-2.09,1.62-1.56,2.73.56,1.16,2.18,1.14,3.39,1.16,4.61.1,9.23.21,13.83.06,2.44-.08,4.78.75,7.29.28,1.64-.31,4.42,3.24,4.79,5.54.69,4.31-1.29,8.19-5.21,10.01-.65.3-1.5.27-2.26.27-7.35.02-14.7.01-22.05.01v-.02Z"/>
  <path class="cls-1" d="m101.82,268.44c0-13.66-.04-24.7.02-35.75.02-3.98.05-7.98.47-11.93.5-4.73,2.91-8.24,7.4-10.36,2.8-1.32,5.54-2.38,8.62-1.59,5.48,1.4,9.37,3.95,10.88,9.95.65,2.58.95,5.19.94,7.86-.04,27.12-.04,54.24-.05,81.36,0,5.43-1.71,10.05-6.5,13.06-4.24,2.67-8.76,3.28-13.31.87-4.65-2.47-7.84-6.18-8.11-11.65-.73-14.81-.2-29.63-.36-41.83Z"/>
  <path class="cls-1" d="m530.07,315.42c.29,4.48-2.43,7.23-6.16,8.95-6.25,2.89-12.77,5.12-19.47,6.81-3.41.86-6.76,1.96-10.2,2.65-5.6,1.12-11.22,2.22-16.93,2.69-5.57.46-11.13,1.07-16.71,1.16-4.87.08-9.76-.4-14.63-.78-5.98-.47-11.93-1.3-17.82-2.48-2.39-.48-4.96-.71-7.1-1.65-3.02-1.33-6.32-1.36-9.3-2.76-2.28-1.08-4.87-1.62-7.31-2.27-3.71-.99-7.12-2.49-10.45-4.24-4.32-2.27-5.79-7-4.17-11.91,1.31-3.97,6.36-8.19,10.9-6.74,4.16,1.33,8.58,1.87,12.35,4.31,3.12-.62,5.13,3.13,8.36,2.11.3-.1.72-.02,1.03.11,6.7,2.88,13.98,2.37,20.96,3.6,7.28,1.28,14.6,1.37,21.94,1.14.84-.03,1.67.08,2.47.38,1.39.53,2.57.37,3.93-.49,2.25-1.43,4.99-1.29,7.53-1.39,6.04-.24,11.82-1.64,17.63-3.1,6.62-1.66,12.93-4.24,19.43-6.24,7.32-2.25,13.72,2.37,13.7,10.14Z"/>
  <path class="cls-1" d="m319.08,147.51c0,10.69.04,21.37-.02,32.06-.03,5.19-1.86,9.5-6.45,12.41-3.79,2.4-7.77,2.31-11.61.67-5.14-2.2-7.58-6.28-7.78-12.01-.74-21.09-.22-42.17-.27-63.26,0-3.62.34-7.24,2.73-10.32,3.45-4.45,9.07-6.34,14.16-4.65,5.55,1.84,9.19,6.67,9.22,12.43.04,10.9.01,21.79.01,32.69Z"/>
  <path class="cls-1" d="m204.82,147.11c0,10.48.06,20.96-.03,31.44-.04,4.32-.82,8.44-4.25,11.64-3.81,3.55-8.21,4.46-12.97,2.8-5.05-1.76-8-5.5-8.51-10.89-1.07-11.22-.48-22.47-.54-33.71-.06-10.69.05-21.38.16-32.06.05-4.46,1.2-8.41,4.88-11.51,5.65-4.75,14.54-3.77,18.61,2.41,1.71,2.59,2.74,5.4,2.7,8.64-.11,10.41-.04,20.82-.04,31.23h-.02Z"/>
  <path class="cls-1" d="m306.11,93.04c-9.53-.2-14.69-5.87-14.54-15.81.09-6.15,6.21-13.2,15.02-13.02,7.29.15,14.3,7.31,14.11,14.55-.19,7.3-5.77,15.37-14.6,14.29Z"/>
  <path class="cls-1" d="m539.26,271.98c-5.29-.06-7.71-3.71-5.72-8.34,1.75-4.08,4.63-7.46,7.19-11.02.86-1.2.96-2.01.15-3.14-1.51-2.1-2.96-4.23-4.44-6.35-1.37-1.95-2.6-3.96-3.39-6.23-.91-2.63-.53-4.07,1.66-5.84,2.36-1.9,4.52-2.12,6.72-.68,1.41.93,2.63,2.04,3.65,3.41,3.05,4.08,6.08,8.16,8.81,12.48,1.8,2.84,1.93,5.53.35,8.46-1.3,2.42-3.06,4.5-4.62,6.73-1.6,2.29-3.2,4.57-4.81,6.86-1.43,2.04-2.86,4.08-5.56,3.67Z"/>
  <path class="cls-1" d="m.02,130.25c-.12-1.62.56-3.1,1.48-4.43,3.18-4.59,6.46-9.11,9.63-13.71,1.56-2.26,3.47-3.12,6.12-2.17.98.35,2.09.07,3.02.73,2.37,1.66,2.85,4.15,1.44,7.01-2.03,4.1-4.87,7.66-7.48,11.37-.88,1.26-.82,1.97.22,3.18,3,3.5,5.63,7.3,7.61,11.49,1.04,2.2.53,4.8-1.04,6.17-2.69,2.36-5.18,2.71-7.84,1.14-1.76-1.03-2.74-2.76-3.94-4.29-2.9-3.69-5.23-7.76-7.8-11.67-.93-1.41-1.54-2.98-1.41-4.81Z"/>
</svg>