<?xml version="1.0" encoding="UTF-8"?>
<svg id="Capa_1" data-name="Capa 1" xmlns="http://www.w3.org/2000/svg" viewBox="0 0 1048.9 531.8">
  <defs>
    <style>
      .cls-1 {
        fill: #f0f0f0;
      }
    </style>
  </defs>
  <path class="cls-1" d="m204.35,330.67c-17.9,0-33.54.18-49.18-.04-22.51-.32-45.05-.36-67.51-1.59-20.28-1.11-40.57-1.81-60.84-2.94-6.88-.38-13.8-1.55-20.67-.94-6.06.53-6.58-2.74-5.95-7.05.86-5.85,2.53-11.6,3.07-17.47.92-10.15,2.59-20.42,4.48-30.15,1.73-8.87,2.09-18.23,5.07-26.94,1.89-5.52,7.42-3.82,10.6-4.1,22.68-2.01,45.28-4.54,68.17-4.94,29.47-.52,58.89-.43,88.32.57,29.76,1.01,59.49,2.78,89.25,4.02,10.83.45,21.59,1.75,32.49,1.59,8.09-.12,9.66,2.11,9.6,10.07-.1,14.37,0,28.76-.59,43.12-.44,10.68-5.75,18.82-15.67,23.24-16.32,7.28-33.49,10.73-51.32,12.31-13.89,1.24-27.74.37-39.33,1.23Z"/>
  <path class="cls-1" d="m149.83,118.14c8.31.28,16.52-.21,24.57-2.62,4.39-1.32,8.54,2.18,12.93,1.18,7.52-1.71,15.16-.97,22.73-1.43,18.27-1.12,36.59-.61,54.83-1.58,18.67-1,37.31-2.38,56.02-2.61,6.21-.08,8.88,1.53,9.28,8.48.76,13.3,4.75,26.39,3.17,39.88-1.8,15.41-6.01,30.07-14.62,43.2-2.52,3.84-5.78,5.77-10.64,6.62-37.75,6.56-75.79,7.46-113.84,5.15-13.68-.83-27.45-1.72-41.16-3.3-18.3-2.11-36.9-2.82-55.41-1.87-7.09.36-11.13-3.25-9.13-9.9,2-6.69-.27-13.54,1.04-19.86,2.44-11.79-1.31-24.42,4.2-35.47,7.28-14.6,21.06-20.61,36.03-24.32,6.56-1.62,13.26-1.98,20.01-1.54Z"/>
  <path class="cls-1" d="m695.99,80.45c.61,21.75-.29,43.35,0,64.95.26,19.32-.16,38.8-.53,58.21-.33,17.13-.07,17.35-17.43,17.01-5.72-.11-12.74,3.51-16.86-1.02-3.8-4.18-.68-11.01-.7-16.64-.18-59.05-.01-118.1-.25-177.15-.02-6.07,1.36-8.21,7.63-7.67,6.92.59,13.94.27,20.91.08,3.36-.1,6.25.76,7.67,3.7,8.83,18.26,22.07,33.6,33.06,50.43,14.26,21.84,28.63,43.61,43.05,65.34,4.41,6.65,9.16,13.09,13.74,19.63.62.89.74,2.43,2.26,2.17,1.92-.33,1.54-2.05,1.54-3.32.06-9.05.04-18.11.04-27.16,0-34.82.14-69.65-.14-104.47-.04-5.39,1.48-6.67,6.58-6.37,7.64.44,15.34.29,23,.04,4-.13,5.73.68,5.72,5.27-.15,64.08-.13,128.15-.03,192.23,0,3.93-1.17,5.37-5.15,5.11-4.63-.3-9.42-.76-13.92.07-11.05,2.03-17.09-3.43-22.74-12.07-20.81-31.79-41.71-63.53-63.42-94.72-7.8-11.21-14.59-23.13-24.02-33.63Z"/>
  <path class="cls-1" d="m440.68,119.87c-.54-17.51.77-33.53,6.8-49.01,10.12-26,26.85-44.83,54.66-52.24,19.18-5.11,38.53-5.38,57.74-.79,35.23,8.42,54.31,32.38,62,66.47,3.97,17.61,5.55,35.47,2.91,53.51-2.64,18.1-6.77,35.69-16.93,51.34-6.33,9.75-14.49,17.74-24.67,23.04-31.97,16.65-65.02,18.15-97.35,2.25-22.04-10.84-34.34-30.79-40.89-54.19-3.81-13.6-4.96-27.48-4.26-40.37Zm149.42-3.32c.67-6.07-.41-16.33-3.33-25.88-3.01-9.84-5.29-20.23-12.58-28.5-13.81-15.68-31.7-18.59-50.95-16.66-21.45,2.15-35.17,15.04-41.73,34.67-8,23.95-8.24,48.51-1.78,73.05,3.97,15.09,11.45,27.53,25.5,35.34,10.49,5.83,21.9,6.49,33.44,5.65,15.57-1.13,28.79-7.13,37.82-20.37,10.95-16.05,13.13-34.39,13.62-57.31Z"/>
  <path class="cls-1" d="m867.34,121.02c0-30.41,0-60.83.01-91.24,0-2.73.47-5.37,1-8.08.65-3.31,2.13-3.4,4.57-3.39,39.27.15,78.54.36,117.81.31,4.51,0,5.48,1.5,5.27,5.58-.31,6.02-.38,12.09.02,18.1.31,4.72-1.47,5.77-5.91,5.74-26.96-.18-53.92.05-80.88-.21-5.33-.05-7.18,1.14-7.01,6.81.44,14.15.33,28.32.05,42.48-.1,4.84,1.37,6.34,6.27,6.3,24.17-.22,48.35.05,72.51-.22,5.33-.06,7.61,1.15,6.95,6.83-.88,7.52,3.21,17.38-1.62,22.05-4.44,4.29-14.16,1.13-21.55,1.18-18.59.14-37.19.21-55.78-.06-5.02-.07-6.94,1.09-6.81,6.51.36,15.08.32,30.18.02,45.27-.1,4.99,1.63,6.22,6.38,6.19,27.65-.19,55.3.08,82.94-.24,5.85-.07,7.84,1.55,7.18,7.31-.83,7.28,3.15,17.09-1.64,21.25-4.17,3.62-13.71,1.2-20.87,1.21-34.17.05-68.33-.1-102.5.15-5.23.04-6.57-1.3-6.53-6.52.26-31.11.13-62.22.13-93.33Z"/>
  <path class="cls-1" d="m246.72.04c20.44,0,40.88-.01,61.33,0,8.75,0,11.19,1.85,13.84,10.44,1.83,5.94,2.97,12,2.75,18.26-.59,17.07.85,34.16-1.17,51.26-.72,6.13-2.97,8.06-8.38,8.18-8.29.18-16.59.66-24.85,1.02-13.6.59-27.2,1.65-40.83,1.96-19.1.43-38.12,3.14-57.31,2.58-13.19-.39-22.85-9.68-23.23-22.92-.26-8.99,1.66-17.75,2.96-26.58,1.89-12.83,4.21-25.63,5.22-38.53C177.49.06,179.93-.01,184,0c20.91.07,41.81.03,62.72.03Z"/>
  <path class="cls-1" d="m871.63,375.63c0-19,.02-38.01-.02-57.01,0-3.37-.45-6.27,4.77-6.06,4.59.18,6.44,1.06,6.38,6.19-.28,23.9-.1,47.8-.16,71.7,0,2.61,1.06,6.2-2.71,6.97-3.73.76-7.2.7-9.96-3.53-12.75-19.55-25.91-38.83-38.95-58.19-.46-.68-1.1-1.25-3.02-3.4,0,7.93,0,14.04,0,20.15,0,12.76-.42,25.54.17,38.28.31,6.65-4.46,6.31-7.91,6.69-5.24.58-3.16-4.14-3.18-6.55-.17-23.67-.17-47.34,0-71,.02-2.32-2.07-6.16,2.03-6.91,3.74-.69,7.78-.99,10.53,3.15,10.65,16,21.45,31.9,32.19,47.84,2.77,4.11,5.52,8.23,8.27,12.34l1.56-.65Z"/>
  <path class="cls-1" d="m453.19,353.02c-.88-15.06,3.38-28.58,17.57-37.61,20.05-12.76,50.31.02,54.97,23.18,2.86,14.24,2.33,28.3-3.23,41.75-4.01,9.71-12.96,14.93-22.36,16.66-9.4,1.73-19.22,2.06-28.86-3.13-12.6-6.79-16.21-17.78-18.02-30.29-.46-3.18-.07-6.49-.07-10.57Zm11.39,2.03c0,2.55-.16,5.11.03,7.65,1.33,17.88,14.55,30.48,34.75,23.91,6.04-1.96,10.17-5.6,12.66-11.58,5.17-12.38,4.76-24.84,1.62-37.54-2.62-10.61-10.73-15.24-18.98-16.19-10.49-1.21-20.24.62-26.13,11.11-4.01,7.13-4.23,14.83-3.94,22.64Z"/>
  <path class="cls-1" d="m482.69,530.16c-6.97,0-13.94-.15-20.9.06-3.72.12-5.42-.8-5.39-4.97.15-24.82.15-49.64,0-74.46-.03-4.1,1.5-5.09,5.3-5.04,13.93.17,27.87.31,41.8-.06,5-.13,3.8,2.63,4.26,5.54.69,4.38-1.56,4.37-4.69,4.34-9.75-.1-19.52.19-29.26-.13-4.89-.16-7.39.82-6.8,6.41.69,6.64-2.68,15.32,1.21,19.48,3.96,4.24,12.73.95,19.38,1.29,3.94.2,7.9.18,11.84,0,3.41-.16,5.5.09,5.55,4.62.05,4.79-2.09,5.2-5.88,5.1-7.66-.2-15.33,0-22.99-.08-5.89-.06-9.27,2.12-8.58,8.59.68,6.35-2.86,14.58,1.51,18.6,3.97,3.64,12,.88,18.23,1.05,5.34.15,10.69.2,16.02-.03,3.8-.16,5.94.3,5.87,5.1-.06,4.53-2.19,4.71-5.59,4.64-6.96-.15-13.93-.05-20.9-.05Z"/>
  <path class="cls-1" d="m563.31,475.12c0-10.24.19-18.82-.07-27.39-.18-5.84,3.96-3.58,6.7-4.05,3.58-.62,5.74,1.6,5.35,4.49-2.3,16.83-.4,33.7-.95,50.54-.28,8.58-.07,17.17-.04,25.75,0,2.54.29,4.97-2.75,6.37-3.29,1.52-5.15-.63-6.21-2.67-1.58-3.04-3.08-2.41-5.48-1.32-3.08,1.4-6.42,2.21-9.6,3.41-10.3,3.88-22.08.12-27.44-11.88-5.78-12.96-5.82-25.83.86-38.75,5.72-11.05,18.82-12.29,27.21-10.07,3.92,1.03,7.9,2.13,12.41,5.59Zm.03,23c-.62-4.25,1.65-9.58-1.05-13.78-6.49-10.1-23.23-9.61-29.33.67-4.89,8.26-4.2,17.33-1.74,25.97,3.6,12.67,15.54,13.31,25.5,7.97,8.82-4.73,6.23-12.95,6.62-20.83Z"/>
  <path class="cls-1" d="m749.8,521.84c-6.76,6.27-13.27,10.1-21.72,9.68-8.82-.44-17.55-7.33-18.24-14.65-1.33-14.2,3.94-19.7,14.22-23.07,5.67-1.86,11.39-.92,17.06-1.47,2.23-.22,6.2,2.17,6.31-2.75.09-4.19,1.43-8.74-4.35-11.1-6.96-2.83-13.54-.6-20.19.56-2.81.49-5.92,2.58-7.32-1.34-1.52-4.27,1.56-6.56,5.18-7.39,8.53-1.95,17.17-2.72,25.72,0,8.56,2.71,12.44,8.02,12.54,17.44.12,12.05.05,24.09.02,36.14,0,3.14.81,6.96-3.96,7.42-4.58.44-3.58-3.83-4.73-6.22-.35-.73-.29-1.65-.53-3.25Zm-12.78-20.99v.06c-2.78,0-5.6-.26-8.34.06-5.57.65-9.54,7.06-8.35,12.59,1.37,6.35,5.3,9.41,11.56,9.38,6.56-.03,15.06-6.83,15.68-12.2,1.08-9.43.66-9.89-9.16-9.89-.46,0-.93,0-1.39,0Z"/>
  <path class="cls-1" d="m944.98,385.25c1.91,6.43-.16,9.62-6.13,11.12-8.18,2.06-16.31,2.31-24.38.18-16.42-4.34-20.26-23.07-18.65-35.67.67-5.22,1.68-10.52,4.96-15.36,9.42-13.86,34.55-14.74,43.87-.72,4.49,6.74,4.03,14.96,3.56,22.79-.19,3.22-3.15,2.05-4.97,2.06-10.67.11-21.35.09-32.02.03-3.67-.02-4.91.14-3.92,5.02,2.43,12.02,14.42,16.22,24.18,14.04,4.44-.99,8.82-2.28,13.5-3.51Zm-23.06-24.4c3.92,0,7.85-.11,11.76.03,3.7.14,5.03-1.47,4.34-5.02-.95-4.88-2.32-9.46-7.89-10.98-6.6-1.8-13.3-2.32-18.52,2.87-2.96,2.94-6,7.37-4.56,11.45,1.3,3.67,6.12,1.11,9.34,1.62,1.8.29,3.68.05,5.53.04Z"/>
  <path class="cls-1" d="m618.07,388.8c-6.91,5.73-13.53,10.08-22.67,9.08-9.04-.99-16.9-7.56-18.06-16.66-1.14-8.93,4.23-17.05,12.84-20.19,5.97-2.17,12.06-2.21,18.25-2.49,2.65-.12,7.09,2.59,7.81-2.51.72-5.08-.77-9.29-6.45-11.38-7.04-2.59-13.51.04-20.19,1.19-3.84.66-7.76,1.26-6.67-4.92.27-1.55,1.05-2.67,2.48-3.01,10.27-2.44,20.51-4.94,31.03-.87,8.78,3.39,10.71,10.81,10.97,18.8.38,11.59.14,23.21.08,34.82-.02,2.86.89,6.48-3.66,6.91-5.13.49-4.55-3.35-4.79-6.55-.03-.42-.34-.82-.98-2.23Zm-11.72-21.69s0-.08,0-.12c-2.99.14-6.07-.11-8.97.49-6.96,1.45-10.64,7.83-8.81,14.63,1.37,5.1,7.93,8.05,14.09,6.6,5.22-1.23,8.99-4.53,12.26-8.39,3.01-3.56,1.86-8.14,1.02-11.93-.59-2.68-4.46-.85-6.82-1.26-.9-.16-1.84-.03-2.77-.03Z"/>
  <path class="cls-1" d="m753.8,369.71c-5.11,0-10.25.34-15.32-.09-5.61-.48-5.65,2.65-4.62,6.37,2.45,8.9,11.72,14.71,21.3,13.26,3.57-.54,6.99-2.14,10.56-2.55,1.69-.19,4.15-3.38,5.17-.12.79,2.54,1.87,6.66-1.91,7.93-10.78,3.63-21.96,5.98-32.63.26-10.31-5.53-13.5-15.37-14.02-26.51-.29-6.08-.21-12.45,1.95-17.72,3.58-8.74,10.48-14.9,20.73-15.48,10.43-.59,20.57.41,26.4,10.66,3.77,6.64,2.76,14.31,2.59,21.65-.06,2.82-2.4,2.3-4.16,2.31-5.34.05-10.68.02-16.03.02Zm-5.24-8.86c3.7,0,7.42-.2,11.1.05,4.5.31,4.96-2.03,4.31-5.57-1.5-8.17-5.36-11.47-14.04-11.87-6.46-.3-14.44,4.74-15.99,10.46-1.07,3.96-1,7.51,4.91,6.99,3.21-.28,6.47-.05,9.71-.05Z"/>
  <path class="cls-1" d="m632.19,521.06c-8.52,8.11-17.21,13.02-28.51,9.25-8.45-2.82-12.26-8.93-12.86-18.32-.79-12.29-.01-24.57-.51-36.83-.16-3.99,1.24-5.14,5.15-5.12,3.93.02,5.88.62,5.74,5.27-.34,10.66-.33,21.35,0,32.02.17,5.75,1.18,11.05,7.36,14.5,8.21,4.59,23.16-6.82,22.74-15.63-.49-10.19.08-20.42-.2-30.62-.11-4.2,1-5.57,5.4-5.58,4.54,0,5.94,1.24,5.86,5.83-.26,15.78-.09,31.56-.11,47.34,0,3.36.97,7.7-4.07,8.06-5,.36-4.23-4.27-5.08-7.34-.17-.62-.39-1.23-.9-2.81Z"/>
  <path class="cls-1" d="m910.92,500.26c0-8.12-.09-16.25.06-24.37.03-1.86-1.29-4.77,1.49-5.38,2.31-.5,5.34-1.86,7.09,1.93,1.18,2.54,3.25,2.1,5.78.7,15.21-8.4,36.66-6.91,38.05,17.42.68,11.8.17,23.67.25,35.5.04,5.93-5.2,4.23-8.05,5.03-3.55.99-2.88-2.7-2.89-4.78-.09-11.37.05-22.75-.08-34.12-.11-9.74-3.73-13.59-12.46-13.68-10.79-.12-18.17,5.43-18.33,14.15-.2,10.91-.19,21.82,0,32.73.08,4.51-1.59,5.98-6.11,6.12-5.17.16-4.84-2.8-4.81-6.19.06-8.36.02-16.71.02-25.07Z"/>
  <path class="cls-1" d="m896.76,498.52c.18,11.93-2.05,22.71-13.6,29.24-15.09,8.54-36.18,3.48-41.51-15.47-3.73-13.29-3.52-25.96,6.84-36.23,9.81-9.73,21.88-9.29,33.67-4.4,10.02,4.15,14,12.93,14.59,23.39.07,1.15,0,2.31,0,3.47Zm-46.04,1.2c-1.05,3.67,1.03,7.56,1.72,11.59,1.03,5.96,7.68,11.65,14.43,11.56,6.19-.09,12.74-.63,16.32-7.62,3.59-7.03,2.72-14.3,2.41-21.63-.52-12.29-10.34-19-22.27-15.49-7.25,2.13-12.44,7.44-12.61,21.59Z"/>
  <path class="cls-1" d="m1008.8,337.41c-5.76,7.96-11.24,15.5-16.68,23.08-2.16,3.02-3.37,5.64-.23,9.33,5.02,5.91,9.37,12.41,13.68,18.88,1.35,2.03,4.92,5.18,2.09,6.87-2.86,1.71-7.73,2.42-10.65-1.6-3.76-5.18-7.64-10.31-10.9-15.8-3.35-5.63-5.71-4.68-8.67.2-2.49,4.1-5.78,7.75-8.07,11.94-3.19,5.83-7.66,7.3-14.58,5.11,5.66-8.24,10.75-16.59,16.83-24.15,3.66-4.55,3.23-7.81.09-12-5.45-7.27-10.63-14.74-16.01-22.25,8.71-2.37,13.67.7,18.14,8.15,8.33,13.88,8.94,13.58,18.08.14,3.87-5.69,7.46-11.55,16.87-7.9Z"/>
  <path class="cls-1" d="m685.26,385.1c1.67,8.69-1.03,11.48-11.78,12.66-23.06,2.53-34.71-11.16-33.46-30.26.43-6.61.09-13.1,3.13-19.42,6.67-13.85,27.91-16.08,39.38-10.14,2.89,1.5,2.71,4.38,1.99,6.71-.86,2.77-3.31,1.48-5.22.99-5.24-1.35-10.38-2.58-15.93-1.02-6.53,1.84-12.13,8.09-12.04,14.85.08,5.74-1.3,11.7.6,17.21,4.09,11.84,14.15,15.4,28.32,10.5,1.68-.58,3.3-1.36,5.01-2.07Z"/>
  <path class="cls-1" d="m700.89,518.71c1.08,9.31.48,10.75-10.36,12.44-14.56,2.27-29.7-.88-33.62-18.33-2.92-13.01-4.32-26.29,6.59-37.38,7.5-7.63,25.2-8.06,34.46-4.82,3.13,1.09,2.4,4.36,1.91,6.7-.49,2.32-2.57,3.37-4.87,2.14-1.54-.83-3.12-.68-4.67-1.04-16.34-3.82-27.72,6.7-24.99,23.3,1.56,9.48,3.86,19.18,15.12,21.03,6.6,1.08,13.49-1.18,20.42-4.03Z"/>
  <path class="cls-1" d="m777.31,497.81c0-4.88-.19-9.76.06-14.62.19-3.65-1.08-4.91-4.75-4.79-1.85.06-4.99,1.78-5.5-2.09-.42-3.14,1.01-4.41,4.23-4.92,6.99-1.11,7.45-7.14,8.08-12.44.43-3.61,1.4-5.65,5.38-5.53,5.01.15,3.15,3.99,2.95,6.13-.69,7.53.83,12.33,9.94,10.69,3.34-.6,2.76,2.18,2.8,4.17.05,2.13.19,4.68-3,4.05-9.98-1.98-9.89,4.08-9.56,11.1.38,7.88.12,15.78.16,23.67.03,5.61,2.8,8.49,8.48,8.48,2.71,0,5.64-.78,5.43,3.88-.18,3.92-1.12,5.86-5.56,5.98-10.93.28-17.72-4.9-18.74-15.68-.56-5.98-.1-12.05-.1-18.08-.11,0-.21,0-.32,0Z"/>
  <path class="cls-1" d="m1025.08,366.77c0-5.33-.19-10.67.07-15.98.17-3.55-.82-5.09-4.6-4.75-2.65.24-5.77.78-6.58-3.2-.9-4.37,2.9-4.46,5.12-4.84,4.18-.7,5.78-2.94,6.43-6.76.53-3.11,1.86-6.09,2.31-9.21.43-2.97,2.45-2.12,4.12-2.32,2.08-.24,2.99.71,2.89,2.78-.06,1.16.12,2.33-.02,3.47-.85,6.96.24,12.07,9.21,10.48,3.49-.62,3.42,1.82,3.53,4.32.12,2.91-.81,4.57-3.89,3.98-7.39-1.42-8.23,2.48-7.89,8.56.47,8.55.25,17.14.11,25.71-.09,5.97,2.54,9.18,8.59,8.91,3.28-.15,4.4.84,4.43,4.24.02,3.43-1.28,3.86-4.38,4.32-12.74,1.92-19.42-3.55-19.44-16.5,0-4.4,0-8.8,0-13.21Z"/>
  <path class="cls-1" d="m709.55,353.42c0,12.52-.1,25.04.05,37.56.05,4.37-.72,6.78-6.05,6.83-5.87.05-4.79-3.57-4.8-6.87-.03-22.26-.08-44.52.04-66.78.02-3.94-.07-7.32-4.66-8.74-1.56-.48-2.65-1.93-2.34-3.82.41-2.5,2.46-1.54,3.88-1.64q13.88-.91,13.88,12.85c0,10.2,0,20.4,0,30.61Z"/>
  <path class="cls-1" d="m571.67,341.13c.53,3.39-.15,4.97-4.18,5.21-9.72.57-14.23,5.66-14.46,15.75-.22,9.73-.18,19.48,0,29.21.08,4.37-1.56,6.16-6,6.44-4.86.31-5.03-2.34-5.18-5.96-.68-16.81.42-33.61.09-50.42-.04-2.08-.92-4.73,2.91-5.01,3.7-.27,4.68,1.02,4.73,4.63.06,4.09,2.18,4.14,4.51,1.18,3.25-4.11,7.58-5.56,12.67-5.8,3.74-.18,5.96.6,4.89,4.78Z"/>
  <path class="cls-1" d="m827.01,500.28c0,8.12-.24,16.24.09,24.34.2,4.83-1.9,6.43-6.32,6.81-5.41.46-4.57-3.17-4.57-6.32-.02-13.45,0-26.9-.02-40.35,0-3.6.75-7.45-3.82-9.3-1.52-.61-2.62-2.05-2.01-3.95.72-2.24,2.7-1.26,4.13-1.34q12.51-.68,12.51,12.01c0,6.03,0,12.06,0,18.09Z"/>
  <path class="cls-1" d="m820.02,446.23c3.12.43,7.21-1.61,7.13,4.52-.07,5.59-3.15,5.59-7.18,5.64-4.17.05-7.05-.32-7.05-5.77,0-6.19,4.3-3.77,7.09-4.38Z"/>
</svg>