<?xml version="1.0" encoding="UTF-8"?>
<svg id="svg12" xmlns="http://www.w3.org/2000/svg" viewBox="0 0 98.56 96.14">
  <defs>
    <style>
      .cls-1 {
        fill: #f0f0f0;
      }
    </style>
  </defs>
  <path id="path47-5" class="cls-1" d="m49.62,0c-5.86,0-10.61,4.77-10.61,10.63,0,5.87,4.76,10.62,10.63,10.61,5.86,0,10.62-4.76,10.62-10.62v-.02C60.24,4.74,55.48,0,49.62,0ZM14.58,24.54c-1.87.01-3.76.11-5.54.56-1.17.3-2.31.79-3.05,1.55-.93.95-1.04,2.24-.59,3.35.4.97,1.49,1.7,2.7,2.12,2.6.89,5.49,1.08,8.22,1.64.5.12,1.06.26,1.37.6.32.41.13.97-.4,1.23-.89.45-2.02.46-3.06.44-.94-.04-1.98-.12-2.73-.59-.55-.34-.65-.92-.53-1.42h-6.1c-.02.93.16,1.9.84,2.69.57.68,1.49,1.16,2.47,1.45,1.58.46,3.28.6,4.97.65,2.28.04,4.61-.03,6.8-.55,1.31-.32,2.59-.83,3.43-1.67,1.49-1.49,1.14-3.85-.84-5.01-.98-.57-2.16-.93-3.36-1.16-1.76-.36-3.54-.63-5.32-.92-.62-.12-1.29-.23-1.81-.52-.55-.3-.59-.99-.03-1.29.72-.41,1.69-.41,2.55-.41.91.02,1.91.07,2.66.5.42.24.59.63.59,1.01h5.79c-.02-.75-.16-1.51-.69-2.14-.62-.78-1.72-1.27-2.84-1.56-1.77-.45-3.65-.54-5.51-.55h0Zm12.57.44v13.84s16.89,0,16.89,0v-3.02h-10.7v-2.69h9.54v-2.95h-9.54v-2.2s10.31,0,10.31,0v-2.98s-16.5,0-16.5,0Zm27.83,0s-5.22,0-7.83,0v13.84s5.93,0,5.93,0v-9.32s8.12,9.31,8.12,9.31h8.14s0-13.84,0-13.84h-5.94s0,9.25,0,9.25l-8.43-9.25Zm24.94.02s-6.39,9.23-9.61,13.84h6.23s1.49-2.5,1.49-2.5h9.62l1.39,2.5h6.92s-9.16-13.84-9.16-13.84h-6.88Zm3.11,3.3l2.95,5.01h-6.1s3.15-5.01,3.15-5.01ZM0,42.73l.05,7.54,28.16-.1c1.44.31,2.27,1.24,1.98,3.37l-17.32,30.32,5.64,5.27,26.82-46.4H0Zm53.73.06l26.38,46.2,5.83-5.24-17.52-30.24c-.29-2.13.54-3.08,1.98-3.39l28.16.1v-7.41s-44.83-.02-44.83-.02Zm-4.45,7.65l-24.74,42.46,6.57,3.2,16.51-27.9c.57-.47,1.14-.71,1.72-.74.61-.02,1.22.2,1.84.68l16.47,27.98,6.78-3.54-25.14-42.16Z"/>
</svg>