<?xml version="1.0" encoding="UTF-8"?>
<svg id="Capa_1" data-name="Capa 1" xmlns="http://www.w3.org/2000/svg" viewBox="0 0 562 536.47">
  <defs>
    <style>
      .cls-1 {
        fill: #f0f0f0;
      }
    </style>
  </defs>
  <path class="cls-1" d="m562,241.47c-2.12,7.99-3.58,16.16-7.28,23.69-13.67,27.85-37.09,42.21-66.54,48.24-9.65,1.98-19.41,2.83-29.28,2.82-47.16-.05-94.32-.08-141.49.07-4.32.01-5.59-.96-5.59-5.46.14-97.99.14-195.98,0-293.97,0-4.51,1.24-5.43,5.55-5.42,44.83.16,89.66-.22,134.49.22,26.11.26,50.57,6.57,70.38,24.92,27.83,25.78,36.47,82.47-3.21,112.43-2.63,1.99-5.57,3.56-8.53,5.43.6,1.45,2.06,1.5,3.12,1.98,24.33,10.93,41.13,28.37,47.59,54.81.11.45.53.82.8,1.23v29Zm-140.53,16.27c0-.06,0-.11,0-.17,10.99,0,22,.35,32.98-.08,20.12-.77,34.97-16.25,34.82-35.74-.15-19.55-14.65-34.09-35.25-34.45-22.48-.4-44.98-.04-67.47-.17-3.18-.02-3.88,1.14-3.87,4.07.1,20.82.12,41.65-.02,62.47-.02,3.4,1.2,4.16,4.33,4.12,11.49-.15,22.99-.06,34.49-.06Zm-5.21-187.54c-9.66,0-19.33.12-28.99-.07-3.33-.07-4.65.69-4.62,4.35.18,18.33.16,36.66,0,54.98-.03,3.34,1.07,4.17,4.26,4.14,18.99-.13,37.99.07,56.98-.11,16.27-.15,29.44-14.55,29.37-31.72-.07-17.24-13.27-31.41-29.52-31.57-9.16-.09-18.33-.02-27.49-.02Z"/>
  <path class="cls-1" d="m0,43.47c1.54-5.92,2.29-12.01,5.08-17.62C15.07,5.83,37.51-4.25,59.33,1.7c20.85,5.68,35.21,26.29,33.5,48.05-1.74,22.11-18.91,39.97-40.86,42.5C26.88,95.13,4.19,77.39.88,52.33c-.17-1.3-.58-2.57-.88-3.86v-5Z"/>
  <path class="cls-1" d="m379,536.47c-.72-2.51-2.11-3.47-4.81-2.57-3.02,1.01-6.18,1.04-9.36.71-9.25-.96-15.31-6.93-15.75-15.61-.53-10.42,4.04-16.92,13.67-18.91,7.2-1.48,14.1-.54,19.25,5.18,5.05,5.61,5.01,12.35,2.82,19.22-.29.92-1.04,2.45-.73,2.71,5.33,4.52-.54,6.4-2.09,9.26h-3Zm-11.37-9.93c5.41,0,8.93-3.57,9-9.13.07-5.63-3.87-9.89-9.09-9.82-4.96.07-9,4.24-9.12,9.42-.13,5.58,3.69,9.53,9.21,9.53Z"/>
  <path class="cls-1" d="m278.92,173.89c-.57,13.85,1.29,30.39-1.66,46.76-9.15,50.62-38.98,83.05-88.01,96.82-39.52,11.1-78.75,8.49-115.43-11.05-37.48-19.97-58.1-52.03-61.75-94.29-2.25-26.06-.39-52.28-.84-78.42-.06-3.28,1.71-3.32,4.09-3.32,20.83.04,41.65.11,62.48-.06,3.67-.03,4.36,1.28,4.34,4.6-.13,21.99-.15,43.98-.04,65.97.15,30.46,17.69,53.89,45.82,59.99,20.99,4.55,41.28,2.49,58.62-11.7,15.1-12.36,21.02-29.24,21.32-48.17.35-21.82.19-43.65-.02-65.47-.04-4.17,1.1-5.28,5.25-5.24,20.49.22,40.98.18,61.47.02,3.52-.03,4.5.98,4.44,4.47-.21,12.16-.08,24.32-.08,39.09Z"/>
  <path class="cls-1" d="m243.44,57.81c-10.32,0-20.65-.11-30.97.06-3.34.06-4.81-.77-4.6-4.41.28-5.15.17-10.32.03-15.48-.07-2.51.64-3.5,3.35-3.49,21.48.09,42.96.1,64.44,0,2.76-.01,3.34,1.05,3.28,3.52-.14,5.32-.22,10.66.02,15.98.15,3.23-1.2,3.89-4.08,3.86-10.49-.12-20.98-.05-31.47-.05Z"/>
  <path class="cls-1" d="m106.28,517.04c0-4.33.15-8.67-.05-13-.13-2.9.98-3.78,3.76-3.68,4.99.18,10.01-.1,14.99.15,9.51.48,12.98,6.14,8.87,14.65-.93,1.92.36,2.32.98,3.29,4.12,6.35,1.81,12.99-5.4,14.84-6.87,1.76-13.93.7-20.91.86-2.16.05-2.23-1.53-2.23-3.11,0-4.67,0-9.33,0-14Zm14.76,9.56c2.51-.35,6.17.95,6.04-3.24-.13-4.1-3.76-2.88-6.18-2.9-2.15-.02-5.15-1.32-5.06,3.12.09,4.58,3.32,2.38,5.2,3.02Zm-.52-13.15c2.12-.34,5.49.59,5.48-2.65-.02-3.82-3.65-2.4-5.85-2.52-1.7-.1-4.21-1.04-4.24,2.42-.03,3.78,2.72,2.38,4.62,2.76Z"/>
  <path class="cls-1" d="m78.08,458.81c0-3.98.26-7.97-.07-11.92-.33-3.87,1.54-4.25,4.7-4.23,3.24.03,5.29.21,5.12,4.44-.33,8.14-.03,16.31-.15,24.47-.02,1.6,1.16,4.33-1.4,4.59-2.72.28-5.92,1.56-8.25-1.59-3.61-4.9-7.43-9.65-12.3-14.18,0,4.22-.17,8.45.05,12.67.24,4.77-3.19,3.06-5.47,3.32-2.49.28-4.43.22-4.31-3.44.28-8.31,0-16.65.15-24.97.03-1.73-1.32-4.58,1.49-5,2.74-.41,5.93-1.3,8.23,1.81,3.62,4.91,7.45,9.67,11.19,14.49.34-.15.68-.3,1.02-.45Z"/>
  <path class="cls-1" d="m318.11,419.53c-11.47.04-18.75-6.69-18.84-17.42-.09-10.76,7.09-17.64,18.48-17.71,11.96-.07,19.02,6.47,18.97,17.58-.05,10.88-7.07,17.5-18.61,17.55Zm8.96-17.89c-.08-5.43-3.8-9.25-9.01-9.23-5.28.02-9.27,4.28-9.14,9.73.13,5.32,3.98,9.21,9.13,9.24,5.31.04,9.1-4.06,9.01-9.75Z"/>
  <path class="cls-1" d="m318.06,517.84c0,3.93-.26,7.89.07,11.79.34,3.9-1.24,4.65-4.83,4.7-3.86.06-4.82-1.29-4.72-4.91.23-7.98-.01-15.97.14-23.95.03-1.71-1.27-4.56,1.73-4.88,2.6-.27,5.59-1.27,7.78,1.67,3.74,5.03,7.69,9.91,12.43,15.98,0-5.76.16-10.14-.04-14.5-.2-4.25,2.75-3.2,5.06-3.33,2.42-.13,4.55-.31,4.44,3.4-.23,8.31,0,16.64-.12,24.95-.03,1.79,1.17,4.62-1.35,5.16-2.89.62-6.14,1.23-8.5-2.15-3.42-4.88-7.26-9.47-10.91-14.18-.39.08-.78.17-1.18.25Z"/>
  <path class="cls-1" d="m225.58,475.83c-7.17,1.74-12.42.53-15.4-6.12-.53-1.18-1.53-2.17-2.36-3.2-.69-.87-1.69-1.06-2.71-.85-1.34.27-1.11,1.43-1.17,2.38-.05.83-.02,1.66-.02,2.49-.03,5.77-2.08,7.22-7.81,5.88-1.89-.44-1.82-1.61-1.82-2.93-.01-9.15.07-18.29-.05-27.44-.04-2.75,1.21-3.38,3.63-3.32,4.65.11,9.32-.1,13.97.07,5.84.21,10.13,3.12,11.52,7.88,1.48,5.08.62,9.61-4.21,12.62-1.76,1.1-1.72,1.97-.48,3.48,2.3,2.8,4.41,5.76,6.9,9.06Zm-17.44-17.47c3.26.2,6.28.06,6.25-3.97-.02-3.98-3.04-4.01-6.04-4.05-2.71-.03-4.69-.1-4.56,3.77.12,3.5,1.05,5,4.35,4.24Z"/>
  <path class="cls-1" d="m397.26,475.78c-7.76,2.24-12.58-.28-15.74-6.67-.83-1.67-1.93-4.07-4.34-3.37-2.38.69-1.14,3.14-1.19,4.76-.19,5.83-2.05,7.25-7.83,5.9-1.49-.35-1.86-1.1-1.86-2.39,0-9.48.03-18.96-.03-28.44-.01-2.22,1.05-2.86,3.07-2.84,4.66.06,9.32-.11,13.97.05,5.36.18,9.73,2.17,11.76,7.58,1.87,5,.76,8.75-4.33,12.97-1.79,1.49-1.13,2.24-.13,3.53,2.2,2.84,4.31,5.75,6.66,8.91Zm-16.59-25.38c-2.29.14-5.09-.93-4.86,3.41.17,3.15.47,5.03,4.29,4.66,2.88-.28,6.04.15,6.07-4,.03-3.62-2.5-4.27-5.5-4.07Z"/>
  <path class="cls-1" d="m258.42,533.55c-7.25,1.86-12.27.5-15.23-5.84-.55-1.18-1.51-2.18-2.3-3.25-.78-1.04-1.81-1.45-3.06-1.04-1.27.41-1,1.55-1.06,2.5-.06.83-.02,1.66-.02,2.49-.04,5.45-2.86,7.38-8.08,5.76-1.89-.58-1.54-1.92-1.54-3.15-.03-9.15.04-18.3-.06-27.45-.03-2.34.71-3.26,3.12-3.19,4.82.14,9.65-.06,14.47.12,5.98.23,10,3,11.48,7.89,1.56,5.13.58,9.6-4.24,12.58-1.9,1.18-1.43,2.17-.35,3.54,2.24,2.84,4.39,5.75,6.89,9.05Zm-18.4-17.31c4.1-.24,7.31-.13,7.14-4.29-.17-4.13-3.41-3.58-6.24-3.8-3.19-.25-4.28.79-4.3,4.12-.02,3.66,1.72,4.2,3.4,3.96Z"/>
  <path class="cls-1" d="m56.94,401.3c0-4.32.15-8.65-.04-12.96-.17-3.88,2.48-3.18,4.69-3.18,2.24,0,4.82-.62,4.77,3.18-.11,8.32.05,16.64-.08,24.96-.03,1.75,1.18,4.6-1.57,5-2.73.4-5.9,1.39-8.21-1.75-3.52-4.8-7.29-9.41-11.4-14.66-1.39,4.64-.83,8.74-.67,12.7.16,4.13-2.14,4-5.01,4-2.74,0-4.71,0-4.58-3.84.29-8.14,0-16.31.16-24.46.03-1.71-1.38-4.56,1.63-4.95,2.77-.35,5.86-1.22,8.14,1.98,3.53,4.96,7.41,9.66,11.14,14.47.34-.17.68-.33,1.02-.5Z"/>
  <path class="cls-1" d="m355.06,402.68c0,3.78-.28,7.59.08,11.34.38,3.98-1.32,4.58-4.85,4.65-3.86.08-4.82-1.24-4.71-4.88.24-7.83,0-15.67.14-23.5.03-1.74-1.22-4.55,1.74-4.95,2.64-.36,5.62-1.17,7.79,1.73,3.66,4.9,7.5,9.68,11.73,15.12,1.22-4.96.69-9.23.6-13.41-.08-3.94,2.3-3.65,4.88-3.67,2.67-.02,4.82-.12,4.68,3.8-.29,8.16,0,16.33-.16,24.5-.03,1.7,1.4,4.61-1.59,4.93-2.74.29-5.91,1.38-8.22-1.8-3.5-4.83-7.29-9.46-10.95-14.18-.39.11-.78.21-1.17.32Z"/>
  <path class="cls-1" d="m24.95,500.44c1.66,0,3.32-.05,4.98,0,10.33.39,16.39,6.12,16.79,15.86.4,9.8-5.04,16.17-15.07,17.62-16.62,2.42-16.99,2.1-16.99-14.55,0-4.48.25-8.98-.07-13.44-.3-4.18.77-6.33,5.39-5.58,1.62.26,3.31.04,4.97.04,0,.01,0,.02,0,.03Zm-.88,16.62h.02c0,2.15,0,4.3,0,6.45,0,1.26.33,2.13,1.74,2.56,4.38,1.33,9.87-1.63,11.04-6.06,1.43-5.44-1.07-10.37-5.8-11.44-5.73-1.3-6.98-.31-6.99,5.53,0,.99,0,1.98,0,2.97Z"/>
  <path class="cls-1" d="m219.19,533.62c-6.61,1.44-11.82,1.19-14.79-5.26-.62-1.34-1.72-2.45-2.59-3.66-.73-1.02-1.64-1.64-2.96-1.38-1.61.31-1.4,1.62-1.47,2.74-.05.83-.02,1.67-.03,2.5-.07,5.96-.23,5.98-6.28,5.7-2.41-.11-3.17-.95-3.15-3.26.08-9.16.09-18.33,0-27.49-.03-2.42.92-3.19,3.23-3.12,4.99.14,10-.06,14.99.18,5.08.24,9.14,2.61,10.63,7.62,1.46,4.9,1.03,9.75-4.04,12.7-2.33,1.35-1.38,2.45-.27,3.87,2.2,2.82,4.34,5.7,6.75,8.88Zm-17.22-25.38c-2.71-.35-4.82-.13-4.74,3.89.07,3.43,1.44,4.26,4.46,4.03,2.79-.22,6.07.21,6.25-3.79.18-3.92-2.7-4.34-5.97-4.13Z"/>
  <path class="cls-1" d="m158.28,459.63c0-4.49.1-8.98-.04-13.47-.08-2.63.95-3.5,3.51-3.45,6.48.12,12.98.16,19.46-.02,3.02-.08,3.57,1.27,3.59,3.9.02,2.76-.42,4.46-3.75,4.27-3.48-.2-6.98,0-10.47-.02-1.75,0-2.81.51-2.83,2.54-.02,2.33,1.5,2.17,3.01,2.17,2.83,0,5.66.09,8.48-.02,2.72-.1,4.64-.07,4.64,3.78,0,3.9-1.71,4.34-4.81,4.13-2.81-.19-5.65,0-8.48-.05-1.67-.02-2.9.21-2.86,2.37.04,1.92.83,2.67,2.71,2.65,3.66-.05,7.33.21,10.97-.06,3.4-.25,3.76,1.44,3.71,4.18-.05,2.47-.22,4.04-3.42,3.93-6.64-.22-13.31-.21-19.95,0-3.04.09-3.61-1.23-3.52-3.85.15-4.32.04-8.65.04-12.97Z"/>
  <path class="cls-1" d="m45.92,454.97c0,2.17.02,4.33,0,6.5-.12,9.98-5.51,15.47-15.42,15.72-10.11.25-16.05-5.21-16.38-15.3-.17-5.16.22-10.34-.12-15.48-.27-4.03,2.1-3.69,4.69-3.68,2.73,0,5.38-.45,5.11,3.87-.3,4.98-.11,9.99-.04,14.98.06,4.15,1.54,7.22,6.32,7.26,4.03.04,6.08-2.37,6.17-7.35.09-5.16.16-10.33,0-15.49-.14-4.29,2.9-3.14,5.16-3.23,2.25-.09,4.87-.68,4.57,3.21-.23,2.98-.05,5.99-.04,8.99Z"/>
  <path class="cls-1" d="m162.37,528.74c-5.04-.51-9.05-.95-10.39,4.41-.27,1.06-8.74,1.57-9.4.7-.75-1,.02-1.9.4-2.77,4.18-9.39,8.49-18.72,12.54-28.17,1.63-3.8,4.7-2.12,7.25-2.49,2.34-.34,3.95.29,5.01,2.79,3.9,9.14,7.96,18.23,12.16,27.24,1.56,3.35.41,3.9-2.73,3.81-3.33-.1-6.21.36-7.79-4.03-1.26-3.51-5.36-.93-7.05-1.48Zm-.79-18.49c-1.14,2.68-1.76,4.56-2.7,6.28-1.87,3.44-.56,4.2,2.85,4.09,2.79-.09,4.25-.45,2.58-3.6-.92-1.74-1.5-3.66-2.73-6.77Z"/>
  <path class="cls-1" d="m553.66,534.2c-2.65.45-5.1-.11-5.9-3.74-.4-1.8-1.96-1.96-3.56-1.94-2.99.05-5.99.15-8.96-.03-2.4-.15-3.71.75-4.34,3.03-.41,1.47-1.12,2.82-3.05,2.66-2.44-.21-5.7,1.13-7.1-.62-1.3-1.62,1.08-4.16,1.98-6.21,3.44-7.9,7.23-15.66,10.42-23.67,1.45-3.65,3.98-3.21,6.78-3.31,2.8-.1,4.84.12,6.16,3.37,3.49,8.6,7.5,16.98,11.3,25.46q2.24,4.99-3.72,5Zm-18.26-13.65c2.3,0,3.91-.07,5.52.02,2.11.12,2.75-.73,1.84-2.61-1.07-2.22-1.41-4.83-3.51-7.09-1.33,3.35-2.46,6.2-3.85,9.69Z"/>
  <path class="cls-1" d="m268.17,534.2q-5.9,0-3.62-5.12c3.8-8.49,7.79-16.91,11.31-25.51,1.37-3.34,3.63-3.24,6.32-3.17,2.62.06,5.02-.36,6.43,3.08,3.78,9.21,8.01,18.25,12.15,27.31,1.13,2.46.98,3.58-2.14,3.46-3.6-.15-7.53.83-8.56-4.37-.28-1.43-1.74-1.32-2.9-1.33-3.33-.02-6.66.03-9.98-.02-1.72-.03-2.95.56-3.32,2.31-.75,3.55-3.36,3.6-5.68,3.36Zm17.97-14.11c-1.21-3.05-2.34-5.92-3.99-10.08-1.63,4.21-2.73,7.04-3.89,10.05,2.76.73,5.11.68,7.87.04Z"/>
  <path class="cls-1" d="m359.74,476.38c-3.22,0-5.68-.06-8.13.02-1.55.05-2.44-.51-2.92-2.02-1.99-6.23-7.21-2.86-11-3.48-2.65-.43-5.86-.85-6.69,3.18-.57,2.79-2.82,2.28-4.76,2.3-1.82.02-3.64,0-6.25,0,3.17-7.16,6.14-13.88,9.13-20.59,1.21-2.73,2.75-5.35,3.62-8.18,1.24-4.02,3.63-5.23,7.72-5.01,2.98.16,4.71.74,5.97,3.75,4.15,9.89,8.67,19.63,13.31,30.02Zm-23.87-14.13c2.76.58,6.41,1.37,6.94-.13,1.01-2.88-1.44-5.69-3.18-9.19-1.43,3.56-2.56,6.35-3.76,9.32Z"/>
  <path class="cls-1" d="m461.25,476.29c-5.08-.33-10.12,2.3-12.51-4.48-.75-2.14-4.27-.94-6.51-.94-4.06,0-8.26-1.35-10.65,4.49-1.07,2.63-6.03.7-10.09.97,3.26-7.25,6.29-14.01,9.33-20.77,1.02-2.27,2.41-4.45,2.98-6.83,1.35-5.6,5-6.74,10.04-6.02,1.39.2,2.54.33,3.2,1.81,4.63,10.43,9.31,20.83,14.22,31.77Zm-19.87-22.61c-1.55,1.27-1.81,3.16-2.44,4.81-.47,1.23-2.1,2.88-.32,3.86,1.67.91,4.1.99,5.7-.05,1.55-1.02-.15-2.67-.59-3.9-.58-1.61-.85-3.48-2.35-4.71Z"/>
  <path class="cls-1" d="m55.68,517.06c0-4.49.07-8.98-.03-13.46-.05-2.32.81-3.25,3.19-3.21,6.81.1,13.63.11,20.45,0,3.35-.05,2.57,2.26,2.62,4.1.05,1.93.54,4.12-2.75,3.94-3.48-.19-6.98-.1-10.47-.01-1.64.04-3.88-.77-3.76,2.36.11,3,2.31,2.25,3.97,2.32,2.49.11,4.99.07,7.48.02,2.63-.05,4.75-.21,4.71,3.75-.04,3.64-1.61,4.1-4.51,3.97-2.99-.14-5.98.02-8.97-.02-1.84-.03-2.69.66-2.69,2.63,0,1.93.77,2.69,2.64,2.67,3.82-.04,7.65.15,11.47-.01,3.21-.14,3.33,1.75,3.36,4.13.03,2.51-.39,4.09-3.5,4.01-6.48-.17-12.97-.16-19.45,0-2.81.07-3.88-.91-3.79-3.72.14-4.48.04-8.98.05-13.46Z"/>
  <path class="cls-1" d="m233.06,397.53c0,2,.03,3.99,0,5.99-.16,10.61-5.55,15.92-16.09,15.88-9.78-.04-15.25-5.13-15.65-14.85-.22-5.31.09-10.65-.08-15.97-.15-4.62,3.16-3.18,5.53-3.43,2.67-.28,4.42.18,4.23,3.65-.28,5.14-.08,10.31-.06,15.47.02,4.09,1.93,6.87,6.12,7.02,4.29.16,6.3-2.74,6.48-6.69.23-5.31.28-10.65.09-15.96-.15-4.1,2.56-3.44,5-3.49,2.4-.05,4.77-.27,4.49,3.41-.22,2.98-.05,5.99-.04,8.98Z"/>
  <path class="cls-1" d="m89.56,419.48c-3.88.21-7.24-.04-10.1-2-1.69-1.16-5.17-1.87-3.69-4.68,1.33-2.53,3.22-6.23,7.59-2.84,2.24,1.74,5.29,1.94,8.18,1.42,1.5-.27,3.11-.86,3.33-2.55.26-1.95-1.51-2.43-2.95-2.76-2.59-.59-5.25-.84-7.82-1.47-5.64-1.39-7.97-4.1-8.15-9.18-.19-5.34,2.07-8.43,7.72-10.09,5.28-1.55,10.54-1.42,15.56,1.06,1.28.63,3.94,1.13,2.08,3.33-1.34,1.58-1.63,5.37-5.3,3.71-2.51-1.14-5.1-1.43-7.8-1.06-1.23.17-2.31.64-2.54,2-.29,1.73.98,2.41,2.31,2.72,2.1.48,4.28.61,6.38,1.1,6.95,1.59,10.57,5.49,10.28,10.93-.3,5.75-5.01,9.8-12.07,10.35-1.16.09-2.33.01-3,.01Z"/>
  <path class="cls-1" d="m394.66,512.26c0-2.16.21-4.35-.05-6.48-.5-4.04.81-5.54,5.12-5.38,3.51.13,4.6,1.08,4.4,4.54-.28,4.64-.1,9.3-.05,13.96.04,4.03,1.19,7.31,5.96,7.63,4.13.27,6.58-2.24,6.81-7.39.23-4.98.34-9.99,0-14.95-.27-4.04,2.1-3.69,4.67-3.65,2.47.03,5.07-.57,4.86,3.51-.31,5.97.03,11.98-.41,17.93-.61,8.2-6.35,12.75-15.45,12.81-9.38.06-15.02-4.54-15.72-13.06-.26-3.14-.04-6.31-.04-9.47-.03,0-.07,0-.1,0Z"/>
  <path class="cls-1" d="m246.96,477.4c-5.28.02-9.04-.69-12.23-3.06-1.39-1.03-4.3-2-1.92-4.46,1.59-1.64,2.3-5.81,6.34-2.72,2.56,1.95,5.81,2.43,9.07,1.81,1.51-.29,3.12-.74,3.26-2.56.15-1.93-1.57-2.45-2.98-2.76-2.59-.58-5.27-.79-7.87-1.34-5-1.06-7.84-4.16-8.26-9.3-.37-4.59,2.34-8.25,7.53-9.87,5.25-1.64,10.55-1.51,15.61.73,1.21.53,4.1.86,2.73,3.08-1.17,1.9-1.87,5.53-5.69,4.08-2.7-1.02-5.41-1.62-8.28-.8-1.03.29-1.96.89-2.06,1.93-.12,1.3.73,2.19,2.03,2.44,2.29.43,4.61.69,6.89,1.19,6.58,1.45,9.95,5.1,9.94,10.63-.01,5.58-3.28,9.08-10.01,10.51-1.78.38-3.62.44-4.09.49Z"/>
  <path class="cls-1" d="m133.02,464.58c2.7-7.32,4.82-13.23,7.06-19.09.89-2.33,8.68-4.08,10.41-2.41.88.85.35,1.83-.03,2.74-3.93,9.52-7.91,19.02-11.75,28.57-1.26,3.13-3.82,2-5.94,2.09-2.01.08-4.23.71-5.38-2.17-3.8-9.57-7.78-19.07-11.77-28.57-.93-2.21-.37-2.83,1.97-3.06,4.92-.48,8.55.12,9.84,6.06,1.07,4.94,3.34,9.62,5.6,15.84Z"/>
  <path class="cls-1" d="m260.11,419.53c-9.19,0-14.98-3.51-17.49-10.34-2.79-7.6-.7-16.25,5.07-20.95,5.7-4.65,15.3-5.33,21.59-1.34,1.27.81,4.25,1.75,2.55,3.63-1.56,1.74-2.41,6.01-6.77,3.65-5.07-2.74-9.2-1.95-12.1,1.69-2.77,3.49-2.73,9.12.09,12.53,2.89,3.48,7.38,4.35,12.19,1.38,4.77-2.94,5.55,1.69,6.99,3.58,1.83,2.4-1.51,3.06-2.93,3.96-2.88,1.82-6.2,2.33-9.2,2.2Z"/>
  <path class="cls-1" d="m490.08,517.01c0-4.33.29-8.68-.08-12.98-.35-4.14,2.17-3.66,4.7-3.63,2.62.03,5.38-.65,5.12,3.8-.35,5.97.06,11.99-.14,17.98-.1,3.1,1.03,4.18,4.03,3.98,2.65-.18,5.34.13,7.99-.07,3.13-.23,4.33.71,4.36,4.12.03,3.54-1.39,4.13-4.41,4.04-5.99-.17-11.99-.18-17.98,0-2.9.09-3.75-.97-3.63-3.75.19-4.49.05-8.99.05-13.49Z"/>
  <path class="cls-1" d="m301.55,442.74c3.16,0,6.32.03,9.48,0,2.68-.03,5.16-.54,5.18,3.79.02,4.05-1.94,4.4-4.88,3.98-3.95-.55-5.28,1.02-5.06,4.97.3,5.14-.1,10.32.13,15.46.16,3.68-.27,5.65-4.92,5.64-4.5,0-4.71-1.99-4.59-5.38.18-5.15-.21-10.33.13-15.46.28-4.15-1.1-5.94-5.26-5.2-4.23.76-5.01-1.39-4.75-5.04.16-2.24,1.04-2.83,3.06-2.78,3.82.09,7.65.03,11.48.02Z"/>
  <path class="cls-1" d="m179.49,385.15c3.83,0,7.66.11,11.48-.04,3.05-.12,2.96,1.76,2.97,3.88.01,2.16,0,3.71-3.01,3.88-6.89.39-6.88.57-6.88,7.48,0,4.99-.17,9.99.05,14.98.15,3.38-1.87,3.41-4.13,3.16-2.15-.23-5.38,1.35-5.32-3.02.07-5.99-.2-11.99.08-17.97.18-3.79-1.16-5.13-4.85-4.74-2.72.29-5.08.41-5.09-3.85,0-4.43,2.62-3.76,5.21-3.78,3.16-.03,6.33,0,9.49,0v.02Z"/>
  <path class="cls-1" d="m124.84,385.14c3.66,0,7.33.14,10.98-.04,3.05-.15,3.6,1.39,3.55,3.97-.05,2.28-.39,3.63-3.22,3.8-6.82.41-6.81.56-6.81,7.6,0,4.83-.2,9.66.05,14.48.23,4.52-2.85,3.36-5.33,3.61-2.89.29-4.21-.52-4.05-3.78.26-5.48-.22-11,.16-16.47.3-4.34-.93-6.13-5.45-5.57-2.09.26-4.72.9-4.75-3.07-.02-3.36.72-4.9,4.38-4.6,3.47.29,6.99.06,10.48.07Z"/>
  <path class="cls-1" d="m466.06,513.7c.35,3.4-1.68,8.5.77,11.39,2.39,2.82,7.55.95,11.47.95,3.2,0,3.85,1.28,3.85,4.15,0,2.92-.72,4.18-3.9,4.06-5.81-.22-11.63-.17-17.44-.01-2.86.08-4.25-.63-4.19-3.83.16-8.8.21-17.61-.01-26.41-.1-3.96,2.25-3.64,4.82-3.61,2.53.02,5.14-.45,4.71,3.64-.31,2.96-.06,5.97-.06,9.68Z"/>
  <path class="cls-1" d="m107.92,459.87c0,4.5-.18,9.01.06,13.49.19,3.59-2.14,3.26-4.21,2.96-2.04-.29-5.48,1.77-5.48-2.73,0-9.33-.01-18.66,0-27.99.01-4.39,3.41-2.54,5.51-2.82,2.19-.29,4.34-.37,4.18,3.09-.22,4.65-.06,9.33-.06,13.99Z"/>
  <path class="cls-1" d="m445.92,517.68c0,4.48-.16,8.97.05,13.44.17,3.49-2.07,3.29-4.21,3.03-2.1-.26-5.47,1.55-5.47-2.82-.01-9.29.06-18.59-.04-27.88-.04-4.42,3.18-2.78,5.3-2.99,2.33-.24,4.66-.48,4.44,3.29-.28,4.63-.07,9.29-.07,13.94Z"/>
  <path class="cls-1" d="m281.08,401.97c0-4.49.2-8.99-.06-13.46-.21-3.74,2.13-3.51,4.48-3.35,2.23.15,5.3-1.1,5.25,3.17-.1,8.97-.14,17.95.01,26.92.08,4.75-3.32,2.94-5.58,3.26-2.67.38-4.42-.12-4.18-3.59.3-4.3.07-8.64.07-12.96Z"/>
  <path class="cls-1" d="m156.92,401.88c0,3.82,0,7.64,0,11.47-.01,4.62-4.34,7.12-8.5,5-1.41-.72-1.12-1.92-1.12-3-.04-8.97.08-17.95-.06-26.92-.07-4.25,2.9-3.17,5.17-3.26,2.27-.1,4.77-.57,4.57,3.26-.24,4.47-.06,8.97-.05,13.46Z"/>
  <path class="cls-1" d="m279.06,459.97c0,4.32-.22,8.66.07,12.96.25,3.64-1.83,3.69-4.33,3.45-2.2-.21-5.24,1.21-5.17-3.15.15-9.14.08-18.28.04-27.42-.02-4.3,3.17-2.8,5.35-3.04,2.36-.26,4.24-.05,4.09,3.25-.21,4.64-.05,9.31-.05,13.96Z"/>
  <path class="cls-1" d="m414.92,459.76c0,3.98-.22,7.98.07,11.94.26,3.55-.6,4.97-4.54,4.84-3.49-.12-5.02-.69-4.88-4.63.3-8.28.25-16.59.02-24.87-.1-3.65,1.38-4.43,4.68-4.38,3.08.05,5.03.27,4.73,4.18-.33,4.29-.08,8.62-.08,12.93Z"/>
  <path class="cls-1" d="m24.06,402.41c0,3.65-.15,7.31.04,10.95.18,3.43-.18,5.43-4.62,5.34-4.07-.08-5-1.43-4.9-5.18.23-8.12.26-16.26,0-24.38-.13-4.06,2.07-4.08,4.98-4.06,2.76.02,4.84.1,4.57,3.89-.32,4.46-.07,8.95-.07,13.43Z"/>
  <path class="cls-1" d="m317.83,381.74c-.93-.56-3.96,1.2-3.23-1.59.85-3.21,1.79-7.51,6.98-6.39,1.46.32,4.76-.99,3.96,1.53-.98,3.08-2.55,7.17-7.72,6.44Z"/>
</svg>