<?xml version="1.0" encoding="UTF-8"?>
<svg id="Capa_1" data-name="Capa 1" xmlns="http://www.w3.org/2000/svg" viewBox="0 0 238.15 46.35">
  <defs>
    <style>
      .cls-1 {
        fill: #fff;
      }
    </style>
  </defs>
  <path class="cls-1" d="m133.14,29.1c-.77,1.76-2.1,2.79-3.71,3.49-1.2.52-2.4,1.02-3.52,1.7-.1.06-.22.11-.34.14-.64.19-1.26.21-1.68-.39-.39-.57-.22-1.11.2-1.6,1.33-1.6,2.91-2.95,4.45-4.34.73-.66.78-1-.06-1.53-.79-.5-1.68-.79-2.56-1.12-.51-.19-.73.09-.98.44-3.59,5.19-8.4,9.02-13.84,12.16-3.14,1.81-6.59,2.26-10.11,2.6-2.81.27-5.51-.01-8.17-.96-2.02-.72-3.49-1.95-4.28-3.95-.37-.94-.48-1.88.05-2.76,1.77-2.92,3.15-6.07,5.4-8.7.45-.53.76-1.2,1.09-1.82,1.25-2.35,2.68-4.6,4.54-6.5,2.83-2.89,5.77-5.68,8.93-8.2,2.83-2.26,6.17-3.52,9.75-4.17.89-.16,1.79-.28,2.69-.32,1.33-.06,2.65-.33,3.81.83.71.71,1.84,1.01,2.76,1.52,1.25.7,2.05,1.76,2.49,3.11.3.9.7,1.11,1.62.81.47-.15.91-.41,1.37-.58.66-.24,1.33-.31,1.71.42.39.73-.26,1.08-.72,1.39-.69.46-1.44.85-2.19,1.23-.89.45-1.45,1.12-1.63,2.11-.16.88-.39,1.74-.58,2.61-.09.4-.42.9.06,1.18.49.28,1.06.56,1.68.31,2.17-.87,4.43-.25,6.65-.4.5-.03.61.39.6.77-.04.95-.11,1.9-.18,2.85-.02.35-.31.51-.52.73-1.48,1.53-2.36,3.3-2.26,5.47.03.66.21,1.27.56,1.84.53.86,1.49,1.19,2.42.83.57-.22.49-.63.3-1.06-.67-1.54.56-4.61,2.12-5.28,1.46-.62,3.25.6,3.39,2.32.12,1.49.44,1.83,1.81,1.23,1.98-.86,4.02-1.66,5.77-2.97.75-.57,1.26-.5,1.71.33.24.44.34.92.41,1.41.14,1.06,1.21,1.6,2.05.9,1.35-1.12,3.1-1.53,4.45-2.68,1.01-.85,2.02-.78,2.54-.19.51.56.35,1.15-.71,2.31-.75.82-1.58,1.57-2.34,2.38-.59.64-.48,1.06.38,1.21,1.06.19,2.16.35,3.18-.25.24-.14.52-.27.78-.29,2.3-.1,3.75-1.68,5.29-3.03,1.19-1.05,2.63-1.75,3.72-2.93.33-.36.77-.17,1.01.23.37.62.35,1.23-.17,1.78-.53.57-1.13,1.05-1.78,1.48-.64.43-1.29.87-1.88,1.37-.64.53-.58.91.12,1.37.62.41,1.33.55,2.05.54,2.05-.03,4.11-.07,6.16-.21.86-.06,1.64-.56,2.42-.89.93-.4,1.89-.77,2.79-1.26.46-.25.74-.57.68-1.09-.06-.51-.19-.85-.89-.67-1.29.35-1.83-.17-1.77-1.52.16-3.4,1.91-5.81,4.79-7.5,1.15-.68,2.14-.57,3.17.28,1.44,1.17,1.91,1.17,3.38-.01.34-.27.65-.57.98-.86.54-.48,1.11-.6,1.63,0,.48.55.19,1.03-.25,1.45-.97.92-2.03,1.74-3.15,2.45-.79.5-1.26,1.14-1.41,2.06-.39,2.42-1.69,4.22-3.72,5.62-4.63,3.19-9.62,5.13-15.37,4.71-1.56-.12-2.87-.82-4.08-1.69-.57-.41-1-.37-1.61-.17-2.08.69-4.08,1.68-6.39,1.52-2.07-.14-2.34-.3-2.56-2.32-.13-1.18-.79-1.49-1.75-.83-.89.62-1.76,1.28-2.68,1.85-.63.39-.71,1.05-1.03,1.6-.27.46-.4,1.24-1.09,1.05-.73-.2-.94-.93-.83-1.67.08-.51.2-.97.53-1.44.59-.83.28-1.85.22-2.78-.03-.41-.48-.33-.77-.22-.63.25-1.27.52-1.87.84-1.99,1.06-4.07,1.85-6.3,2.24-.51.09-.9.4-1.33.65-3.45,2.03-4.47,1.9-6.75-1.23-.29-.4-.51-.83-.84-1.37Zm-33.65,9.42c.63,0,1.24-.04,1.86-.18,1.21-.28,2.41-.67,3.67-.57,1.61.13,2.97-.54,4.32-1.22,2.6-1.32,5.1-2.78,7.35-4.68,2.23-1.88,4.5-3.68,6.11-6.17.41-.63.65-1.23.6-1.97-.12-1.84.84-3.01,2.46-3.74.33-.15.57-.36.74-.67.49-.91.76-1.84.61-2.91-.11-.79-.26-.8-.93-.46-5.08,2.57-9.78,5.76-14.76,8.49-2.08,1.14-4.2,2.13-6.59,2.46-2.45.34-4.14-.62-4.94-2.88-.09-.26-.22-.52-.38-.73-.61-.78-.56-1.6-.18-2.44.25-.53.55-1.03.81-1.56.11-.23.47-.49.17-.71-.28-.21-.47.16-.66.35-.06.07-.12.14-.17.22-2.82,4.38-5.88,8.62-8.49,13.13-1.14,1.98-.56,3.74,1.54,4.67,2.18.97,4.5,1.4,6.87,1.57Zm23.08-31.55c-3.16-.1-5.86,1.01-8.42,2.78-3.62,2.5-6.85,5.41-9.87,8.58-.88.92-1.69,1.9-2.23,3.06-.61,1.29-.22,2.46,1.07,2.87,1.31.41,2.74.42,4.04,0,1.44-.46,2.75-1.28,4.09-2,2.57-1.38,4.91-3.14,7.46-4.52,2.89-1.58,5.69-3.29,8.53-4.93.56-.32,1.19-.69,1.17-1.43-.03-1.94-1.53-3.8-3.42-4.28-.79-.2-1.61-.13-2.42-.13Zm11.03,13.18c-1.55-.08-3.03.26-4.49.69-.67.2-1.25.53-1.72,1.06-.67.74-.65,1,.21,1.47.82.44,1.66.84,2.5,1.24,1.71.83,1.71.82,3.13-.47.85-.77,1.71-1.54,2.34-2.49.62-.93.36-1.44-.75-1.49-.4-.02-.81,0-1.21,0Zm55.42.57c-.22-.5-.16-1.18-.74-1.43-.49-.21-.86.25-1.21.54-.82.67-1.56,1.42-2.08,2.35-.14.25-.46.52-.2.82.23.28.51-.04.77-.06.18-.02.37,0,.55-.04,1.22-.19,1.92-1.15,2.82-1.83.07-.06.06-.23.08-.35Z"/>
  <path class="cls-1" d="m53.79,32.51c1.55.39,2.71-.57,4.01-.88,1.32-.31,2.48-1.05,3.83-1.38.94-.23,1.62-1.19,2.54-1.67.96-.51,1.25-.44,1.77.51.26.48.2.86-.16,1.25-.62.68-1.38,1.15-2.25,1.43-1.41.45-2.45,1.39-3.51,2.5,1.28.29,2.4.12,3.5-.31,3.26-1.26,6.35-2.81,8.97-5.17.82-.74,1.82-1.28,2.74-1.91.38-.26.66-.09.85.24.27.47.91.93.22,1.51-.97.82-1.94,1.64-2.95,2.41-1.19.9-2.42,1.73-3.62,2.61-.24.17-.57.27-.67.78,1.2-.18,2.41-.17,3.46-.57,3.25-1.23,6.12-3,8.08-5.99.86-1.31,1.7-2.75,2.9-3.71,2.24-1.79,3.76-4.18,5.7-6.2,2.26-2.34,4.13-4.99,5.8-7.78,1.49-2.49,2.84-5.05,3.97-7.71.33-.77.78-1.47,1.35-2.1.52-.58,1.03-.48,1.33.26.23.55.07,1.09-.08,1.62-1.98,6.77-5.25,12.83-9.77,18.3-3.04,3.68-6.46,6.91-10.17,9.88-1.28,1.03-2.23,2.18-2.47,3.86-.14,1.01-.11,1.95.35,2.88.33.66.66,1.33.93,2.01.27.68-.12,1.1-.69,1.42-.58.32-.93-.01-1.27-.41-.32-.39-.51-.84-.67-1.31-.44-1.28-.89-2.56-1.3-3.85-.15-.46-.28-.61-.77-.34-1.52.85-3.16,1.45-4.8,2.04-.95.34-1.77.99-2.85,1.08-1.46.13-2.32-.22-2.96-1.53-.29-.59-.64-.44-1.07-.29-1.4.5-2.8,1.03-4.3,1.19-2.02.22-2.32.13-3.07-1.69-.36-.88-.73-1.06-1.56-.56-.82.5-1.76.78-2.7,1-.64.15-1.26.13-1.75-.35-.5-.49-.16-1.02-.03-1.55.27-1.07,1.07-1.95,1.04-3.13-.01-.69-.22-.83-.82-.49-1.77.97-3.6,1.83-5.25,3.01-.37.26-.62.57-.82.97-.68,1.38-1.4,2.75-2.13,4.11-.2.37-.39.87-.93.76-.46-.09-.51-.57-.6-.96-.33-1.45-.23-2.76.82-3.98.74-.86,1.27-1.89,1.89-2.85.22-.34.34-.72.32-1.14-.03-.51-.1-1.06-.54-1.31-.38-.21-.72.25-1.05.46-3.51,2.28-6.77,4.94-10.48,6.92-1.71.91-3.52,1.54-5.49,1.66-.88.05-1.25-.39-1.29-1.19-.04-.83.14-1.59.71-2.23.84-.95,1.64-1.93,2.41-2.94.64-.84,1.47-1.48,2.39-2.03.77-.45,1.41-1.11,2.13-1.63,1.98-1.43,4.17-2.48,6.44-3.34,1.57-.6,3.25-.39,4.82.29.37.16.71.4,1.08.54,1.37.52,2.04,1.42,1.77,2.92-.11.64.13.9.85.73.97-.22,1.95-.36,2.78-.98.34-.25.77-.41,1.17-.57,1.44-.55,2.61.2,2.64,1.72.02,1.08-.22,2.13-.72,3.16Zm-25.48,2.21c1.85.4,3.3-.15,4.67-1.1,2.27-1.56,4.57-3.08,6.85-4.61.57-.38,1.07-.84,1.4-1.45.13-.24.37-.48.2-.76-.2-.33-.57-.2-.86-.17-1.13.15-2.14.64-3.14,1.13-3.5,1.68-6.59,3.89-9.13,6.96Z"/>
  <path class="cls-1" d="m13.79,37.33c1.4-1.01,3.06-1.38,4.4-2.44,3.29-2.62,5.71-5.89,7.84-9.41,1.23-2.04,2.07-4.26,2.93-6.46.16-.41.23-.83.24-1.26,0-.53.06-1.03.43-1.47.15-.17.23-.44.26-.68.87-5.76-2.22-9.73-7.5-10.9-6.52-1.45-12.67-.07-18.19,3.75-.84.58-1.64,1.22-2.46,1.83-.49.36-1.04.58-1.48.01-.4-.53-.33-1.1.21-1.56,3.68-3.11,7.78-5.43,12.58-6.32,3.56-.67,7.11-1,10.72,0,4.37,1.22,8.08,5.77,8.18,10.22.08,3.93-1.25,7.49-2.88,10.98-1.81,3.89-4.2,7.4-7.16,10.53-.6.63-1.25,1.21-1.95,1.72-3.58,2.64-6.45,6.07-9.98,8.77-.69.53-1.38,1.05-2.12,1.51-.67.42-1.03.19-1.1-.6-.06-.7.05-1.33.54-1.89,2.64-3.04,4.61-6.45,6.17-10.15,1.19-2.83,2.41-5.65,3.51-8.51.44-1.14.46-2.42.85-3.58.76-2.25.72-4.68,1.6-6.89.47-1.18.78-2.37.84-3.66.05-1.14.64-2.18,1.12-3.21.33-.7.98-.64,1.34.05.24.46.22.95.1,1.44-.96,3.95-2.04,7.87-2.85,11.85-1,4.94-2.98,9.5-5.14,14.01-.37.77-.7,1.55-1.05,2.32Z"/>
  <path class="cls-1" d="m206.25,30.43c.17-1.42-.2-3.02-.99-4.54-.13-.24-.27-.53-.26-.78.08-1.38-.78-2.34-1.41-3.43-1.39-2.43-2.7-4.91-4.06-7.36-.31-.56-.71-1.08-1.05-1.63-.45-.74.17-2.04,1.02-2.16.36-.05.5.21.64.44,1.3,2.17,2.73,4.27,3.82,6.56.52,1.09,1.06,2.16,1.71,3.17.85,1.32,1.22,2.83,1.68,4.29.19.61.44.8,1.07.5.51-.24.98-.52,1.37-.93,2.02-2.09,4.1-4.13,6.18-6.16,1.9-1.85,4.05-3.46,6.12-5.14.87-.71,1.56-1.6,2.41-2.3,3.29-2.72,6.16-5.92,9.72-8.32.89-.6,1.83-1.19,3.01-1.1.35.03.71.02.84.42.13.4.13.8-.16,1.14-.1.11-.23.23-.37.27-3.81,1.3-6.26,4.38-9.07,6.94-3.2,2.93-6.59,5.64-9.84,8.51-2.76,2.44-5.6,4.81-7.91,7.7-1.37,1.72-2.48,3.54-2.64,5.8-.02.24-.05.49-.13.73-.16.49-.51.78-1.05.74-.51-.04-.64-.46-.66-.87-.03-.74,0-1.48,0-2.5Z"/>
  <path class="cls-1" d="m215.37,30.13c.07-.34-.2-.89.4-1.12.41-.15.71.1.97.38.38.42.4.87.1,1.34-.1.15-.18.32-.28.47-.18.26-.4.49-.76.38-.36-.11-.4-.42-.42-.74,0-.21,0-.43,0-.72Z"/>
</svg>